<?xml version="1.0" encoding="UTF-8" standalone="no"?>
<!-- Created with Inkscape (http://www.inkscape.org/) -->

<svg
   width="210mm"
   height="297mm"
   viewBox="0 0 210 297"
   version="1.1"
   id="svg5"
   xml:space="preserve"
   inkscape:version="1.2.2 (b0a84865, 2022-12-01)"
   sodipodi:docname="coffee_bean_copper_mirrored.svg"
   xmlns:inkscape="http://www.inkscape.org/namespaces/inkscape"
   xmlns:sodipodi="http://sodipodi.sourceforge.net/DTD/sodipodi-0.dtd"
   xmlns="http://www.w3.org/2000/svg"
   xmlns:svg="http://www.w3.org/2000/svg"><sodipodi:namedview
     id="namedview7"
     pagecolor="#ffffff"
     bordercolor="#000000"
     borderopacity="0.25"
     inkscape:showpageshadow="2"
     inkscape:pageopacity="0.0"
     inkscape:pagecheckerboard="0"
     inkscape:deskcolor="#d1d1d1"
     inkscape:document-units="mm"
     showgrid="false"
     inkscape:zoom="3.9283908"
     inkscape:cx="493.84089"
     inkscape:cy="629.64713"
     inkscape:window-width="1503"
     inkscape:window-height="841"
     inkscape:window-x="0"
     inkscape:window-y="38"
     inkscape:window-maximized="0"
     inkscape:current-layer="layer1" /><defs
     id="defs2" /><g
     inkscape:label="Layer 1"
     inkscape:groupmode="layer"
     id="layer1"><path
       style="display:inline;fill:#000000;stroke-width:0.0846667"
       d="m 131.30261,182.32467 c 5.21068,-0.37321 10.09669,-2.37618 14.68966,-6.02187 1.32805,-1.05414 3.94339,-3.67397 5.01046,-5.01905 1.8046,-2.27477 3.1395,-4.63039 3.85871,-6.8092 0.55616,-1.68489 0.75173,-2.76783 0.80273,-4.445 0.1146,-3.76887 -1.04013,-6.80689 -3.12552,-8.22305 -0.27438,-0.18633 -0.69752,-0.50923 -0.94029,-0.71756 -0.79172,-0.67937 -1.51667,-1.13411 -2.48506,-1.55881 -4.69073,-2.0572 -10.62031,-0.2997 -18.6997,5.5425 -3.27412,2.36751 -5.06876,3.98665 -6.8737,6.2015 -2.16443,2.65598 -3.7029,5.84411 -4.18412,8.67064 -0.15324,0.90007 -0.17291,1.28366 -0.13845,2.70011 0.043,1.76889 0.18956,2.58489 0.68392,3.80881 1.15617,2.86239 3.79259,4.87129 7.33188,5.58675 1.30062,0.26291 2.85318,0.37135 4.06948,0.28423 z"
       id="path465" /></g></svg>
