<?xml version="1.0" encoding="UTF-8" standalone="no"?>
<!-- Created with Inkscape (http://www.inkscape.org/) -->

<svg
   width="210mm"
   height="297mm"
   viewBox="0 0 210 297"
   version="1.1"
   id="svg5"
   xml:space="preserve"
   inkscape:version="1.2.2 (b0a84865, 2022-12-01)"
   sodipodi:docname="coffee_bean_silkscreen_mirrored.svg"
   xmlns:inkscape="http://www.inkscape.org/namespaces/inkscape"
   xmlns:sodipodi="http://sodipodi.sourceforge.net/DTD/sodipodi-0.dtd"
   xmlns="http://www.w3.org/2000/svg"
   xmlns:svg="http://www.w3.org/2000/svg"><sodipodi:namedview
     id="namedview7"
     pagecolor="#ffffff"
     bordercolor="#000000"
     borderopacity="0.25"
     inkscape:showpageshadow="2"
     inkscape:pageopacity="0.0"
     inkscape:pagecheckerboard="0"
     inkscape:deskcolor="#d1d1d1"
     inkscape:document-units="mm"
     showgrid="false"
     inkscape:zoom="3.9283908"
     inkscape:cx="580.39033"
     inkscape:cy="667.06704"
     inkscape:window-width="1503"
     inkscape:window-height="841"
     inkscape:window-x="0"
     inkscape:window-y="38"
     inkscape:window-maximized="0"
     inkscape:current-layer="layer1" /><defs
     id="defs2" /><g
     inkscape:label="Layer 1"
     inkscape:groupmode="layer"
     id="layer1"><path
       style="fill:#000000;stroke-width:0.0846667"
       d="m 154.98254,192.26575 c 2.83825,-0.24622 4.83336,-0.70932 7.32367,-1.69994 2.64408,-1.05178 4.93277,-2.39642 7.366,-4.32761 1.32872,-1.05458 4.02793,-3.75835 5.0952,-5.1038 2.36086,-2.97625 3.84335,-5.96669 4.44592,-8.96821 0.26035,-1.2969 0.28278,-4.17107 0.042,-5.37633 -0.22129,-1.10748 -0.47363,-1.92439 -0.65093,-2.10726 -0.20886,-0.21544 -0.4646,-0.12245 -0.38445,0.13979 0.0319,0.10421 0.0785,0.64667 0.10358,1.20547 0.0403,0.89749 0.0207,1.11636 -0.16805,1.87639 -0.79416,3.19687 -3.14253,6.69706 -7.16967,10.68625 -3.87015,3.83365 -7.75499,6.70404 -11.64289,8.60255 -1.65893,0.81008 -2.69019,1.23137 -3.937,1.60833 -0.39582,0.11967 -0.83397,0.25247 -0.97367,0.2951 -1.51964,0.46375 -4.20058,0.66236 -5.75678,0.42646 -0.68466,-0.10378 -2.23038,-0.59881 -2.53416,-0.81159 -0.0941,-0.0659 -0.22807,-0.11982 -0.29774,-0.11982 -0.0697,0 -0.32689,-0.19774 -0.57161,-0.43942 l -0.44494,-0.43942 0.20945,-0.2746 c 0.11519,-0.15103 0.20944,-0.33066 0.20944,-0.39919 0,-0.29513 2.71246,-3.06422 4.48163,-4.57521 2.36743,-2.02193 4.7853,-3.56838 6.84188,-4.37599 5.79408,-2.27533 9.90595,-5.26214 12.85349,-9.33658 1.14837,-1.58743 1.82645,-2.4711 2.35962,-3.0751 1.21282,-1.37393 2.8543,-2.85875 3.91751,-3.54365 0.28845,-0.18581 0.52658,-0.37935 0.52917,-0.43009 0.003,-0.0507 -0.0858,-0.1335 -0.19654,-0.18393 -0.11068,-0.0504 -0.33872,-0.2124 -0.50675,-0.35994 l -0.30551,-0.26824 -0.31875,0.19177 c -0.9285,0.5586 -2.52853,1.77873 -3.53608,2.69651 -0.23283,0.21209 -1.87113,1.81738 -3.64066,3.56732 -3.21689,3.18127 -4.24661,4.11428 -5.39811,4.89112 -0.72364,0.4882 -1.86457,1.10872 -2.51823,1.3696 -0.25611,0.10221 -0.54186,0.21916 -0.635,0.25987 -0.0931,0.0407 -0.93133,0.3388 -1.86266,0.66241 -2.41283,0.83837 -4.07739,1.65525 -5.84201,2.86695 -1.68908,1.15983 -3.65449,3.07305 -5.15195,5.01514 -0.55537,0.72027 -1.40188,1.89784 -1.87155,2.6035 -0.31769,0.47731 -0.62201,0.86783 -0.67627,0.86783 -0.18177,0 -0.47028,-1.10553 -0.6042,-2.31521 -0.12324,-1.11328 -0.12922,-3.0322 -0.0105,-3.35745 0.0255,-0.0699 0.10919,-0.4699 0.18598,-0.889 0.0768,-0.4191 0.19403,-0.88206 0.26054,-1.0288 0.0665,-0.14674 0.12092,-0.34041 0.12092,-0.43039 0,-0.09 0.0247,-0.18824 0.0548,-0.21837 0.0486,-0.0486 0.23928,-0.54385 0.44617,-1.15878 0.0392,-0.11641 0.19426,-0.47836 0.34466,-0.80433 0.15039,-0.32597 0.31638,-0.68792 0.36887,-0.80433 0.0525,-0.11642 0.15669,-0.30692 0.23156,-0.42334 0.0749,-0.11641 0.23157,-0.36406 0.3482,-0.55033 0.56896,-0.90862 0.8313,-1.29232 0.95219,-1.39265 0.0727,-0.0604 0.13224,-0.14925 0.13224,-0.19752 0,-0.11076 0.66969,-1.01137 0.8196,-1.1022 0.0615,-0.0372 0.11173,-0.10638 0.11173,-0.15364 0,-0.0473 0.1143,-0.1821 0.254,-0.29965 0.1397,-0.11755 0.254,-0.2466 0.254,-0.28678 0,-0.0937 2.12521,-2.17105 2.9845,-2.91737 0.3609,-0.31345 0.65617,-0.60364 0.65617,-0.64488 0,-0.0412 0.057,-0.075 0.12676,-0.075 0.0697,0 0.26974,-0.12591 0.4445,-0.2798 0.17476,-0.1539 0.53361,-0.42051 0.79745,-0.59247 0.26384,-0.17196 0.49244,-0.34354 0.508,-0.38129 0.0254,-0.0615 0.52926,-0.43657 1.04587,-0.77844 0.10555,-0.0698 0.36936,-0.25082 0.58624,-0.40216 0.21689,-0.15135 0.41105,-0.27517 0.43148,-0.27517 0.0204,0 0.25664,-0.16478 0.52492,-0.36617 0.56151,-0.42151 1.39215,-0.94544 1.93718,-1.22187 0.20716,-0.10507 0.3985,-0.24794 0.42519,-0.3175 0.0267,-0.0695 0.0866,-0.12646 0.1332,-0.12646 0.13842,0 1.16721,-0.5112 1.16721,-0.57998 0,-0.0348 0.12975,-0.11025 0.28833,-0.1676 0.15858,-0.0573 0.41831,-0.19246 0.57717,-0.30027 0.15886,-0.10781 0.39827,-0.22348 0.53201,-0.25704 0.13374,-0.0336 0.34662,-0.1347 0.47306,-0.22474 0.12645,-0.09 0.27516,-0.1637 0.33048,-0.1637 0.0553,0 0.19745,-0.0762 0.31585,-0.16934 0.1184,-0.0931 0.30409,-0.16933 0.41265,-0.16933 0.10855,0 0.34154,-0.0614 0.51775,-0.13638 0.1762,-0.075 0.43467,-0.18488 0.57437,-0.24415 0.54101,-0.22956 1.76533,-0.52976 3.302,-0.80965 0.74839,-0.13631 1.12259,-0.15905 1.905,-0.11578 0.91887,0.0508 2.11856,0.2747 2.50091,0.46672 0.2188,0.10988 0.63176,-0.0333 0.63176,-0.21909 0,-0.16182 -0.2497,-0.26085 -1.22767,-0.4869 -0.92058,-0.21278 -3.24516,-0.25109 -4.27567,-0.0704 -3.77094,0.66099 -7.70341,2.58245 -12.74233,6.22609 -3.27639,2.36916 -5.13739,4.0503 -6.9587,6.28618 -2.14749,2.6363 -3.69978,5.83954 -4.17397,8.61322 -0.20595,1.20471 -0.23168,3.63481 -0.0485,4.57786 0.44723,2.30197 1.20045,3.74651 2.70207,5.18207 1.58011,1.51059 3.49797,2.39561 6.00715,2.77206 0.86038,0.12908 2.86482,0.22282 3.53025,0.16509 z"
       id="path775" /></g></svg>
