<?xml version="1.0" encoding="UTF-8" standalone="no"?>
<!-- Created with Inkscape (http://www.inkscape.org/) -->

<svg
   width="210mm"
   height="297mm"
   viewBox="0 0 210 297"
   version="1.1"
   id="svg5"
   xml:space="preserve"
   inkscape:version="1.2.2 (b0a84865, 2022-12-01)"
   sodipodi:docname="coffee_bean_soldermask_mirrored.svg"
   xmlns:inkscape="http://www.inkscape.org/namespaces/inkscape"
   xmlns:sodipodi="http://sodipodi.sourceforge.net/DTD/sodipodi-0.dtd"
   xmlns="http://www.w3.org/2000/svg"
   xmlns:svg="http://www.w3.org/2000/svg"><sodipodi:namedview
     id="namedview7"
     pagecolor="#ffffff"
     bordercolor="#000000"
     borderopacity="0.25"
     inkscape:showpageshadow="2"
     inkscape:pageopacity="0.0"
     inkscape:pagecheckerboard="0"
     inkscape:deskcolor="#d1d1d1"
     inkscape:document-units="mm"
     showgrid="false"
     inkscape:zoom="3.9283908"
     inkscape:cx="465.8396"
     inkscape:cy="583.31773"
     inkscape:window-width="1503"
     inkscape:window-height="841"
     inkscape:window-x="0"
     inkscape:window-y="38"
     inkscape:window-maximized="0"
     inkscape:current-layer="layer1" /><defs
     id="defs2" /><g
     inkscape:label="Layer 1"
     inkscape:groupmode="layer"
     id="layer1"><path
       style="fill:#000000;stroke-width:0.0846667"
       d="m 114.41878,168.46389 c 1.94136,-0.16936 4.73033,-0.90591 6.56167,-1.7329 0.7178,-0.32414 2.48893,-1.19992 2.921,-1.44436 0.18627,-0.10538 0.59222,-0.33474 0.90211,-0.5097 0.30989,-0.17496 0.60983,-0.374 0.66653,-0.44233 0.0567,-0.0683 0.13873,-0.12422 0.18229,-0.12422 0.13392,0 2.68416,-1.73772 2.86341,-1.9511 0.0233,-0.0277 0.26162,-0.21103 0.52964,-0.40734 2.72137,-1.99331 7.00593,-6.17515 8.7625,-8.55245 0.0815,-0.1103 0.21357,-0.27093 0.29348,-0.35695 0.0799,-0.086 0.24752,-0.31962 0.37249,-0.51911 0.12496,-0.19949 0.25008,-0.38176 0.27804,-0.40505 0.0611,-0.0509 0.68727,-0.97556 0.82764,-1.22222 0.0547,-0.0961 0.17959,-0.32718 0.27751,-0.51344 0.0979,-0.18627 0.27479,-0.50831 0.39301,-0.71564 0.11822,-0.20733 0.3676,-0.77883 0.55417,-1.27 0.18657,-0.49117 0.37129,-0.95399 0.41049,-1.0285 0.18788,-0.35712 0.36095,-2.00378 0.31274,-2.9756 -0.0473,-0.95317 -0.0639,-1.0234 -0.40119,-1.69334 -0.43582,-0.86567 -0.7788,-1.33898 -1.38736,-1.91453 l -0.47263,-0.447 -0.82443,0.56913 c -1.88852,1.30369 -4.08196,3.58524 -5.65018,5.87714 -1.09503,1.60034 -2.74274,3.43084 -4.30876,4.78675 -0.6162,0.53352 -2.31918,1.79648 -2.67665,1.98504 -0.11633,0.0614 -0.47309,0.28152 -0.7928,0.48922 -0.69248,0.44989 -2.70415,1.49744 -3.70182,1.92766 -0.39172,0.16893 -0.82653,0.35743 -0.96623,0.41888 -0.1397,0.0615 -0.5207,0.21569 -0.84666,0.34273 -1.73189,0.67499 -4.00424,2.05593 -5.84071,3.54949 -0.75732,0.61591 -0.82821,0.67517 -1.51933,1.27004 -1.45065,1.24863 -4.61807,4.56661 -4.61973,4.83932 -10e-4,0.18212 1.23425,1.16349 1.76354,1.40097 1.45108,0.65105 3.30665,0.92902 5.13622,0.76941 z m -7.64673,-3.80901 c 0.0696,-0.0815 0.35172,-0.49106 0.62696,-0.91016 0.27524,-0.4191 0.53854,-0.80823 0.58511,-0.86474 0.0466,-0.0565 0.23706,-0.31637 0.42333,-0.57748 0.74727,-1.04754 2.21941,-2.83532 2.95076,-3.58344 0.92003,-0.94112 2.2874,-2.13486 2.93484,-2.56219 1.65005,-1.08907 3.16113,-1.8958 4.6554,-2.48541 0.44239,-0.17455 0.88054,-0.34794 0.97367,-0.3853 0.0931,-0.0374 0.49318,-0.17056 0.889,-0.29598 1.62504,-0.51494 3.13331,-1.18315 4.14867,-1.83796 1.40635,-0.90698 2.24417,-1.65517 5.55874,-4.96406 2.47163,-2.4674 4.12954,-4.03745 4.98754,-4.72325 1.0861,-0.86812 1.30245,-1.03164 1.66673,-1.25977 0.22111,-0.13846 0.40208,-0.2762 0.40217,-0.30608 8e-5,-0.0299 0.0943,-0.0779 0.20937,-0.10683 0.11507,-0.0289 0.24833,-0.12557 0.29612,-0.21487 0.0711,-0.13293 0.0447,-0.19397 -0.14573,-0.33675 -0.12793,-0.0959 -0.27071,-0.20447 -0.31728,-0.24125 -0.39411,-0.31127 -1.3178,-0.83987 -1.95897,-1.12106 -4.2039,-1.84369 -9.46964,-0.59675 -16.24436,3.84672 -6.26679,4.11031 -9.71604,7.54819 -11.89891,11.8597 -1.24284,2.4548 -1.77476,4.56017 -1.77476,7.02465 0,1.50602 0.12031,2.40707 0.46862,3.50965 0.22093,0.69938 0.3326,0.80567 0.56298,0.53586 z"
       id="path551" /></g></svg>
