%TF.GenerationSoftware,KiCad,Pcbnew,7.0.10*%
%TF.CreationDate,2024-03-09T05:04:33-09:00*%
%TF.ProjectId,SP_V.1.7.5_Board,53505f56-2e31-42e3-972e-355f426f6172,rev?*%
%TF.SameCoordinates,Original*%
%TF.FileFunction,Paste,Top*%
%TF.FilePolarity,Positive*%
%FSLAX46Y46*%
G04 Gerber Fmt 4.6, Leading zero omitted, Abs format (unit mm)*
G04 Created by KiCad (PCBNEW 7.0.10) date 2024-03-09 05:04:33*
%MOMM*%
%LPD*%
G01*
G04 APERTURE LIST*
G04 Aperture macros list*
%AMRoundRect*
0 Rectangle with rounded corners*
0 $1 Rounding radius*
0 $2 $3 $4 $5 $6 $7 $8 $9 X,Y pos of 4 corners*
0 Add a 4 corners polygon primitive as box body*
4,1,4,$2,$3,$4,$5,$6,$7,$8,$9,$2,$3,0*
0 Add four circle primitives for the rounded corners*
1,1,$1+$1,$2,$3*
1,1,$1+$1,$4,$5*
1,1,$1+$1,$6,$7*
1,1,$1+$1,$8,$9*
0 Add four rect primitives between the rounded corners*
20,1,$1+$1,$2,$3,$4,$5,0*
20,1,$1+$1,$4,$5,$6,$7,0*
20,1,$1+$1,$6,$7,$8,$9,0*
20,1,$1+$1,$8,$9,$2,$3,0*%
G04 Aperture macros list end*
%ADD10R,1.900000X1.000000*%
%ADD11RoundRect,0.250000X0.262500X0.450000X-0.262500X0.450000X-0.262500X-0.450000X0.262500X-0.450000X0*%
%ADD12RoundRect,0.042000X0.258000X-0.908000X0.258000X0.908000X-0.258000X0.908000X-0.258000X-0.908000X0*%
%ADD13RoundRect,0.250000X0.475000X-0.250000X0.475000X0.250000X-0.475000X0.250000X-0.475000X-0.250000X0*%
%ADD14RoundRect,0.250000X0.425000X-0.450000X0.425000X0.450000X-0.425000X0.450000X-0.425000X-0.450000X0*%
%ADD15RoundRect,0.250000X0.450000X-0.262500X0.450000X0.262500X-0.450000X0.262500X-0.450000X-0.262500X0*%
%ADD16RoundRect,0.042000X-0.913000X-0.258000X0.913000X-0.258000X0.913000X0.258000X-0.913000X0.258000X0*%
%ADD17RoundRect,0.243750X0.456250X-0.243750X0.456250X0.243750X-0.456250X0.243750X-0.456250X-0.243750X0*%
%ADD18RoundRect,0.250000X-0.250000X-0.475000X0.250000X-0.475000X0.250000X0.475000X-0.250000X0.475000X0*%
%ADD19RoundRect,0.250000X-0.450000X0.262500X-0.450000X-0.262500X0.450000X-0.262500X0.450000X0.262500X0*%
%ADD20RoundRect,0.250000X-0.262500X-0.450000X0.262500X-0.450000X0.262500X0.450000X-0.262500X0.450000X0*%
%ADD21RoundRect,0.027000X-0.198000X0.218000X-0.198000X-0.218000X0.198000X-0.218000X0.198000X0.218000X0*%
%ADD22RoundRect,0.250000X0.250000X0.475000X-0.250000X0.475000X-0.250000X-0.475000X0.250000X-0.475000X0*%
%ADD23R,0.300000X1.400000*%
%ADD24RoundRect,0.150000X-0.150000X-0.625000X0.150000X-0.625000X0.150000X0.625000X-0.150000X0.625000X0*%
%ADD25RoundRect,0.250000X-0.350000X-0.650000X0.350000X-0.650000X0.350000X0.650000X-0.350000X0.650000X0*%
%ADD26RoundRect,0.048800X-0.936200X-0.256200X0.936200X-0.256200X0.936200X0.256200X-0.936200X0.256200X0*%
G04 APERTURE END LIST*
D10*
%TO.C,J11*%
X129120000Y-65645000D03*
X132420000Y-68185000D03*
X129120000Y-70725000D03*
X132420000Y-73265000D03*
X129120000Y-75805000D03*
X132420000Y-78345000D03*
X129120000Y-80885000D03*
X132420000Y-83425000D03*
X129120000Y-85965000D03*
X132420000Y-88505000D03*
X129120000Y-91045000D03*
X132420000Y-93585000D03*
X129120000Y-96125000D03*
X132420000Y-98665000D03*
X129120000Y-101205000D03*
X144360000Y-101230000D03*
X147660000Y-98690000D03*
X144360000Y-96150000D03*
X147660000Y-93610000D03*
X144360000Y-91070000D03*
X147660000Y-88530000D03*
X144360000Y-85990000D03*
X147660000Y-83450000D03*
X144360000Y-80910000D03*
X147660000Y-78370000D03*
X144360000Y-75830000D03*
X147660000Y-73290000D03*
X144360000Y-70750000D03*
X147660000Y-68210000D03*
X144360000Y-65670000D03*
%TD*%
D11*
%TO.C,R10*%
X140487500Y-93025000D03*
X138662500Y-93025000D03*
%TD*%
D12*
%TO.C,U5*%
X115290000Y-73117500D03*
X116560000Y-73117500D03*
X117830000Y-73117500D03*
X119100000Y-73117500D03*
X120370000Y-73117500D03*
X121640000Y-73117500D03*
X122910000Y-73117500D03*
X122910000Y-68207500D03*
X121640000Y-68207500D03*
X120370000Y-68207500D03*
X119100000Y-68207500D03*
X117830000Y-68207500D03*
X116560000Y-68207500D03*
X115290000Y-68207500D03*
%TD*%
D13*
%TO.C,C2*%
X163520000Y-70460000D03*
X163520000Y-68560000D03*
%TD*%
D14*
%TO.C,C7*%
X125730000Y-101200000D03*
X125730000Y-98500000D03*
%TD*%
D15*
%TO.C,R5*%
X115085000Y-89012500D03*
X115085000Y-87187500D03*
%TD*%
%TO.C,R6*%
X117835000Y-84652500D03*
X117835000Y-82827500D03*
%TD*%
D16*
%TO.C,U2*%
X155550000Y-93420000D03*
X155550000Y-94690000D03*
X155550000Y-95960000D03*
X155550000Y-97230000D03*
X155550000Y-98500000D03*
X155550000Y-99770000D03*
X155550000Y-101040000D03*
X155550000Y-102310000D03*
X155550000Y-103580000D03*
X164770000Y-103580000D03*
X164770000Y-102310000D03*
X164770000Y-101040000D03*
X164770000Y-99770000D03*
X164770000Y-98500000D03*
X164770000Y-97230000D03*
X164770000Y-95960000D03*
X164770000Y-94690000D03*
X164770000Y-93420000D03*
%TD*%
D17*
%TO.C,D1*%
X157570000Y-69100000D03*
X157570000Y-67225000D03*
%TD*%
D18*
%TO.C,C5*%
X155430000Y-64560000D03*
X157330000Y-64560000D03*
%TD*%
D19*
%TO.C,R4*%
X117825000Y-87207500D03*
X117825000Y-89032500D03*
%TD*%
D15*
%TO.C,R11*%
X160200000Y-69062500D03*
X160200000Y-67237500D03*
%TD*%
D13*
%TO.C,C6*%
X136250000Y-104075000D03*
X136250000Y-102175000D03*
%TD*%
D18*
%TO.C,C8*%
X116950000Y-92800000D03*
X118850000Y-92800000D03*
%TD*%
D20*
%TO.C,R1*%
X158417500Y-107820000D03*
X160242500Y-107820000D03*
%TD*%
D21*
%TO.C,U4*%
X155725000Y-61670000D03*
X155075000Y-61670000D03*
X154425000Y-61670000D03*
X153775000Y-61670000D03*
X153775000Y-59730000D03*
X154425000Y-59730000D03*
X155075000Y-59730000D03*
X155725000Y-59730000D03*
%TD*%
D22*
%TO.C,C4*%
X121640000Y-77000000D03*
X119740000Y-77000000D03*
%TD*%
D20*
%TO.C,R9*%
X136187500Y-95875000D03*
X138012500Y-95875000D03*
%TD*%
D22*
%TO.C,C3*%
X164775000Y-90300000D03*
X162875000Y-90300000D03*
%TD*%
D23*
%TO.C,U3*%
X115275000Y-102325000D03*
X115775000Y-102325000D03*
X116275000Y-102325000D03*
X116775000Y-102325000D03*
X117275000Y-102325000D03*
X117275000Y-97925000D03*
X116775000Y-97925000D03*
X116275000Y-97925000D03*
X115775000Y-97925000D03*
X115275000Y-97925000D03*
%TD*%
D11*
%TO.C,R8*%
X115362500Y-64825000D03*
X113537500Y-64825000D03*
%TD*%
D15*
%TO.C,R3*%
X167300000Y-88637500D03*
X167300000Y-86812500D03*
%TD*%
D24*
%TO.C,J7*%
X136850000Y-108770000D03*
X137850000Y-108770000D03*
X138850000Y-108770000D03*
X139850000Y-108770000D03*
D25*
X135550000Y-112645000D03*
X141150000Y-112645000D03*
%TD*%
D26*
%TO.C,U1*%
X156605000Y-73295000D03*
X156605000Y-74565000D03*
X156605000Y-75835000D03*
X156605000Y-77105000D03*
X156605000Y-78375000D03*
X156605000Y-79645000D03*
X156605000Y-80915000D03*
X156605000Y-82185000D03*
X156605000Y-83455000D03*
X156605000Y-84725000D03*
X156605000Y-85995000D03*
X156605000Y-87265000D03*
X163535000Y-87265000D03*
X163535000Y-85995000D03*
X163535000Y-84725000D03*
X163535000Y-83455000D03*
X163535000Y-82185000D03*
X163535000Y-80915000D03*
X163535000Y-79645000D03*
X163535000Y-78375000D03*
X163535000Y-77105000D03*
X163535000Y-75835000D03*
X163535000Y-74565000D03*
X163535000Y-73295000D03*
%TD*%
D13*
%TO.C,C9*%
X121000000Y-101075000D03*
X121000000Y-99175000D03*
%TD*%
D19*
%TO.C,R7*%
X115095000Y-82817500D03*
X115095000Y-84642500D03*
%TD*%
D13*
%TO.C,C1*%
X153260000Y-73300000D03*
X153260000Y-71400000D03*
%TD*%
D20*
%TO.C,R2*%
X148547500Y-107670000D03*
X150372500Y-107670000D03*
%TD*%
M02*
