%TF.GenerationSoftware,KiCad,Pcbnew,7.0.10*%
%TF.CreationDate,2024-03-09T05:04:33-09:00*%
%TF.ProjectId,SP_V.1.7.5_Board,53505f56-2e31-42e3-972e-355f426f6172,rev?*%
%TF.SameCoordinates,Original*%
%TF.FileFunction,Copper,L1,Top*%
%TF.FilePolarity,Positive*%
%FSLAX46Y46*%
G04 Gerber Fmt 4.6, Leading zero omitted, Abs format (unit mm)*
G04 Created by KiCad (PCBNEW 7.0.10) date 2024-03-09 05:04:33*
%MOMM*%
%LPD*%
G01*
G04 APERTURE LIST*
G04 Aperture macros list*
%AMRoundRect*
0 Rectangle with rounded corners*
0 $1 Rounding radius*
0 $2 $3 $4 $5 $6 $7 $8 $9 X,Y pos of 4 corners*
0 Add a 4 corners polygon primitive as box body*
4,1,4,$2,$3,$4,$5,$6,$7,$8,$9,$2,$3,0*
0 Add four circle primitives for the rounded corners*
1,1,$1+$1,$2,$3*
1,1,$1+$1,$4,$5*
1,1,$1+$1,$6,$7*
1,1,$1+$1,$8,$9*
0 Add four rect primitives between the rounded corners*
20,1,$1+$1,$2,$3,$4,$5,0*
20,1,$1+$1,$4,$5,$6,$7,0*
20,1,$1+$1,$6,$7,$8,$9,0*
20,1,$1+$1,$8,$9,$2,$3,0*%
G04 Aperture macros list end*
%TA.AperFunction,SMDPad,CuDef*%
%ADD10R,1.900000X1.000000*%
%TD*%
%TA.AperFunction,ComponentPad*%
%ADD11R,1.700000X1.700000*%
%TD*%
%TA.AperFunction,ComponentPad*%
%ADD12O,1.700000X1.700000*%
%TD*%
%TA.AperFunction,SMDPad,CuDef*%
%ADD13RoundRect,0.250000X0.262500X0.450000X-0.262500X0.450000X-0.262500X-0.450000X0.262500X-0.450000X0*%
%TD*%
%TA.AperFunction,SMDPad,CuDef*%
%ADD14RoundRect,0.042000X0.258000X-0.908000X0.258000X0.908000X-0.258000X0.908000X-0.258000X-0.908000X0*%
%TD*%
%TA.AperFunction,SMDPad,CuDef*%
%ADD15RoundRect,0.250000X0.475000X-0.250000X0.475000X0.250000X-0.475000X0.250000X-0.475000X-0.250000X0*%
%TD*%
%TA.AperFunction,SMDPad,CuDef*%
%ADD16RoundRect,0.250000X0.425000X-0.450000X0.425000X0.450000X-0.425000X0.450000X-0.425000X-0.450000X0*%
%TD*%
%TA.AperFunction,SMDPad,CuDef*%
%ADD17RoundRect,0.250000X0.450000X-0.262500X0.450000X0.262500X-0.450000X0.262500X-0.450000X-0.262500X0*%
%TD*%
%TA.AperFunction,SMDPad,CuDef*%
%ADD18RoundRect,0.042000X-0.913000X-0.258000X0.913000X-0.258000X0.913000X0.258000X-0.913000X0.258000X0*%
%TD*%
%TA.AperFunction,SMDPad,CuDef*%
%ADD19RoundRect,0.243750X0.456250X-0.243750X0.456250X0.243750X-0.456250X0.243750X-0.456250X-0.243750X0*%
%TD*%
%TA.AperFunction,SMDPad,CuDef*%
%ADD20RoundRect,0.250000X-0.250000X-0.475000X0.250000X-0.475000X0.250000X0.475000X-0.250000X0.475000X0*%
%TD*%
%TA.AperFunction,SMDPad,CuDef*%
%ADD21RoundRect,0.250000X-0.450000X0.262500X-0.450000X-0.262500X0.450000X-0.262500X0.450000X0.262500X0*%
%TD*%
%TA.AperFunction,SMDPad,CuDef*%
%ADD22RoundRect,0.250000X-0.262500X-0.450000X0.262500X-0.450000X0.262500X0.450000X-0.262500X0.450000X0*%
%TD*%
%TA.AperFunction,SMDPad,CuDef*%
%ADD23RoundRect,0.027000X-0.198000X0.218000X-0.198000X-0.218000X0.198000X-0.218000X0.198000X0.218000X0*%
%TD*%
%TA.AperFunction,SMDPad,CuDef*%
%ADD24RoundRect,0.250000X0.250000X0.475000X-0.250000X0.475000X-0.250000X-0.475000X0.250000X-0.475000X0*%
%TD*%
%TA.AperFunction,SMDPad,CuDef*%
%ADD25R,0.300000X1.400000*%
%TD*%
%TA.AperFunction,ComponentPad*%
%ADD26R,2.600000X2.600000*%
%TD*%
%TA.AperFunction,ComponentPad*%
%ADD27C,2.600000*%
%TD*%
%TA.AperFunction,SMDPad,CuDef*%
%ADD28RoundRect,0.150000X-0.150000X-0.625000X0.150000X-0.625000X0.150000X0.625000X-0.150000X0.625000X0*%
%TD*%
%TA.AperFunction,SMDPad,CuDef*%
%ADD29RoundRect,0.250000X-0.350000X-0.650000X0.350000X-0.650000X0.350000X0.650000X-0.350000X0.650000X0*%
%TD*%
%TA.AperFunction,SMDPad,CuDef*%
%ADD30RoundRect,0.048800X-0.936200X-0.256200X0.936200X-0.256200X0.936200X0.256200X-0.936200X0.256200X0*%
%TD*%
%TA.AperFunction,ViaPad*%
%ADD31C,0.800000*%
%TD*%
%TA.AperFunction,ViaPad*%
%ADD32C,5.600000*%
%TD*%
%TA.AperFunction,Conductor*%
%ADD33C,1.600000*%
%TD*%
%TA.AperFunction,Conductor*%
%ADD34C,0.300000*%
%TD*%
%TA.AperFunction,Conductor*%
%ADD35C,1.000000*%
%TD*%
%TA.AperFunction,Conductor*%
%ADD36C,2.000000*%
%TD*%
%TA.AperFunction,Conductor*%
%ADD37C,0.600000*%
%TD*%
%TA.AperFunction,Conductor*%
%ADD38C,0.400000*%
%TD*%
G04 APERTURE END LIST*
%TA.AperFunction,EtchedComponent*%
%TO.C,REF\u002A\u002A*%
G36*
X117010935Y-109657714D02*
G01*
X117110714Y-109662480D01*
X117208808Y-109671786D01*
X117305250Y-109685622D01*
X117400073Y-109703977D01*
X117493311Y-109726843D01*
X117584998Y-109754208D01*
X117675166Y-109786063D01*
X117763848Y-109822399D01*
X117799608Y-109838405D01*
X117834317Y-109854609D01*
X117868067Y-109871068D01*
X117900948Y-109887839D01*
X117933052Y-109904978D01*
X117964469Y-109922543D01*
X117995290Y-109940592D01*
X118025606Y-109959180D01*
X118055508Y-109978365D01*
X118085086Y-109998204D01*
X118114433Y-110018753D01*
X118143638Y-110040071D01*
X118172792Y-110062214D01*
X118201987Y-110085238D01*
X118231313Y-110109201D01*
X118260861Y-110134161D01*
X118280631Y-110150761D01*
X118303011Y-110168922D01*
X118327231Y-110188053D01*
X118352519Y-110207567D01*
X118378103Y-110226874D01*
X118403212Y-110245387D01*
X118427074Y-110262516D01*
X118448919Y-110277673D01*
X118524923Y-110334537D01*
X118596466Y-110398742D01*
X118663448Y-110470028D01*
X118725769Y-110548133D01*
X118783331Y-110632796D01*
X118836035Y-110723756D01*
X118883781Y-110820753D01*
X118926470Y-110923525D01*
X118964002Y-111031811D01*
X118996280Y-111145350D01*
X119023202Y-111263881D01*
X119044671Y-111387144D01*
X119060586Y-111514876D01*
X119070850Y-111646818D01*
X119075362Y-111782707D01*
X119074023Y-111922283D01*
X119068758Y-112042967D01*
X119060275Y-112155313D01*
X119048070Y-112262125D01*
X119040413Y-112314331D01*
X119031635Y-112366205D01*
X119021674Y-112418097D01*
X119010465Y-112470358D01*
X118984052Y-112577386D01*
X118951891Y-112690094D01*
X118913476Y-112811285D01*
X118885070Y-112893392D01*
X118853820Y-112976253D01*
X118819770Y-113059791D01*
X118782963Y-113143932D01*
X118743440Y-113228600D01*
X118701245Y-113313719D01*
X118656421Y-113399214D01*
X118609010Y-113485009D01*
X118559055Y-113571029D01*
X118506599Y-113657199D01*
X118451685Y-113743442D01*
X118394355Y-113829684D01*
X118334652Y-113915849D01*
X118272620Y-114001861D01*
X118208300Y-114087645D01*
X118141735Y-114173126D01*
X118098230Y-114226415D01*
X118048297Y-114284848D01*
X117932475Y-114413814D01*
X117800914Y-114553367D01*
X117660261Y-114696850D01*
X117517162Y-114837606D01*
X117378261Y-114968976D01*
X117250206Y-115084305D01*
X117192322Y-115133873D01*
X117139642Y-115176934D01*
X116966717Y-115309798D01*
X116792409Y-115434965D01*
X116616709Y-115552440D01*
X116439608Y-115662226D01*
X116261096Y-115764327D01*
X116081164Y-115858746D01*
X115899803Y-115945488D01*
X115717003Y-116024556D01*
X115532756Y-116095955D01*
X115347051Y-116159687D01*
X115159880Y-116215757D01*
X114971234Y-116264169D01*
X114781103Y-116304926D01*
X114589478Y-116338032D01*
X114396350Y-116363491D01*
X114201708Y-116381307D01*
X114201708Y-116381304D01*
X114107563Y-116386021D01*
X114008491Y-116387168D01*
X113905872Y-116384840D01*
X113801084Y-116379134D01*
X113695505Y-116370147D01*
X113590515Y-116357975D01*
X113487491Y-116342713D01*
X113387812Y-116324459D01*
X113257233Y-116294620D01*
X113131055Y-116258846D01*
X113009448Y-116217267D01*
X112892581Y-116170012D01*
X112780622Y-116117209D01*
X112673741Y-116058988D01*
X112572108Y-115995477D01*
X112475891Y-115926805D01*
X112385259Y-115853102D01*
X112300382Y-115774495D01*
X112221428Y-115691114D01*
X112148567Y-115603088D01*
X112081969Y-115510546D01*
X112051071Y-115462621D01*
X112021801Y-115413616D01*
X111994182Y-115363546D01*
X111968234Y-115312428D01*
X111943979Y-115260277D01*
X111921437Y-115207110D01*
X111887525Y-115118608D01*
X111872835Y-115076229D01*
X111859562Y-115034566D01*
X111847632Y-114993221D01*
X111836975Y-114951794D01*
X111827519Y-114909887D01*
X111819192Y-114867102D01*
X111811923Y-114823039D01*
X111805641Y-114777301D01*
X111800273Y-114729487D01*
X111795749Y-114679201D01*
X111788943Y-114569613D01*
X111784652Y-114445348D01*
X111782606Y-114348193D01*
X111781761Y-114266772D01*
X111782304Y-114197455D01*
X111784420Y-114136610D01*
X111786126Y-114108230D01*
X111788296Y-114080606D01*
X111794117Y-114025812D01*
X111802071Y-113968596D01*
X111812342Y-113905328D01*
X111832845Y-113798529D01*
X111858177Y-113690297D01*
X111888213Y-113580894D01*
X111922825Y-113470582D01*
X111961887Y-113359621D01*
X112005274Y-113248275D01*
X112052858Y-113136805D01*
X112104514Y-113025473D01*
X112160115Y-112914540D01*
X112219534Y-112804269D01*
X112282646Y-112694922D01*
X112349323Y-112586759D01*
X112419441Y-112480044D01*
X112492871Y-112375038D01*
X112569488Y-112272003D01*
X112649166Y-112171200D01*
X112785023Y-112010145D01*
X112924177Y-111857110D01*
X112996083Y-111782616D01*
X113070122Y-111708944D01*
X113146732Y-111635703D01*
X113226349Y-111562498D01*
X113396349Y-111414620D01*
X113583614Y-111262161D01*
X113791636Y-111101971D01*
X114023907Y-110930898D01*
X114321890Y-110721376D01*
X114610063Y-110530922D01*
X114888692Y-110359457D01*
X115158045Y-110206901D01*
X115418387Y-110073176D01*
X115669988Y-109958203D01*
X115913112Y-109861902D01*
X116148027Y-109784194D01*
X116375000Y-109725000D01*
X116594298Y-109684242D01*
X116701152Y-109670751D01*
X116806187Y-109661839D01*
X116909437Y-109657497D01*
X117010935Y-109657714D01*
G37*
%TD.AperFunction*%
%TD*%
D10*
%TO.P,J11,1,D13/SCK*%
%TO.N,SPI_SCLK*%
X129120000Y-65645000D03*
%TO.P,J11,2,+3V3*%
%TO.N,+3V3*%
X132420000Y-68185000D03*
%TO.P,J11,3,AREF*%
%TO.N,unconnected-(J11-AREF-Pad3)*%
X129120000Y-70725000D03*
%TO.P,J11,4,A0/DAC0*%
%TO.N,unconnected-(J11-A0{slash}DAC0-Pad4)*%
X132420000Y-73265000D03*
%TO.P,J11,5,A1*%
%TO.N,Pressurestat*%
X129120000Y-75805000D03*
%TO.P,J11,6,A2*%
%TO.N,Boiler level sensor*%
X132420000Y-78345000D03*
%TO.P,J11,7,A3*%
%TO.N,Tank level sensor*%
X129120000Y-80885000D03*
%TO.P,J11,8,A4/SDA*%
%TO.N,I2C_SDA*%
X132420000Y-83425000D03*
%TO.P,J11,9,A5/SCL*%
%TO.N,I2C_SCL*%
X129120000Y-85965000D03*
%TO.P,J11,10,A6*%
%TO.N,unconnected-(J11-A6-Pad10)*%
X132420000Y-88505000D03*
%TO.P,J11,11,A7*%
%TO.N,Tachometer*%
X129120000Y-91045000D03*
%TO.P,J11,12,VUSB*%
%TO.N,unconnected-(J11-VUSB-Pad12)*%
X132420000Y-93585000D03*
%TO.P,J11,13,~{RESET}*%
%TO.N,unconnected-(J11-~{RESET}-Pad13)*%
X129120000Y-96125000D03*
%TO.P,J11,14,GND*%
%TO.N,GND*%
X132420000Y-98665000D03*
%TO.P,J11,15,VIN*%
%TO.N,5V_IN*%
X129120000Y-101205000D03*
%TO.P,J11,16,TX*%
%TO.N,unconnected-(J11-TX-Pad16)*%
X144360000Y-101230000D03*
%TO.P,J11,17,RX*%
%TO.N,unconnected-(J11-RX-Pad17)*%
X147660000Y-98690000D03*
%TO.P,J11,18,~{RESET}*%
%TO.N,unconnected-(J11-~{RESET}-Pad18)*%
X144360000Y-96150000D03*
%TO.P,J11,19,GND*%
%TO.N,GND*%
X147660000Y-93610000D03*
%TO.P,J11,20,~D2*%
%TO.N,I{slash}O interrupt*%
X144360000Y-91070000D03*
%TO.P,J11,21,~D3*%
%TO.N,Net-(J11-~D3)*%
X147660000Y-88530000D03*
%TO.P,J11,22,D4*%
%TO.N,Net-(J11-D4)*%
X144360000Y-85990000D03*
%TO.P,J11,23,~D5*%
%TO.N,Net-(J11-~D5)*%
X147660000Y-83450000D03*
%TO.P,J11,24,~D6*%
%TO.N,Net-(J11-~D6)*%
X144360000Y-80910000D03*
%TO.P,J11,25,D7*%
%TO.N,Net-(J11-D7)*%
X147660000Y-78370000D03*
%TO.P,J11,26,D8*%
%TO.N,Net-(J11-D8)*%
X144360000Y-75830000D03*
%TO.P,J11,27,~D9*%
%TO.N,Net-(J11-~D9)*%
X147660000Y-73290000D03*
%TO.P,J11,28,~D10*%
%TO.N,SPI_CS*%
X144360000Y-70750000D03*
%TO.P,J11,29,~D11/MOSI*%
%TO.N,SPI_MOSI*%
X147660000Y-68210000D03*
%TO.P,J11,30,~D12/MISO*%
%TO.N,SPI_MISO*%
X144360000Y-65670000D03*
%TD*%
D11*
%TO.P,J13,1,Pin_1*%
%TO.N,GND*%
X176000000Y-65000000D03*
D12*
%TO.P,J13,2,Pin_2*%
%TO.N,Steam boiler control*%
X176000000Y-67540000D03*
%TO.P,J13,3,Pin_3*%
%TO.N,Water valve control*%
X176000000Y-70080000D03*
%TO.P,J13,4,Pin_4*%
%TO.N,Fill valve control*%
X176000000Y-72620000D03*
%TO.P,J13,5,Pin_5*%
%TO.N,Water pump control*%
X176000000Y-75160000D03*
%TO.P,J13,6,Pin_6*%
%TO.N,Accessory 1*%
X176000000Y-77700000D03*
%TO.P,J13,7,Pin_7*%
%TO.N,Accessory 2*%
X176000000Y-80240000D03*
%TD*%
D13*
%TO.P,R10,1*%
%TO.N,I2C_SCL*%
X140487500Y-93025000D03*
%TO.P,R10,2*%
%TO.N,+3V3*%
X138662500Y-93025000D03*
%TD*%
D14*
%TO.P,U5,1,CH1+*%
%TO.N,Dial potentiometer*%
X115290000Y-73117500D03*
%TO.P,U5,2,CH1-*%
%TO.N,GND*%
X116560000Y-73117500D03*
%TO.P,U5,3,CH2+*%
%TO.N,unconnected-(U5-CH2+-Pad3)*%
X117830000Y-73117500D03*
%TO.P,U5,4,CH2-*%
%TO.N,GND*%
X119100000Y-73117500D03*
%TO.P,U5,5,VSS*%
X120370000Y-73117500D03*
%TO.P,U5,6,VDD*%
%TO.N,+3V3*%
X121640000Y-73117500D03*
%TO.P,U5,7,SDA*%
%TO.N,I2C_SDA*%
X122910000Y-73117500D03*
%TO.P,U5,8,SCL*%
%TO.N,I2C_SCL*%
X122910000Y-68207500D03*
%TO.P,U5,9,ADR0*%
%TO.N,GND*%
X121640000Y-68207500D03*
%TO.P,U5,10,ADR1*%
X120370000Y-68207500D03*
%TO.P,U5,11,CH3+*%
%TO.N,Water pressure sensor*%
X119100000Y-68207500D03*
%TO.P,U5,12,CH3-*%
%TO.N,GND*%
X117830000Y-68207500D03*
%TO.P,U5,13,CH4+*%
%TO.N,Group head thermistor*%
X116560000Y-68207500D03*
%TO.P,U5,14,CH4-*%
%TO.N,GND*%
X115290000Y-68207500D03*
%TD*%
D15*
%TO.P,C2,1*%
%TO.N,5V_IN*%
X163520000Y-70460000D03*
%TO.P,C2,2*%
%TO.N,GND*%
X163520000Y-68560000D03*
%TD*%
D16*
%TO.P,C7,1*%
%TO.N,5V_IN*%
X125730000Y-101200000D03*
%TO.P,C7,2*%
%TO.N,GND*%
X125730000Y-98500000D03*
%TD*%
D11*
%TO.P,J1,1,Pin_1*%
%TO.N,GND*%
X163750000Y-62520000D03*
D12*
%TO.P,J1,2,Pin_2*%
%TO.N,Coffee boiler control*%
X166290000Y-62520000D03*
%TD*%
D11*
%TO.P,J9,1,Pin_1*%
%TO.N,GND*%
X112810000Y-60830000D03*
D12*
%TO.P,J9,2,Pin_2*%
%TO.N,Group head thermistor*%
X115350000Y-60830000D03*
%TD*%
D11*
%TO.P,J8,1,Pin_1*%
%TO.N,+3V3*%
X133150000Y-57900000D03*
D12*
%TO.P,J8,2,Pin_2*%
%TO.N,SPI_SCLK*%
X135690000Y-57900000D03*
%TO.P,J8,3,Pin_3*%
%TO.N,SPI_CS*%
X138230000Y-57900000D03*
%TO.P,J8,4,Pin_4*%
%TO.N,SPI_MOSI*%
X140770000Y-57900000D03*
%TO.P,J8,5,Pin_5*%
%TO.N,SPI_MISO*%
X143310000Y-57900000D03*
%TO.P,J8,6,Pin_6*%
%TO.N,GND*%
X145850000Y-57900000D03*
%TD*%
D17*
%TO.P,R5,1*%
%TO.N,GND*%
X115085000Y-89012500D03*
%TO.P,R5,2*%
%TO.N,Tank level sensor*%
X115085000Y-87187500D03*
%TD*%
%TO.P,R6,1*%
%TO.N,Boiler level sensor*%
X117835000Y-84652500D03*
%TO.P,R6,2*%
%TO.N,+3V3*%
X117835000Y-82827500D03*
%TD*%
D11*
%TO.P,J6,1,Pin_1*%
%TO.N,Tank level sensor*%
X106975000Y-89750000D03*
D12*
%TO.P,J6,2,Pin_2*%
%TO.N,Boiler level sensor*%
X106975000Y-87210000D03*
%TO.P,J6,3,Pin_3*%
%TO.N,GND*%
X106975000Y-84670000D03*
%TO.P,J6,4,Pin_4*%
X106975000Y-82130000D03*
%TO.P,J6,5,Pin_5*%
X106975000Y-79590000D03*
%TO.P,J6,6,Pin_6*%
%TO.N,Pressurestat*%
X106975000Y-77050000D03*
%TD*%
D18*
%TO.P,U2,1,SCL*%
%TO.N,I2C_SCL*%
X155550000Y-93420000D03*
%TO.P,U2,2,SDA*%
%TO.N,I2C_SDA*%
X155550000Y-94690000D03*
%TO.P,U2,3,A2*%
%TO.N,GND*%
X155550000Y-95960000D03*
%TO.P,U2,4,A1*%
X155550000Y-97230000D03*
%TO.P,U2,5,A0*%
X155550000Y-98500000D03*
%TO.P,U2,6,~{RESET}*%
%TO.N,+3V3*%
X155550000Y-99770000D03*
%TO.P,U2,7,NC*%
%TO.N,unconnected-(U2-NC-Pad7)*%
X155550000Y-101040000D03*
%TO.P,U2,8,INT*%
%TO.N,I{slash}O interrupt*%
X155550000Y-102310000D03*
%TO.P,U2,9,VSS*%
%TO.N,GND*%
X155550000Y-103580000D03*
%TO.P,U2,10,GP0*%
%TO.N,Tank LED*%
X164770000Y-103580000D03*
%TO.P,U2,11,GP1*%
%TO.N,Alarm LED*%
X164770000Y-102310000D03*
%TO.P,U2,12,GP2*%
%TO.N,Brew button*%
X164770000Y-101040000D03*
%TO.P,U2,13,GP3*%
%TO.N,Brew lights control*%
X164770000Y-99770000D03*
%TO.P,U2,14,GP4*%
%TO.N,Status LED*%
X164770000Y-98500000D03*
%TO.P,U2,15,GP5*%
%TO.N,Net-(J19-Pin_2)*%
X164770000Y-97230000D03*
%TO.P,U2,16,GP6*%
%TO.N,Net-(J15-Pin_2)*%
X164770000Y-95960000D03*
%TO.P,U2,17,GP7*%
%TO.N,unconnected-(U2-GP7-Pad17)*%
X164770000Y-94690000D03*
%TO.P,U2,18,VDD*%
%TO.N,+3V3*%
X164770000Y-93420000D03*
%TD*%
D11*
%TO.P,J10,1,Pin_1*%
%TO.N,GND*%
X106975000Y-70725000D03*
D12*
%TO.P,J10,2,Pin_2*%
%TO.N,Dial potentiometer*%
X106975000Y-68185000D03*
%TO.P,J10,3,Pin_3*%
%TO.N,+3V3*%
X106975000Y-65645000D03*
%TD*%
D19*
%TO.P,D1,1,K*%
%TO.N,GND*%
X157570000Y-69100000D03*
%TO.P,D1,2,A*%
%TO.N,Net-(D1-A)*%
X157570000Y-67225000D03*
%TD*%
D11*
%TO.P,J15,1,Pin_1*%
%TO.N,GND*%
X175975000Y-96000000D03*
D12*
%TO.P,J15,2,Pin_2*%
%TO.N,Net-(J15-Pin_2)*%
X175975000Y-98540000D03*
%TD*%
D20*
%TO.P,C5,1*%
%TO.N,+3V3*%
X155430000Y-64560000D03*
%TO.P,C5,2*%
%TO.N,GND*%
X157330000Y-64560000D03*
%TD*%
D21*
%TO.P,R4,1*%
%TO.N,Tank level sensor*%
X117825000Y-87207500D03*
%TO.P,R4,2*%
%TO.N,+3V3*%
X117825000Y-89032500D03*
%TD*%
D11*
%TO.P,J19,1,Pin_1*%
%TO.N,GND*%
X176000000Y-105000000D03*
D12*
%TO.P,J19,2,Pin_2*%
%TO.N,Net-(J19-Pin_2)*%
X176000000Y-107540000D03*
%TD*%
D17*
%TO.P,R11,1*%
%TO.N,Status LED*%
X160200000Y-69062500D03*
%TO.P,R11,2*%
%TO.N,Net-(D1-A)*%
X160200000Y-67237500D03*
%TD*%
D11*
%TO.P,J14,1,Pin_1*%
%TO.N,GND*%
X122620000Y-60810000D03*
D12*
%TO.P,J14,2,Pin_2*%
%TO.N,Water pressure sensor*%
X125160000Y-60810000D03*
%TD*%
D15*
%TO.P,C6,1*%
%TO.N,+3V3*%
X136250000Y-104075000D03*
%TO.P,C6,2*%
%TO.N,GND*%
X136250000Y-102175000D03*
%TD*%
D20*
%TO.P,C8,1*%
%TO.N,Net-(U3-VREF)*%
X116950000Y-92800000D03*
%TO.P,C8,2*%
%TO.N,GND*%
X118850000Y-92800000D03*
%TD*%
D11*
%TO.P,J16,1,Pin_1*%
%TO.N,GND*%
X106975000Y-99000000D03*
D12*
%TO.P,J16,2,Pin_2*%
%TO.N,Pump control*%
X106975000Y-96460000D03*
%TD*%
D22*
%TO.P,R1,1*%
%TO.N,Net-(J2-Pin_2)*%
X158417500Y-107820000D03*
%TO.P,R1,2*%
%TO.N,Tank LED*%
X160242500Y-107820000D03*
%TD*%
D11*
%TO.P,J2,1,Pin_1*%
%TO.N,GND*%
X158500000Y-112225000D03*
D12*
%TO.P,J2,2,Pin_2*%
%TO.N,Net-(J2-Pin_2)*%
X155960000Y-112225000D03*
%TD*%
D11*
%TO.P,J3,1,Pin_1*%
%TO.N,GND*%
X148500000Y-112225000D03*
D12*
%TO.P,J3,2,Pin_2*%
%TO.N,Net-(J3-Pin_2)*%
X145960000Y-112225000D03*
%TD*%
D23*
%TO.P,U4,1,GND*%
%TO.N,GND*%
X155725000Y-61670000D03*
%TO.P,U4,2,CSB*%
%TO.N,+3V3*%
X155075000Y-61670000D03*
%TO.P,U4,3,SDI*%
%TO.N,I2C_SDA*%
X154425000Y-61670000D03*
%TO.P,U4,4,SCK*%
%TO.N,I2C_SCL*%
X153775000Y-61670000D03*
%TO.P,U4,5,SDO*%
%TO.N,GND*%
X153775000Y-59730000D03*
%TO.P,U4,6,VDDIO*%
%TO.N,+3V3*%
X154425000Y-59730000D03*
%TO.P,U4,7,GND*%
%TO.N,GND*%
X155075000Y-59730000D03*
%TO.P,U4,8,VDD*%
%TO.N,+3V3*%
X155725000Y-59730000D03*
%TD*%
D24*
%TO.P,C4,1*%
%TO.N,+3V3*%
X121640000Y-77000000D03*
%TO.P,C4,2*%
%TO.N,GND*%
X119740000Y-77000000D03*
%TD*%
D22*
%TO.P,R9,1*%
%TO.N,I2C_SDA*%
X136187500Y-95875000D03*
%TO.P,R9,2*%
%TO.N,+3V3*%
X138012500Y-95875000D03*
%TD*%
D24*
%TO.P,C3,1*%
%TO.N,+3V3*%
X164775000Y-90300000D03*
%TO.P,C3,2*%
%TO.N,GND*%
X162875000Y-90300000D03*
%TD*%
D25*
%TO.P,U3,1,VDD*%
%TO.N,5V_IN*%
X115275000Y-102325000D03*
%TO.P,U3,2,VLOGIC*%
%TO.N,+3V3*%
X115775000Y-102325000D03*
%TO.P,U3,3,~{RESET}*%
X116275000Y-102325000D03*
%TO.P,U3,4,~{LDAC}*%
%TO.N,GND*%
X116775000Y-102325000D03*
%TO.P,U3,5,GND*%
X117275000Y-102325000D03*
%TO.P,U3,6,A0*%
X117275000Y-97925000D03*
%TO.P,U3,7,SCL*%
%TO.N,I2C_SCL*%
X116775000Y-97925000D03*
%TO.P,U3,8,SDA*%
%TO.N,I2C_SDA*%
X116275000Y-97925000D03*
%TO.P,U3,9,VREF*%
%TO.N,Net-(U3-VREF)*%
X115775000Y-97925000D03*
%TO.P,U3,10,VOUT*%
%TO.N,Pump control*%
X115275000Y-97925000D03*
%TD*%
D26*
%TO.P,J12,1,Pin_1*%
%TO.N,GND*%
X124100000Y-111875000D03*
D27*
%TO.P,J12,2,Pin_2*%
%TO.N,5V_IN*%
X129180000Y-111875000D03*
%TD*%
D11*
%TO.P,J4,1,Pin_1*%
%TO.N,GND*%
X176000000Y-87000000D03*
D12*
%TO.P,J4,2,Pin_2*%
%TO.N,Net-(J4-Pin_2)*%
X176000000Y-89540000D03*
%TD*%
D13*
%TO.P,R8,1*%
%TO.N,Group head thermistor*%
X115362500Y-64825000D03*
%TO.P,R8,2*%
%TO.N,+3V3*%
X113537500Y-64825000D03*
%TD*%
D17*
%TO.P,R3,1*%
%TO.N,Net-(J4-Pin_2)*%
X167300000Y-88637500D03*
%TO.P,R3,2*%
%TO.N,Brew lights*%
X167300000Y-86812500D03*
%TD*%
D28*
%TO.P,J7,1,Pin_1*%
%TO.N,GND*%
X136850000Y-108770000D03*
%TO.P,J7,2,Pin_2*%
%TO.N,+3V3*%
X137850000Y-108770000D03*
%TO.P,J7,3,Pin_3*%
%TO.N,I2C_SDA*%
X138850000Y-108770000D03*
%TO.P,J7,4,Pin_4*%
%TO.N,I2C_SCL*%
X139850000Y-108770000D03*
D29*
%TO.P,J7,MP*%
%TO.N,N/C*%
X135550000Y-112645000D03*
X141150000Y-112645000D03*
%TD*%
D30*
%TO.P,U1,1,VCCA*%
%TO.N,+3V3*%
X156605000Y-73295000D03*
%TO.P,U1,2,DIR*%
X156605000Y-74565000D03*
%TO.P,U1,3,A1*%
%TO.N,Net-(J11-~D9)*%
X156605000Y-75835000D03*
%TO.P,U1,4,A2*%
%TO.N,Net-(J11-D8)*%
X156605000Y-77105000D03*
%TO.P,U1,5,A3*%
%TO.N,Net-(J11-D7)*%
X156605000Y-78375000D03*
%TO.P,U1,6,A4*%
%TO.N,Net-(J11-~D6)*%
X156605000Y-79645000D03*
%TO.P,U1,7,A5*%
%TO.N,Net-(J11-~D5)*%
X156605000Y-80915000D03*
%TO.P,U1,8,A6*%
%TO.N,Net-(J11-D4)*%
X156605000Y-82185000D03*
%TO.P,U1,9,A7*%
%TO.N,Net-(J11-~D3)*%
X156605000Y-83455000D03*
%TO.P,U1,10,A8*%
%TO.N,Brew lights control*%
X156605000Y-84725000D03*
%TO.P,U1,11,GND*%
%TO.N,GND*%
X156605000Y-85995000D03*
%TO.P,U1,12,GND*%
X156605000Y-87265000D03*
%TO.P,U1,13,GND*%
X163535000Y-87265000D03*
%TO.P,U1,14,B8*%
%TO.N,Brew lights*%
X163535000Y-85995000D03*
%TO.P,U1,15,B7*%
%TO.N,Accessory 2*%
X163535000Y-84725000D03*
%TO.P,U1,16,B6*%
%TO.N,Accessory 1*%
X163535000Y-83455000D03*
%TO.P,U1,17,B5*%
%TO.N,Water pump control*%
X163535000Y-82185000D03*
%TO.P,U1,18,B4*%
%TO.N,Fill valve control*%
X163535000Y-80915000D03*
%TO.P,U1,19,B3*%
%TO.N,Water valve control*%
X163535000Y-79645000D03*
%TO.P,U1,20,B2*%
%TO.N,Steam boiler control*%
X163535000Y-78375000D03*
%TO.P,U1,21,B1*%
%TO.N,Coffee boiler control*%
X163535000Y-77105000D03*
%TO.P,U1,22,~{OE}*%
%TO.N,GND*%
X163535000Y-75835000D03*
%TO.P,U1,23,VCCB*%
%TO.N,5V_IN*%
X163535000Y-74565000D03*
%TO.P,U1,24,VCCB*%
X163535000Y-73295000D03*
%TD*%
D15*
%TO.P,C9,1*%
%TO.N,+3V3*%
X121000000Y-101075000D03*
%TO.P,C9,2*%
%TO.N,GND*%
X121000000Y-99175000D03*
%TD*%
D21*
%TO.P,R7,1*%
%TO.N,GND*%
X115095000Y-82817500D03*
%TO.P,R7,2*%
%TO.N,Boiler level sensor*%
X115095000Y-84642500D03*
%TD*%
D11*
%TO.P,J17,1,Pin_1*%
%TO.N,GND*%
X106975000Y-108000000D03*
D12*
%TO.P,J17,2,Pin_2*%
%TO.N,Tachometer*%
X106975000Y-105460000D03*
%TD*%
D15*
%TO.P,C1,1*%
%TO.N,+3V3*%
X153260000Y-73300000D03*
%TO.P,C1,2*%
%TO.N,GND*%
X153260000Y-71400000D03*
%TD*%
D11*
%TO.P,J5,1,Pin_1*%
%TO.N,GND*%
X168500000Y-112225000D03*
D12*
%TO.P,J5,2,Pin_2*%
%TO.N,Brew button*%
X165960000Y-112225000D03*
%TD*%
D22*
%TO.P,R2,1*%
%TO.N,Net-(J3-Pin_2)*%
X148547500Y-107670000D03*
%TO.P,R2,2*%
%TO.N,Alarm LED*%
X150372500Y-107670000D03*
%TD*%
D31*
%TO.N,5V_IN*%
X163540000Y-72400000D03*
X163550000Y-71530000D03*
%TO.N,GND*%
X153260000Y-70910000D03*
X162400000Y-87260000D03*
X115295000Y-67027500D03*
X141340000Y-78590000D03*
X119350000Y-92800000D03*
X152680000Y-59730000D03*
D32*
X105875000Y-115275000D03*
D31*
X156750000Y-61675000D03*
X132570000Y-91010000D03*
D32*
X175875000Y-57275000D03*
D31*
X132580000Y-80730000D03*
X156625000Y-97225000D03*
X157570000Y-69592500D03*
X157640000Y-87260000D03*
D32*
X105875000Y-57275000D03*
D31*
X117830000Y-67020000D03*
X135670000Y-65760000D03*
X120375000Y-67027500D03*
X136250000Y-101675000D03*
X162375000Y-90275000D03*
X163520000Y-68070000D03*
X136395000Y-107425000D03*
X117800000Y-104200000D03*
X162400000Y-75830000D03*
D32*
X175875000Y-115275000D03*
D31*
X115085000Y-89530000D03*
X119240000Y-77000000D03*
X121000000Y-98675000D03*
X133375000Y-98675000D03*
X146710000Y-93610000D03*
X116555000Y-74277500D03*
X119105000Y-74297500D03*
X154275000Y-104000000D03*
X115095000Y-82300000D03*
%TO.N,+3V3*%
X117835000Y-82310000D03*
X164775000Y-91925000D03*
X136250000Y-105320000D03*
X116300000Y-104225000D03*
X157740000Y-74570000D03*
X156750000Y-99775000D03*
X138150000Y-93000000D03*
X157740000Y-73300000D03*
X133380000Y-68180000D03*
X117825000Y-89550000D03*
X121000000Y-101575000D03*
X121635000Y-74287500D03*
X155430000Y-63020000D03*
X113025000Y-64825000D03*
X138525000Y-95875000D03*
X154430000Y-58380000D03*
X156775000Y-59725000D03*
%TO.N,I2C_SDA*%
X136040000Y-81630000D03*
X136040000Y-75350000D03*
X141375000Y-84525000D03*
X157600000Y-94675000D03*
X153525000Y-64115000D03*
X124450000Y-73125000D03*
%TO.N,I2C_SCL*%
X149675000Y-61675000D03*
X140525000Y-89375000D03*
X138975000Y-71000000D03*
X124650000Y-68200000D03*
X135952500Y-85975000D03*
X153825000Y-93425000D03*
%TO.N,Tachometer*%
X128175000Y-91050000D03*
%TD*%
D33*
%TO.N,5V_IN*%
X129115000Y-101200000D02*
X129120000Y-101205000D01*
D34*
X115275000Y-102325000D02*
X115275000Y-105275000D01*
D35*
X115275000Y-105275000D02*
X116000000Y-106000000D01*
X116000000Y-106000000D02*
X120930000Y-106000000D01*
X163520000Y-70460000D02*
X163520000Y-73280000D01*
D36*
X125730000Y-101200000D02*
X129115000Y-101200000D01*
X129120000Y-101205000D02*
X129120000Y-105325000D01*
D35*
X163520000Y-73280000D02*
X163535000Y-73295000D01*
D37*
X163535000Y-74565000D02*
X163535000Y-73295000D01*
D35*
X120930000Y-106000000D02*
X125730000Y-101200000D01*
D36*
X129120000Y-105325000D02*
X129120000Y-111815000D01*
D37*
%TO.N,GND*%
X156625000Y-97225000D02*
X155555000Y-97225000D01*
X116560000Y-73117500D02*
X116560000Y-74272500D01*
X163535000Y-75835000D02*
X162405000Y-75835000D01*
X162400000Y-90300000D02*
X162375000Y-90275000D01*
X120370000Y-73117500D02*
X119100000Y-73117500D01*
D38*
X156745000Y-61670000D02*
X156750000Y-61675000D01*
D37*
X120370000Y-67032500D02*
X120375000Y-67027500D01*
D38*
X155725000Y-61000000D02*
X155075000Y-60350000D01*
D37*
X121000000Y-99175000D02*
X121000000Y-98675000D01*
X118850000Y-92800000D02*
X119350000Y-92800000D01*
X162875000Y-90300000D02*
X162400000Y-90300000D01*
X154275000Y-104000000D02*
X154695000Y-103580000D01*
X115095000Y-82817500D02*
X115095000Y-82300000D01*
D34*
X117275000Y-97925000D02*
X117275000Y-102325000D01*
D37*
X116560000Y-74272500D02*
X116555000Y-74277500D01*
X162405000Y-75835000D02*
X162400000Y-75830000D01*
X115290000Y-68207500D02*
X115290000Y-67032500D01*
X155555000Y-97225000D02*
X155550000Y-97230000D01*
X115290000Y-67032500D02*
X115295000Y-67027500D01*
X121640000Y-68207500D02*
X120370000Y-68207500D01*
X136250000Y-101675000D02*
X136250000Y-102175000D01*
X119100000Y-73117500D02*
X119100000Y-74292500D01*
D35*
X132420000Y-98665000D02*
X125895000Y-98665000D01*
D37*
X163535000Y-87265000D02*
X162405000Y-87265000D01*
D34*
X117800000Y-104200000D02*
X117275000Y-103675000D01*
D37*
X136850000Y-107880000D02*
X136850000Y-108770000D01*
X156605000Y-85995000D02*
X156605000Y-87265000D01*
X136395000Y-107425000D02*
X136850000Y-107880000D01*
X155550000Y-98500000D02*
X155550000Y-97230000D01*
D38*
X155075000Y-60350000D02*
X155075000Y-59730000D01*
D37*
X146710000Y-93610000D02*
X147660000Y-93610000D01*
X154695000Y-103580000D02*
X155550000Y-103580000D01*
X155550000Y-95960000D02*
X155550000Y-97230000D01*
X162405000Y-87265000D02*
X162400000Y-87260000D01*
X119100000Y-74292500D02*
X119105000Y-74297500D01*
D38*
X155725000Y-61670000D02*
X156745000Y-61670000D01*
D37*
X132420000Y-98665000D02*
X133365000Y-98665000D01*
X133365000Y-98665000D02*
X133375000Y-98675000D01*
X157570000Y-69100000D02*
X157570000Y-69592500D01*
D38*
X152680000Y-59730000D02*
X153775000Y-59730000D01*
D37*
X157330000Y-62255000D02*
X156750000Y-61675000D01*
X115085000Y-89012500D02*
X115085000Y-89530000D01*
D34*
X117275000Y-103675000D02*
X117275000Y-102325000D01*
D37*
X120370000Y-68207500D02*
X120370000Y-67032500D01*
X157330000Y-64560000D02*
X157330000Y-62255000D01*
D34*
X116775000Y-102325000D02*
X117275000Y-102325000D01*
D38*
X155725000Y-61670000D02*
X155725000Y-61000000D01*
D37*
%TO.N,+3V3*%
X156605000Y-74565000D02*
X156605000Y-73295000D01*
D38*
X155430000Y-63020000D02*
X155075000Y-62665000D01*
X154425000Y-59730000D02*
X154425000Y-58385000D01*
D37*
X138662500Y-93025000D02*
X138175000Y-93025000D01*
X164770000Y-91930000D02*
X164775000Y-91925000D01*
X121640000Y-73117500D02*
X121640000Y-74282500D01*
D38*
X154425000Y-58385000D02*
X154430000Y-58380000D01*
X155075000Y-62665000D02*
X155075000Y-61670000D01*
D37*
X155430000Y-63020000D02*
X155430000Y-64560000D01*
D38*
X156770000Y-59730000D02*
X156775000Y-59725000D01*
D35*
X157740000Y-73300000D02*
X156610000Y-73300000D01*
D37*
X132420000Y-68185000D02*
X133375000Y-68185000D01*
D35*
X153260000Y-73300000D02*
X156600000Y-73300000D01*
D38*
X155725000Y-59730000D02*
X156770000Y-59730000D01*
D37*
X136250000Y-105320000D02*
X137850000Y-106920000D01*
X164770000Y-93420000D02*
X164770000Y-91930000D01*
X136250000Y-105320000D02*
X136250000Y-104075000D01*
X137850000Y-106920000D02*
X137850000Y-108770000D01*
X138012500Y-95875000D02*
X138525000Y-95875000D01*
X157735000Y-74565000D02*
X157740000Y-74570000D01*
X138175000Y-93025000D02*
X138150000Y-93000000D01*
X117825000Y-89032500D02*
X117825000Y-89550000D01*
D35*
X156600000Y-73300000D02*
X156605000Y-73295000D01*
D37*
X155550000Y-99770000D02*
X156745000Y-99770000D01*
X121640000Y-74292500D02*
X121635000Y-74287500D01*
X121000000Y-101075000D02*
X121000000Y-101575000D01*
D34*
X116300000Y-104225000D02*
X116275000Y-104200000D01*
D37*
X156745000Y-99770000D02*
X156750000Y-99775000D01*
D35*
X156610000Y-73300000D02*
X156605000Y-73295000D01*
D37*
X133375000Y-68185000D02*
X133380000Y-68180000D01*
D34*
X116275000Y-104200000D02*
X116275000Y-102325000D01*
D37*
X164775000Y-90300000D02*
X164775000Y-91925000D01*
X113537500Y-64825000D02*
X113025000Y-64825000D01*
X121640000Y-74282500D02*
X121635000Y-74287500D01*
X156605000Y-74565000D02*
X157735000Y-74565000D01*
D34*
X115775000Y-102325000D02*
X116275000Y-102325000D01*
D37*
X117835000Y-82827500D02*
X117835000Y-82310000D01*
X121640000Y-77000000D02*
X121640000Y-74292500D01*
%TO.N,SPI_SCLK*%
X135690000Y-61480000D02*
X135690000Y-57900000D01*
X129120000Y-65645000D02*
X131525000Y-65645000D01*
X131525000Y-65645000D02*
X135690000Y-61480000D01*
%TO.N,Group head thermistor*%
X116560000Y-66022500D02*
X115362500Y-64825000D01*
X115362500Y-64825000D02*
X115362500Y-60842500D01*
X116560000Y-68207500D02*
X116560000Y-66022500D01*
%TO.N,Dial potentiometer*%
X106975000Y-68185000D02*
X109185000Y-68185000D01*
X115290000Y-71790000D02*
X115290000Y-73117500D01*
X109185000Y-68185000D02*
X111935000Y-70935000D01*
X111935000Y-70935000D02*
X114435000Y-70935000D01*
X114435000Y-70935000D02*
X115290000Y-71790000D01*
%TO.N,Pressurestat*%
X122175000Y-79350000D02*
X125720000Y-75805000D01*
X106975000Y-77050000D02*
X112525000Y-77050000D01*
X125720000Y-75805000D02*
X129120000Y-75805000D01*
X112525000Y-77050000D02*
X114825000Y-79350000D01*
X114825000Y-79350000D02*
X122175000Y-79350000D01*
%TO.N,Brew button*%
X167890000Y-102415000D02*
X167890000Y-107460000D01*
X166515000Y-101040000D02*
X167890000Y-102415000D01*
X165960000Y-109390000D02*
X165960000Y-112225000D01*
X164770000Y-101040000D02*
X166515000Y-101040000D01*
X167890000Y-107460000D02*
X165960000Y-109390000D01*
%TO.N,I2C_SDA*%
X136040000Y-81630000D02*
X134245000Y-83425000D01*
X157600000Y-94675000D02*
X155565000Y-94675000D01*
X117150000Y-94650000D02*
X120300000Y-94650000D01*
X136040000Y-75350000D02*
X136040000Y-81630000D01*
D34*
X116275000Y-95525000D02*
X117150000Y-94650000D01*
D37*
X138850000Y-108770000D02*
X138850000Y-101025000D01*
X124450000Y-73125000D02*
X122917500Y-73125000D01*
X141375000Y-84525000D02*
X136187500Y-89712500D01*
X120300000Y-94650000D02*
X122275000Y-92675000D01*
D38*
X153525000Y-63265000D02*
X154425000Y-62365000D01*
D37*
X136187500Y-98362500D02*
X136187500Y-95875000D01*
X127675000Y-83425000D02*
X132420000Y-83425000D01*
D34*
X116275000Y-97925000D02*
X116275000Y-95525000D01*
D37*
X134245000Y-83425000D02*
X132420000Y-83425000D01*
X136187500Y-89712500D02*
X136187500Y-95875000D01*
D38*
X154425000Y-62365000D02*
X154425000Y-61670000D01*
D37*
X155565000Y-94675000D02*
X155550000Y-94690000D01*
X122917500Y-73125000D02*
X122910000Y-73117500D01*
X138850000Y-101025000D02*
X136187500Y-98362500D01*
X122275000Y-92675000D02*
X122275000Y-88825000D01*
X122275000Y-88825000D02*
X127675000Y-83425000D01*
D38*
X153525000Y-64115000D02*
X153525000Y-63265000D01*
D37*
%TO.N,I2C_SCL*%
X129120000Y-85965000D02*
X135917500Y-85965000D01*
D34*
X116775000Y-96625000D02*
X117425000Y-95975000D01*
D37*
X140512500Y-93050000D02*
X140512500Y-107487500D01*
X123825000Y-93175000D02*
X123825000Y-89625000D01*
X117425000Y-95975000D02*
X121025000Y-95975000D01*
X140512500Y-93000000D02*
X140512500Y-89387500D01*
X127485000Y-85965000D02*
X129120000Y-85965000D01*
D34*
X116775000Y-97925000D02*
X116775000Y-96625000D01*
D37*
X140512500Y-89387500D02*
X140525000Y-89375000D01*
D38*
X149680000Y-61670000D02*
X153775000Y-61670000D01*
D37*
X155545000Y-93425000D02*
X155550000Y-93420000D01*
X139850000Y-108150000D02*
X139850000Y-108770000D01*
X123825000Y-89625000D02*
X127485000Y-85965000D01*
X138975000Y-71000000D02*
X138975000Y-82952500D01*
D38*
X149675000Y-61675000D02*
X149680000Y-61670000D01*
D37*
X124642500Y-68207500D02*
X124650000Y-68200000D01*
X122910000Y-68207500D02*
X124642500Y-68207500D01*
X153825000Y-93425000D02*
X155545000Y-93425000D01*
X121025000Y-95975000D02*
X123825000Y-93175000D01*
X138975000Y-82952500D02*
X135952500Y-85975000D01*
X140512500Y-107487500D02*
X139850000Y-108150000D01*
D35*
%TO.N,Boiler level sensor*%
X108865000Y-87210000D02*
X111432500Y-84642500D01*
X126455000Y-78345000D02*
X120147500Y-84652500D01*
X132420000Y-78345000D02*
X126455000Y-78345000D01*
X120147500Y-84652500D02*
X117835000Y-84652500D01*
X106975000Y-87210000D02*
X108865000Y-87210000D01*
X117835000Y-84652500D02*
X115105000Y-84652500D01*
X111432500Y-84642500D02*
X115095000Y-84642500D01*
%TO.N,Tank level sensor*%
X129120000Y-80885000D02*
X127440000Y-80885000D01*
X110600000Y-89750000D02*
X113162500Y-87187500D01*
X117825000Y-87207500D02*
X115105000Y-87207500D01*
X127440000Y-80885000D02*
X121117500Y-87207500D01*
X106975000Y-89750000D02*
X110600000Y-89750000D01*
X115105000Y-87207500D02*
X115085000Y-87187500D01*
X121117500Y-87207500D02*
X117825000Y-87207500D01*
X113162500Y-87187500D02*
X115085000Y-87187500D01*
D37*
%TO.N,Alarm LED*%
X164770000Y-102310000D02*
X160240000Y-102310000D01*
X154880000Y-107670000D02*
X150372500Y-107670000D01*
X160240000Y-102310000D02*
X154880000Y-107670000D01*
%TO.N,Tank LED*%
X162345000Y-103580000D02*
X160242500Y-105682500D01*
X160242500Y-105682500D02*
X160242500Y-107820000D01*
X164770000Y-103580000D02*
X162345000Y-103580000D01*
%TO.N,SPI_CS*%
X139575000Y-67827500D02*
X142497500Y-70750000D01*
X139575000Y-63050000D02*
X139575000Y-67827500D01*
X138230000Y-57900000D02*
X138230000Y-61705000D01*
X138230000Y-61705000D02*
X139575000Y-63050000D01*
X142497500Y-70750000D02*
X144360000Y-70750000D01*
%TO.N,SPI_MOSI*%
X140770000Y-60495000D02*
X141875000Y-61600000D01*
X141875000Y-66925000D02*
X143160000Y-68210000D01*
X141875000Y-61600000D02*
X141875000Y-66925000D01*
X143160000Y-68210000D02*
X147660000Y-68210000D01*
X140770000Y-57900000D02*
X140770000Y-60495000D01*
%TO.N,SPI_MISO*%
X144360000Y-65670000D02*
X144360000Y-60235000D01*
X144360000Y-60235000D02*
X143310000Y-59185000D01*
X143310000Y-59185000D02*
X143310000Y-57900000D01*
D35*
%TO.N,Net-(J3-Pin_2)*%
X145960000Y-110257500D02*
X148547500Y-107670000D01*
X145960000Y-112225000D02*
X145960000Y-110257500D01*
D37*
%TO.N,Net-(J4-Pin_2)*%
X167300000Y-88637500D02*
X168202500Y-89540000D01*
X168202500Y-89540000D02*
X176000000Y-89540000D01*
%TO.N,Fill valve control*%
X163535000Y-80915000D02*
X167585000Y-80915000D01*
X173505000Y-72620000D02*
X176000000Y-72620000D01*
X167585000Y-80915000D02*
X171125000Y-77375000D01*
X171125000Y-77375000D02*
X171125000Y-75000000D01*
X171125000Y-75000000D02*
X173505000Y-72620000D01*
%TO.N,Water valve control*%
X169525000Y-73750000D02*
X169525000Y-76925000D01*
X176000000Y-70080000D02*
X173195000Y-70080000D01*
X173195000Y-70080000D02*
X169525000Y-73750000D01*
X166805000Y-79645000D02*
X163535000Y-79645000D01*
X169525000Y-76925000D02*
X166805000Y-79645000D01*
%TO.N,Steam boiler control*%
X166025000Y-78375000D02*
X167850000Y-76550000D01*
X167850000Y-76550000D02*
X167850000Y-72500000D01*
X167850000Y-72500000D02*
X172810000Y-67540000D01*
X163535000Y-78375000D02*
X166025000Y-78375000D01*
X172810000Y-67540000D02*
X176000000Y-67540000D01*
%TO.N,Water pump control*%
X173815000Y-75160000D02*
X176000000Y-75160000D01*
X172825000Y-77725000D02*
X172825000Y-76150000D01*
X168365000Y-82185000D02*
X172825000Y-77725000D01*
X163535000Y-82185000D02*
X168365000Y-82185000D01*
X172825000Y-76150000D02*
X173815000Y-75160000D01*
%TO.N,Brew lights*%
X166482500Y-85995000D02*
X167300000Y-86812500D01*
X163535000Y-85995000D02*
X166482500Y-85995000D01*
%TO.N,Coffee boiler control*%
X166225000Y-76037500D02*
X165157500Y-77105000D01*
X166225000Y-62585000D02*
X166225000Y-76037500D01*
X165157500Y-77105000D02*
X163535000Y-77105000D01*
D35*
%TO.N,Net-(J2-Pin_2)*%
X158417500Y-107820000D02*
X155960000Y-110277500D01*
X155960000Y-110277500D02*
X155960000Y-112225000D01*
D37*
%TO.N,Net-(J11-~D3)*%
X154035000Y-83455000D02*
X148960000Y-88530000D01*
X148960000Y-88530000D02*
X147660000Y-88530000D01*
X156605000Y-83455000D02*
X154035000Y-83455000D01*
%TO.N,Net-(J11-D4)*%
X152205000Y-82185000D02*
X148400000Y-85990000D01*
X148400000Y-85990000D02*
X144360000Y-85990000D01*
X156605000Y-82185000D02*
X152205000Y-82185000D01*
%TO.N,Net-(J11-~D5)*%
X151305000Y-80915000D02*
X148770000Y-83450000D01*
X156605000Y-80915000D02*
X151305000Y-80915000D01*
X148770000Y-83450000D02*
X147660000Y-83450000D01*
%TO.N,Net-(J11-~D6)*%
X148450000Y-80910000D02*
X144360000Y-80910000D01*
X149715000Y-79645000D02*
X148450000Y-80910000D01*
X156605000Y-79645000D02*
X149715000Y-79645000D01*
%TO.N,Net-(J11-D7)*%
X156605000Y-78375000D02*
X147665000Y-78375000D01*
%TO.N,Net-(J11-D8)*%
X150485000Y-77105000D02*
X156605000Y-77105000D01*
X149210000Y-75830000D02*
X150485000Y-77105000D01*
X144360000Y-75830000D02*
X149210000Y-75830000D01*
%TO.N,Net-(J11-~D9)*%
X147660000Y-73290000D02*
X149370000Y-73290000D01*
X151915000Y-75835000D02*
X156605000Y-75835000D01*
X149370000Y-73290000D02*
X151915000Y-75835000D01*
%TO.N,I{slash}O interrupt*%
X148420000Y-91070000D02*
X150650000Y-93300000D01*
X144360000Y-91070000D02*
X148420000Y-91070000D01*
X150650000Y-100400000D02*
X152560000Y-102310000D01*
X152560000Y-102310000D02*
X155550000Y-102310000D01*
X150650000Y-93300000D02*
X150650000Y-100400000D01*
%TO.N,Water pressure sensor*%
X120130000Y-64970000D02*
X123930000Y-64970000D01*
X119100000Y-68207500D02*
X119100000Y-66000000D01*
X123930000Y-64970000D02*
X125160000Y-63740000D01*
X119100000Y-66000000D02*
X120130000Y-64970000D01*
X125160000Y-63740000D02*
X125160000Y-60810000D01*
%TO.N,Accessory 2*%
X174560000Y-80240000D02*
X176000000Y-80240000D01*
X163535000Y-84725000D02*
X170075000Y-84725000D01*
X170075000Y-84725000D02*
X174560000Y-80240000D01*
%TO.N,Status LED*%
X164770000Y-98500000D02*
X162200000Y-98500000D01*
X162200000Y-98500000D02*
X160650000Y-96950000D01*
X160650000Y-69512500D02*
X160200000Y-69062500D01*
X160650000Y-96950000D02*
X160650000Y-69512500D01*
D35*
%TO.N,Net-(D1-A)*%
X157582500Y-67237500D02*
X157570000Y-67225000D01*
D37*
X160200000Y-67237500D02*
X157582500Y-67237500D01*
%TO.N,Brew lights control*%
X158325000Y-84725000D02*
X159375000Y-85775000D01*
X159375000Y-97575000D02*
X161570000Y-99770000D01*
X156605000Y-84725000D02*
X158325000Y-84725000D01*
X159375000Y-85775000D02*
X159375000Y-97575000D01*
X161570000Y-99770000D02*
X164770000Y-99770000D01*
%TO.N,Accessory 1*%
X169195000Y-83455000D02*
X174950000Y-77700000D01*
X174950000Y-77700000D02*
X176000000Y-77700000D01*
X163535000Y-83455000D02*
X169195000Y-83455000D01*
%TO.N,Net-(J19-Pin_2)*%
X173765000Y-107540000D02*
X176000000Y-107540000D01*
X164770000Y-97230000D02*
X167905000Y-97230000D01*
X170375000Y-99700000D02*
X170375000Y-104150000D01*
X170375000Y-104150000D02*
X173765000Y-107540000D01*
X167905000Y-97230000D02*
X170375000Y-99700000D01*
%TO.N,Net-(J15-Pin_2)*%
X164770000Y-95960000D02*
X168710000Y-95960000D01*
X171290000Y-98540000D02*
X175975000Y-98540000D01*
X168710000Y-95960000D02*
X171290000Y-98540000D01*
D34*
%TO.N,Net-(U3-VREF)*%
X115775000Y-97925000D02*
X115775000Y-93975000D01*
X115775000Y-93975000D02*
X116950000Y-92800000D01*
%TO.N,Pump control*%
X115275000Y-96950000D02*
X115275000Y-97925000D01*
X114785000Y-96460000D02*
X115275000Y-96950000D01*
X106975000Y-96460000D02*
X114785000Y-96460000D01*
D37*
%TO.N,Tachometer*%
X128180000Y-91045000D02*
X128175000Y-91050000D01*
X129120000Y-91045000D02*
X128180000Y-91045000D01*
%TD*%
%TA.AperFunction,Conductor*%
%TO.N,+3V3*%
G36*
X138519871Y-95479492D02*
G01*
X138524818Y-95486955D01*
X138525035Y-95489167D01*
X138526000Y-95875000D01*
X138526000Y-95875058D01*
X138525035Y-96260832D01*
X138521587Y-96269097D01*
X138513306Y-96272503D01*
X138511094Y-96272286D01*
X138021959Y-96176845D01*
X138014496Y-96171898D01*
X138012500Y-96165362D01*
X138012500Y-95584637D01*
X138015927Y-95576364D01*
X138021957Y-95573154D01*
X138511094Y-95477713D01*
X138519871Y-95479492D01*
G37*
%TD.AperFunction*%
%TD*%
%TA.AperFunction,Conductor*%
%TO.N,Net-(J3-Pin_2)*%
G36*
X146458752Y-110528427D02*
G01*
X146461935Y-110534323D01*
X146743332Y-111890248D01*
X146741658Y-111899044D01*
X146736365Y-111903430D01*
X145964489Y-112224134D01*
X145955534Y-112224143D01*
X145955511Y-112224134D01*
X145183634Y-111903430D01*
X145177309Y-111897091D01*
X145176667Y-111890249D01*
X145458065Y-110534322D01*
X145463102Y-110526918D01*
X145469521Y-110525000D01*
X146450479Y-110525000D01*
X146458752Y-110528427D01*
G37*
%TD.AperFunction*%
%TD*%
%TA.AperFunction,Conductor*%
%TO.N,+3V3*%
G36*
X118220859Y-82309964D02*
G01*
X118229123Y-82313412D01*
X118232529Y-82321693D01*
X118232316Y-82323884D01*
X118136832Y-82818020D01*
X118131898Y-82825493D01*
X118125345Y-82827500D01*
X117544655Y-82827500D01*
X117536382Y-82824073D01*
X117533168Y-82818020D01*
X117437683Y-82323884D01*
X117439477Y-82315111D01*
X117446950Y-82310177D01*
X117449134Y-82309964D01*
X117835000Y-82309000D01*
X118220859Y-82309964D01*
G37*
%TD.AperFunction*%
%TD*%
%TA.AperFunction,Conductor*%
%TO.N,SPI_MOSI*%
G36*
X140774484Y-57900863D02*
G01*
X141545065Y-58221029D01*
X141551390Y-58227368D01*
X141551609Y-58235729D01*
X141072755Y-59592195D01*
X141066769Y-59598855D01*
X141061722Y-59600000D01*
X140478278Y-59600000D01*
X140470005Y-59596573D01*
X140467245Y-59592195D01*
X139988390Y-58235729D01*
X139988868Y-58226787D01*
X139994932Y-58221030D01*
X140765511Y-57900864D01*
X140774466Y-57900856D01*
X140774484Y-57900863D01*
G37*
%TD.AperFunction*%
%TD*%
%TA.AperFunction,Conductor*%
%TO.N,GND*%
G36*
X146723106Y-93211638D02*
G01*
X147499752Y-93308719D01*
X147507535Y-93313145D01*
X147510000Y-93320328D01*
X147510000Y-93899671D01*
X147506573Y-93907944D01*
X147499751Y-93911281D01*
X146723117Y-94008360D01*
X146714483Y-94005985D01*
X146710056Y-93998201D01*
X146709966Y-93996794D01*
X146709000Y-93610000D01*
X146709966Y-93223217D01*
X146713414Y-93214955D01*
X146721695Y-93211549D01*
X146723106Y-93211638D01*
G37*
%TD.AperFunction*%
%TD*%
%TA.AperFunction,Conductor*%
%TO.N,GND*%
G36*
X156620516Y-96829014D02*
G01*
X156624943Y-96836798D01*
X156625033Y-96838220D01*
X156626000Y-97225000D01*
X156626000Y-97225058D01*
X156625033Y-97611779D01*
X156621585Y-97620044D01*
X156613304Y-97623450D01*
X156611882Y-97623360D01*
X155835249Y-97526281D01*
X155827465Y-97521854D01*
X155825000Y-97514671D01*
X155825000Y-96935328D01*
X155828427Y-96927055D01*
X155835246Y-96923719D01*
X156611883Y-96826639D01*
X156620516Y-96829014D01*
G37*
%TD.AperFunction*%
%TD*%
%TA.AperFunction,Conductor*%
%TO.N,+3V3*%
G36*
X155083160Y-61676943D02*
G01*
X155180874Y-61772051D01*
X155295961Y-61884069D01*
X155299499Y-61892294D01*
X155299500Y-61892452D01*
X155299500Y-61892459D01*
X155299443Y-61893614D01*
X155276046Y-62129455D01*
X155271819Y-62137349D01*
X155264403Y-62140000D01*
X154885597Y-62140000D01*
X154877324Y-62136573D01*
X154873954Y-62129455D01*
X154871203Y-62101732D01*
X154853368Y-61921949D01*
X154853368Y-61919656D01*
X154853939Y-61913901D01*
X154854693Y-61903743D01*
X154854750Y-61902588D01*
X154854969Y-61892459D01*
X154854996Y-61891235D01*
X154854996Y-61891214D01*
X154854995Y-61891049D01*
X154854938Y-61890778D01*
X154854956Y-61890683D01*
X154854933Y-61890465D01*
X154854998Y-61890458D01*
X154856591Y-61881980D01*
X154858221Y-61879997D01*
X155066840Y-61676942D01*
X155075157Y-61673628D01*
X155083160Y-61676943D01*
G37*
%TD.AperFunction*%
%TD*%
%TA.AperFunction,Conductor*%
%TO.N,I2C_SDA*%
G36*
X116882243Y-94539057D02*
G01*
X117065011Y-94614105D01*
X117146184Y-94647436D01*
X117152536Y-94653748D01*
X117152563Y-94653815D01*
X117260941Y-94917754D01*
X117260914Y-94926709D01*
X117256023Y-94932298D01*
X116839596Y-95175773D01*
X116830725Y-95176991D01*
X116825418Y-95173946D01*
X116626053Y-94974581D01*
X116622626Y-94966308D01*
X116624224Y-94960407D01*
X116867702Y-94543974D01*
X116874835Y-94538563D01*
X116882243Y-94539057D01*
G37*
%TD.AperFunction*%
%TD*%
%TA.AperFunction,Conductor*%
%TO.N,I2C_SDA*%
G36*
X131473941Y-82927113D02*
G01*
X131474765Y-82927505D01*
X131850400Y-83125000D01*
X132401302Y-83414644D01*
X132407030Y-83421527D01*
X132406213Y-83430445D01*
X132401302Y-83435356D01*
X131474777Y-83922488D01*
X131465859Y-83923305D01*
X131464991Y-83922996D01*
X130977355Y-83727942D01*
X130970946Y-83721688D01*
X130970000Y-83717079D01*
X130970000Y-83132921D01*
X130973427Y-83124648D01*
X130977355Y-83122058D01*
X131464989Y-82927004D01*
X131473941Y-82927113D01*
G37*
%TD.AperFunction*%
%TD*%
%TA.AperFunction,Conductor*%
%TO.N,+3V3*%
G36*
X118135180Y-82310006D02*
G01*
X118260308Y-82314176D01*
X118268460Y-82317877D01*
X118271610Y-82326260D01*
X118268715Y-82333581D01*
X117843799Y-82818459D01*
X117835769Y-82822423D01*
X117827289Y-82819547D01*
X117826201Y-82818459D01*
X117401284Y-82333581D01*
X117398408Y-82325101D01*
X117402372Y-82317071D01*
X117409690Y-82314176D01*
X117534820Y-82310006D01*
X117535210Y-82310000D01*
X118134790Y-82310000D01*
X118135180Y-82310006D01*
G37*
%TD.AperFunction*%
%TD*%
%TA.AperFunction,Conductor*%
%TO.N,+3V3*%
G36*
X155729369Y-63338427D02*
G01*
X155732373Y-63343581D01*
X155909327Y-63983391D01*
X155908229Y-63992278D01*
X155907003Y-63994042D01*
X155438953Y-64550358D01*
X155431004Y-64554483D01*
X155422468Y-64551779D01*
X155421047Y-64550358D01*
X154952996Y-63994042D01*
X154950292Y-63985506D01*
X154950672Y-63983391D01*
X155127627Y-63343581D01*
X155133136Y-63336521D01*
X155138904Y-63335000D01*
X155721096Y-63335000D01*
X155729369Y-63338427D01*
G37*
%TD.AperFunction*%
%TD*%
%TA.AperFunction,Conductor*%
%TO.N,+3V3*%
G36*
X133375458Y-67784052D02*
G01*
X133379933Y-67791809D01*
X133380033Y-67793304D01*
X133381000Y-68180000D01*
X133381000Y-68180058D01*
X133380032Y-68566859D01*
X133376584Y-68575124D01*
X133368303Y-68578530D01*
X133366951Y-68578448D01*
X132591314Y-68486226D01*
X132583503Y-68481846D01*
X132580995Y-68474608D01*
X132580995Y-67895262D01*
X132584422Y-67886989D01*
X132591168Y-67883663D01*
X133366810Y-67781733D01*
X133375458Y-67784052D01*
G37*
%TD.AperFunction*%
%TD*%
%TA.AperFunction,Conductor*%
%TO.N,GND*%
G36*
X157040018Y-61401523D02*
G01*
X157040959Y-61402592D01*
X157521475Y-62020400D01*
X157523850Y-62029034D01*
X157520513Y-62035856D01*
X157110856Y-62445513D01*
X157102583Y-62448940D01*
X157095400Y-62446475D01*
X156477592Y-61965959D01*
X156473165Y-61958175D01*
X156475540Y-61949541D01*
X156476481Y-61948472D01*
X156749251Y-61674335D01*
X156749293Y-61674293D01*
X157023472Y-61401480D01*
X157031753Y-61398075D01*
X157040018Y-61401523D01*
G37*
%TD.AperFunction*%
%TD*%
%TA.AperFunction,Conductor*%
%TO.N,SPI_CS*%
G36*
X143413941Y-70252113D02*
G01*
X143414765Y-70252505D01*
X143790400Y-70450000D01*
X144341302Y-70739644D01*
X144347030Y-70746527D01*
X144346213Y-70755445D01*
X144341302Y-70760356D01*
X143414777Y-71247488D01*
X143405859Y-71248305D01*
X143404991Y-71247996D01*
X142917355Y-71052942D01*
X142910946Y-71046688D01*
X142910000Y-71042079D01*
X142910000Y-70457921D01*
X142913427Y-70449648D01*
X142917355Y-70447058D01*
X143404989Y-70252004D01*
X143413941Y-70252113D01*
G37*
%TD.AperFunction*%
%TD*%
%TA.AperFunction,Conductor*%
%TO.N,Water pressure sensor*%
G36*
X125164484Y-60810863D02*
G01*
X125935065Y-61131029D01*
X125941390Y-61137368D01*
X125941609Y-61145729D01*
X125462755Y-62502195D01*
X125456769Y-62508855D01*
X125451722Y-62510000D01*
X124868278Y-62510000D01*
X124860005Y-62506573D01*
X124857245Y-62502195D01*
X124378390Y-61145729D01*
X124378868Y-61136787D01*
X124384932Y-61131030D01*
X125155511Y-60810864D01*
X125164466Y-60810856D01*
X125164484Y-60810863D01*
G37*
%TD.AperFunction*%
%TD*%
%TA.AperFunction,Conductor*%
%TO.N,GND*%
G36*
X157629369Y-63338427D02*
G01*
X157632373Y-63343581D01*
X157809327Y-63983391D01*
X157808229Y-63992278D01*
X157807003Y-63994042D01*
X157338953Y-64550358D01*
X157331004Y-64554483D01*
X157322468Y-64551779D01*
X157321047Y-64550358D01*
X156852996Y-63994042D01*
X156850292Y-63985506D01*
X156850672Y-63983391D01*
X157027627Y-63343581D01*
X157033136Y-63336521D01*
X157038904Y-63335000D01*
X157621096Y-63335000D01*
X157629369Y-63338427D01*
G37*
%TD.AperFunction*%
%TD*%
%TA.AperFunction,Conductor*%
%TO.N,Net-(J19-Pin_2)*%
G36*
X175673212Y-106758868D02*
G01*
X175678970Y-106764934D01*
X175999134Y-107535511D01*
X175999143Y-107544466D01*
X175999134Y-107544489D01*
X175678970Y-108315065D01*
X175672631Y-108321390D01*
X175664270Y-108321609D01*
X174307805Y-107842755D01*
X174301145Y-107836769D01*
X174300000Y-107831722D01*
X174300000Y-107248277D01*
X174303427Y-107240004D01*
X174307802Y-107237245D01*
X175664271Y-106758390D01*
X175673212Y-106758868D01*
G37*
%TD.AperFunction*%
%TD*%
%TA.AperFunction,Conductor*%
%TO.N,I2C_SCL*%
G36*
X128173941Y-85467113D02*
G01*
X128174765Y-85467505D01*
X128550400Y-85665000D01*
X129101302Y-85954644D01*
X129107030Y-85961527D01*
X129106213Y-85970445D01*
X129101302Y-85975356D01*
X128174777Y-86462488D01*
X128165859Y-86463305D01*
X128164991Y-86462996D01*
X127677355Y-86267942D01*
X127670946Y-86261688D01*
X127670000Y-86257079D01*
X127670000Y-85672921D01*
X127673427Y-85664648D01*
X127677355Y-85662058D01*
X128164989Y-85467004D01*
X128173941Y-85467113D01*
G37*
%TD.AperFunction*%
%TD*%
%TA.AperFunction,Conductor*%
%TO.N,I2C_SDA*%
G36*
X141100458Y-84250540D02*
G01*
X141101527Y-84251481D01*
X141375707Y-84524293D01*
X141375749Y-84524335D01*
X141648518Y-84798472D01*
X141651924Y-84806753D01*
X141648476Y-84815018D01*
X141647407Y-84815959D01*
X141029599Y-85296475D01*
X141020965Y-85298850D01*
X141014143Y-85295513D01*
X140604486Y-84885856D01*
X140601059Y-84877583D01*
X140603524Y-84870400D01*
X140646599Y-84815018D01*
X141084041Y-84252591D01*
X141091824Y-84248165D01*
X141100458Y-84250540D01*
G37*
%TD.AperFunction*%
%TD*%
%TA.AperFunction,Conductor*%
%TO.N,Net-(J11-~D6)*%
G36*
X145314994Y-80411997D02*
G01*
X145802645Y-80607058D01*
X145809054Y-80613312D01*
X145810000Y-80617921D01*
X145810000Y-81202079D01*
X145806573Y-81210352D01*
X145802645Y-81212942D01*
X145315012Y-81407995D01*
X145306058Y-81407886D01*
X145305222Y-81407488D01*
X144930269Y-81210352D01*
X144378696Y-80920355D01*
X144372969Y-80913473D01*
X144373786Y-80904555D01*
X144378697Y-80899644D01*
X145305224Y-80412510D01*
X145314140Y-80411694D01*
X145314994Y-80411997D01*
G37*
%TD.AperFunction*%
%TD*%
%TA.AperFunction,Conductor*%
%TO.N,+3V3*%
G36*
X155278271Y-62369810D02*
G01*
X155703144Y-62728958D01*
X155707250Y-62736916D01*
X155704526Y-62745446D01*
X155703879Y-62746152D01*
X155431659Y-63019334D01*
X155427823Y-63021895D01*
X155073207Y-63167822D01*
X155064253Y-63167801D01*
X155057935Y-63161454D01*
X155057356Y-63159635D01*
X154878295Y-62381367D01*
X154879780Y-62372537D01*
X154887074Y-62367343D01*
X154889697Y-62367045D01*
X155270718Y-62367045D01*
X155278271Y-62369810D01*
G37*
%TD.AperFunction*%
%TD*%
%TA.AperFunction,Conductor*%
%TO.N,+3V3*%
G36*
X136258239Y-104082173D02*
G01*
X136520618Y-104342468D01*
X136744519Y-104564590D01*
X136747979Y-104572849D01*
X136747157Y-104577204D01*
X136552928Y-105067608D01*
X136546695Y-105074038D01*
X136542050Y-105075000D01*
X135957950Y-105075000D01*
X135949677Y-105071573D01*
X135947072Y-105067608D01*
X135752842Y-104577202D01*
X135752982Y-104568251D01*
X135755478Y-104564591D01*
X136241760Y-104082173D01*
X136250047Y-104078780D01*
X136258239Y-104082173D01*
G37*
%TD.AperFunction*%
%TD*%
%TA.AperFunction,Conductor*%
%TO.N,Net-(J4-Pin_2)*%
G36*
X175673212Y-88758868D02*
G01*
X175678970Y-88764934D01*
X175999134Y-89535511D01*
X175999143Y-89544466D01*
X175999134Y-89544489D01*
X175678970Y-90315065D01*
X175672631Y-90321390D01*
X175664270Y-90321609D01*
X174307805Y-89842755D01*
X174301145Y-89836769D01*
X174300000Y-89831722D01*
X174300000Y-89248277D01*
X174303427Y-89240004D01*
X174307802Y-89237245D01*
X175664271Y-88758390D01*
X175673212Y-88758868D01*
G37*
%TD.AperFunction*%
%TD*%
%TA.AperFunction,Conductor*%
%TO.N,Group head thermistor*%
G36*
X115874992Y-64616425D02*
G01*
X115880296Y-64620834D01*
X116433966Y-65469439D01*
X116435616Y-65478240D01*
X116432440Y-65484105D01*
X116021134Y-65895411D01*
X116012861Y-65898838D01*
X116007175Y-65897363D01*
X115343966Y-65528476D01*
X115338403Y-65521461D01*
X115337961Y-65517854D01*
X115361534Y-64831829D01*
X115365242Y-64823682D01*
X115368763Y-64821419D01*
X115866039Y-64616410D01*
X115874992Y-64616425D01*
G37*
%TD.AperFunction*%
%TD*%
%TA.AperFunction,Conductor*%
%TO.N,GND*%
G36*
X133370626Y-98278941D02*
G01*
X133374958Y-98286778D01*
X133375032Y-98288060D01*
X133376000Y-98675000D01*
X133376000Y-98675058D01*
X133375033Y-99061610D01*
X133371585Y-99069875D01*
X133363304Y-99073281D01*
X133361735Y-99073171D01*
X132587091Y-98966392D01*
X132579364Y-98961868D01*
X132576989Y-98954802D01*
X132576989Y-98375454D01*
X132580416Y-98367181D01*
X132587377Y-98363828D01*
X133362022Y-98276463D01*
X133370626Y-98278941D01*
G37*
%TD.AperFunction*%
%TD*%
%TA.AperFunction,Conductor*%
%TO.N,Tank level sensor*%
G36*
X107832204Y-88902966D02*
G01*
X108667756Y-89247017D01*
X108674100Y-89253335D01*
X108675000Y-89257835D01*
X108675000Y-90242164D01*
X108671573Y-90250437D01*
X108667755Y-90252983D01*
X107832207Y-90597032D01*
X107823252Y-90597013D01*
X107819485Y-90594492D01*
X106982286Y-89758276D01*
X106978855Y-89750007D01*
X106982276Y-89741733D01*
X107819486Y-88905506D01*
X107827759Y-88902086D01*
X107832204Y-88902966D01*
G37*
%TD.AperFunction*%
%TD*%
%TA.AperFunction,Conductor*%
%TO.N,+3V3*%
G36*
X157735570Y-74173977D02*
G01*
X157739950Y-74181788D01*
X157740032Y-74183140D01*
X157741000Y-74570000D01*
X157741000Y-74570058D01*
X157740033Y-74956695D01*
X157736585Y-74964960D01*
X157728304Y-74968366D01*
X157726809Y-74968266D01*
X156951171Y-74866337D01*
X156943414Y-74861862D01*
X156940995Y-74854737D01*
X156940995Y-74275391D01*
X156944422Y-74267118D01*
X156951313Y-74263773D01*
X157726952Y-74171551D01*
X157735570Y-74173977D01*
G37*
%TD.AperFunction*%
%TD*%
%TA.AperFunction,Conductor*%
%TO.N,SPI_CS*%
G36*
X138234484Y-57900863D02*
G01*
X139005065Y-58221029D01*
X139011390Y-58227368D01*
X139011609Y-58235729D01*
X138532755Y-59592195D01*
X138526769Y-59598855D01*
X138521722Y-59600000D01*
X137938278Y-59600000D01*
X137930005Y-59596573D01*
X137927245Y-59592195D01*
X137448390Y-58235729D01*
X137448868Y-58226787D01*
X137454932Y-58221030D01*
X138225511Y-57900864D01*
X138234466Y-57900856D01*
X138234484Y-57900863D01*
G37*
%TD.AperFunction*%
%TD*%
%TA.AperFunction,Conductor*%
%TO.N,Water valve control*%
G36*
X175673212Y-69298868D02*
G01*
X175678970Y-69304934D01*
X175999134Y-70075511D01*
X175999143Y-70084466D01*
X175999134Y-70084489D01*
X175678970Y-70855065D01*
X175672631Y-70861390D01*
X175664270Y-70861609D01*
X174307805Y-70382755D01*
X174301145Y-70376769D01*
X174300000Y-70371722D01*
X174300000Y-69788277D01*
X174303427Y-69780004D01*
X174307802Y-69777245D01*
X175664271Y-69298390D01*
X175673212Y-69298868D01*
G37*
%TD.AperFunction*%
%TD*%
%TA.AperFunction,Conductor*%
%TO.N,GND*%
G36*
X115092711Y-89020452D02*
G01*
X115093794Y-89021535D01*
X115259655Y-89210800D01*
X115518715Y-89506418D01*
X115521591Y-89514898D01*
X115517627Y-89522928D01*
X115510306Y-89525823D01*
X115385180Y-89529994D01*
X115384790Y-89530000D01*
X114785210Y-89530000D01*
X114784820Y-89529994D01*
X114659693Y-89525823D01*
X114651539Y-89522122D01*
X114648389Y-89513739D01*
X114651284Y-89506418D01*
X115076201Y-89021539D01*
X115084231Y-89017576D01*
X115092711Y-89020452D01*
G37*
%TD.AperFunction*%
%TD*%
%TA.AperFunction,Conductor*%
%TO.N,I2C_SDA*%
G36*
X136195340Y-95882776D02*
G01*
X136196185Y-95883621D01*
X136676601Y-96415831D01*
X136679601Y-96424269D01*
X136679153Y-96426931D01*
X136489949Y-97079060D01*
X136484352Y-97086051D01*
X136478712Y-97087500D01*
X135896288Y-97087500D01*
X135888015Y-97084073D01*
X135885051Y-97079060D01*
X135695846Y-96426931D01*
X135696832Y-96418031D01*
X135698394Y-96415836D01*
X136178815Y-95883620D01*
X136186902Y-95879776D01*
X136195340Y-95882776D01*
G37*
%TD.AperFunction*%
%TD*%
%TA.AperFunction,Conductor*%
%TO.N,+3V3*%
G36*
X155816781Y-63019966D02*
G01*
X155825044Y-63023414D01*
X155828450Y-63031695D01*
X155828360Y-63033117D01*
X155731281Y-63809751D01*
X155726854Y-63817535D01*
X155719671Y-63820000D01*
X155140329Y-63820000D01*
X155132056Y-63816573D01*
X155128719Y-63809751D01*
X155112539Y-63680312D01*
X155031639Y-63033115D01*
X155034014Y-63024483D01*
X155041798Y-63020056D01*
X155043204Y-63019966D01*
X155430000Y-63019000D01*
X155816781Y-63019966D01*
G37*
%TD.AperFunction*%
%TD*%
%TA.AperFunction,Conductor*%
%TO.N,GND*%
G36*
X156595993Y-61309222D02*
G01*
X156600817Y-61314779D01*
X156749123Y-61670498D01*
X156749144Y-61679452D01*
X156749123Y-61679502D01*
X156600874Y-62035082D01*
X156594527Y-62041400D01*
X156587023Y-62041875D01*
X155959643Y-61872336D01*
X155952550Y-61866869D01*
X155950995Y-61861041D01*
X155950995Y-61479093D01*
X155954422Y-61470820D01*
X155959806Y-61467755D01*
X156587132Y-61307943D01*
X156595993Y-61309222D01*
G37*
%TD.AperFunction*%
%TD*%
%TA.AperFunction,Conductor*%
%TO.N,5V_IN*%
G36*
X125063346Y-100923850D02*
G01*
X125725932Y-101197322D01*
X125732271Y-101203645D01*
X125732467Y-101204150D01*
X125981642Y-101891853D01*
X125981239Y-101900799D01*
X125977662Y-101905199D01*
X125002583Y-102636552D01*
X124993909Y-102638774D01*
X124987290Y-102635465D01*
X124294562Y-101942737D01*
X124291135Y-101934464D01*
X124293501Y-101927410D01*
X125049553Y-100927607D01*
X125057275Y-100923077D01*
X125063346Y-100923850D01*
G37*
%TD.AperFunction*%
%TD*%
%TA.AperFunction,Conductor*%
%TO.N,I2C_SCL*%
G36*
X140811661Y-91815927D02*
G01*
X140814732Y-91821334D01*
X140979438Y-92473265D01*
X140978142Y-92482126D01*
X140976779Y-92483971D01*
X140496185Y-93016378D01*
X140488098Y-93020223D01*
X140479660Y-93017223D01*
X140478815Y-93016378D01*
X139998575Y-92484364D01*
X139995575Y-92475926D01*
X139996141Y-92472884D01*
X140209860Y-91820556D01*
X140215692Y-91813762D01*
X140220978Y-91812500D01*
X140803388Y-91812500D01*
X140811661Y-91815927D01*
G37*
%TD.AperFunction*%
%TD*%
%TA.AperFunction,Conductor*%
%TO.N,Net-(D1-A)*%
G36*
X159656968Y-66746832D02*
G01*
X159659168Y-66748398D01*
X160191378Y-67228815D01*
X160195223Y-67236902D01*
X160192223Y-67245340D01*
X160191378Y-67246185D01*
X159659168Y-67726601D01*
X159650730Y-67729601D01*
X159648068Y-67729153D01*
X158995940Y-67539948D01*
X158988949Y-67534351D01*
X158987500Y-67528711D01*
X158987500Y-66946288D01*
X158990927Y-66938015D01*
X158995939Y-66935051D01*
X159648069Y-66745846D01*
X159656968Y-66746832D01*
G37*
%TD.AperFunction*%
%TD*%
%TA.AperFunction,Conductor*%
%TO.N,Net-(U3-VREF)*%
G36*
X116460227Y-92597108D02*
G01*
X116943263Y-92796224D01*
X116949606Y-92802545D01*
X116950500Y-92807341D01*
X116932320Y-93516671D01*
X116928682Y-93524853D01*
X116924167Y-93527522D01*
X116213444Y-93753316D01*
X116204521Y-93752555D01*
X116201628Y-93750438D01*
X116000387Y-93549197D01*
X115996960Y-93540924D01*
X115998109Y-93535868D01*
X116007309Y-93516671D01*
X116445219Y-92602868D01*
X116451884Y-92596890D01*
X116460227Y-92597108D01*
G37*
%TD.AperFunction*%
%TD*%
%TA.AperFunction,Conductor*%
%TO.N,I2C_SCL*%
G36*
X140495340Y-93032776D02*
G01*
X140496185Y-93033621D01*
X140976779Y-93566028D01*
X140979779Y-93574466D01*
X140979438Y-93576734D01*
X140814732Y-94228666D01*
X140809383Y-94235848D01*
X140803388Y-94237500D01*
X140220978Y-94237500D01*
X140212705Y-94234073D01*
X140209860Y-94229443D01*
X140209605Y-94228666D01*
X139996142Y-93577117D01*
X139996822Y-93568189D01*
X139998572Y-93565639D01*
X140478815Y-93033620D01*
X140486902Y-93029776D01*
X140495340Y-93032776D01*
G37*
%TD.AperFunction*%
%TD*%
%TA.AperFunction,Conductor*%
%TO.N,GND*%
G36*
X155083160Y-59736942D02*
G01*
X155295961Y-59944069D01*
X155299499Y-59952294D01*
X155299500Y-59952452D01*
X155299500Y-59952459D01*
X155299443Y-59953614D01*
X155276046Y-60189455D01*
X155271819Y-60197349D01*
X155264403Y-60200000D01*
X154885597Y-60200000D01*
X154877324Y-60196573D01*
X154873954Y-60189455D01*
X154850557Y-59953614D01*
X154850500Y-59952459D01*
X154850500Y-59952452D01*
X154853927Y-59944179D01*
X154853999Y-59944107D01*
X155066839Y-59736942D01*
X155075158Y-59733628D01*
X155083160Y-59736942D01*
G37*
%TD.AperFunction*%
%TD*%
%TA.AperFunction,Conductor*%
%TO.N,GND*%
G36*
X117427104Y-103618309D02*
G01*
X117942130Y-103826034D01*
X117948521Y-103832307D01*
X117948605Y-103841261D01*
X117948568Y-103841352D01*
X117801858Y-104196500D01*
X117795532Y-104202838D01*
X117795496Y-104202853D01*
X117441233Y-104348634D01*
X117432279Y-104348613D01*
X117425975Y-104342301D01*
X117214210Y-103832307D01*
X117131720Y-103633647D01*
X117131714Y-103624693D01*
X117138040Y-103618355D01*
X117142527Y-103617461D01*
X117422729Y-103617461D01*
X117427104Y-103618309D01*
G37*
%TD.AperFunction*%
%TD*%
%TA.AperFunction,Conductor*%
%TO.N,SPI_SCLK*%
G36*
X135694484Y-57900863D02*
G01*
X136465065Y-58221029D01*
X136471390Y-58227368D01*
X136471609Y-58235729D01*
X135992755Y-59592195D01*
X135986769Y-59598855D01*
X135981722Y-59600000D01*
X135398278Y-59600000D01*
X135390005Y-59596573D01*
X135387245Y-59592195D01*
X134908390Y-58235729D01*
X134908868Y-58226787D01*
X134914932Y-58221030D01*
X135685511Y-57900864D01*
X135694466Y-57900856D01*
X135694484Y-57900863D01*
G37*
%TD.AperFunction*%
%TD*%
%TA.AperFunction,Conductor*%
%TO.N,GND*%
G36*
X155922676Y-61203427D02*
G01*
X155926046Y-61210545D01*
X155949443Y-61446391D01*
X155946849Y-61454962D01*
X155945961Y-61455930D01*
X155733161Y-61663056D01*
X155724842Y-61666371D01*
X155716839Y-61663056D01*
X155504039Y-61455930D01*
X155500501Y-61447704D01*
X155500500Y-61447546D01*
X155500500Y-61447540D01*
X155500557Y-61446385D01*
X155523954Y-61210545D01*
X155528181Y-61202651D01*
X155535597Y-61200000D01*
X155914403Y-61200000D01*
X155922676Y-61203427D01*
G37*
%TD.AperFunction*%
%TD*%
%TA.AperFunction,Conductor*%
%TO.N,GND*%
G36*
X115383618Y-89015927D02*
G01*
X115386832Y-89021980D01*
X115482316Y-89516115D01*
X115480522Y-89524888D01*
X115473049Y-89529822D01*
X115470858Y-89530035D01*
X115085029Y-89530999D01*
X115084971Y-89530999D01*
X114699141Y-89530035D01*
X114690876Y-89526587D01*
X114687470Y-89518306D01*
X114687683Y-89516115D01*
X114783168Y-89021980D01*
X114788102Y-89014507D01*
X114794655Y-89012500D01*
X115375345Y-89012500D01*
X115383618Y-89015927D01*
G37*
%TD.AperFunction*%
%TD*%
%TA.AperFunction,Conductor*%
%TO.N,GND*%
G36*
X115480859Y-82299964D02*
G01*
X115489123Y-82303412D01*
X115492529Y-82311693D01*
X115492316Y-82313884D01*
X115396832Y-82808020D01*
X115391898Y-82815493D01*
X115385345Y-82817500D01*
X114804655Y-82817500D01*
X114796382Y-82814073D01*
X114793168Y-82808020D01*
X114697683Y-82313884D01*
X114699477Y-82305111D01*
X114706950Y-82300177D01*
X114709134Y-82299964D01*
X115095000Y-82299000D01*
X115480859Y-82299964D01*
G37*
%TD.AperFunction*%
%TD*%
%TA.AperFunction,Conductor*%
%TO.N,I2C_SDA*%
G36*
X135765458Y-81355540D02*
G01*
X135766527Y-81356481D01*
X136040707Y-81629293D01*
X136040749Y-81629335D01*
X136313518Y-81903472D01*
X136316924Y-81911753D01*
X136313476Y-81920018D01*
X136312407Y-81920959D01*
X135694599Y-82401475D01*
X135685965Y-82403850D01*
X135679143Y-82400513D01*
X135269486Y-81990856D01*
X135266059Y-81982583D01*
X135268524Y-81975400D01*
X135311599Y-81920018D01*
X135749041Y-81357591D01*
X135756824Y-81353165D01*
X135765458Y-81355540D01*
G37*
%TD.AperFunction*%
%TD*%
%TA.AperFunction,Conductor*%
%TO.N,Net-(D1-A)*%
G36*
X158125544Y-66757764D02*
G01*
X158749002Y-66935083D01*
X158756021Y-66940642D01*
X158757500Y-66946336D01*
X158757500Y-67528322D01*
X158754073Y-67536595D01*
X158748587Y-67539685D01*
X158125345Y-67692519D01*
X158116493Y-67691161D01*
X158114971Y-67690063D01*
X157854652Y-67468321D01*
X157579455Y-67233906D01*
X157575380Y-67225933D01*
X157578136Y-67217413D01*
X157579452Y-67216096D01*
X158114764Y-66760112D01*
X158123283Y-66757357D01*
X158125544Y-66757764D01*
G37*
%TD.AperFunction*%
%TD*%
%TA.AperFunction,Conductor*%
%TO.N,I2C_SDA*%
G36*
X136486985Y-94665927D02*
G01*
X136489949Y-94670940D01*
X136679153Y-95323068D01*
X136678167Y-95331968D01*
X136676601Y-95334168D01*
X136196185Y-95866378D01*
X136188098Y-95870223D01*
X136179660Y-95867223D01*
X136178815Y-95866378D01*
X135698398Y-95334168D01*
X135695398Y-95325730D01*
X135695845Y-95323072D01*
X135885051Y-94670939D01*
X135890648Y-94663949D01*
X135896288Y-94662500D01*
X136478712Y-94662500D01*
X136486985Y-94665927D01*
G37*
%TD.AperFunction*%
%TD*%
%TA.AperFunction,Conductor*%
%TO.N,GND*%
G36*
X133355758Y-98363014D02*
G01*
X133363127Y-98368102D01*
X133365000Y-98374453D01*
X133365000Y-98955546D01*
X133361573Y-98963819D01*
X133355758Y-98966985D01*
X132620859Y-99124895D01*
X132612050Y-99123283D01*
X132607600Y-99117953D01*
X132544740Y-98966985D01*
X132420871Y-98669495D01*
X132420855Y-98660544D01*
X132607600Y-98212045D01*
X132613944Y-98205725D01*
X132620855Y-98205104D01*
X133355758Y-98363014D01*
G37*
%TD.AperFunction*%
%TD*%
%TA.AperFunction,Conductor*%
%TO.N,+3V3*%
G36*
X117832711Y-89040452D02*
G01*
X117833794Y-89041535D01*
X117999655Y-89230800D01*
X118258715Y-89526418D01*
X118261591Y-89534898D01*
X118257627Y-89542928D01*
X118250306Y-89545823D01*
X118125180Y-89549994D01*
X118124790Y-89550000D01*
X117525210Y-89550000D01*
X117524820Y-89549994D01*
X117399693Y-89545823D01*
X117391539Y-89542122D01*
X117388389Y-89533739D01*
X117391284Y-89526418D01*
X117816201Y-89041539D01*
X117824231Y-89037576D01*
X117832711Y-89040452D01*
G37*
%TD.AperFunction*%
%TD*%
%TA.AperFunction,Conductor*%
%TO.N,Group head thermistor*%
G36*
X115661985Y-63615927D02*
G01*
X115664949Y-63620940D01*
X115854153Y-64273068D01*
X115853167Y-64281968D01*
X115851601Y-64284168D01*
X115371185Y-64816378D01*
X115363098Y-64820223D01*
X115354660Y-64817223D01*
X115353815Y-64816378D01*
X114873398Y-64284168D01*
X114870398Y-64275730D01*
X114870845Y-64273072D01*
X115060051Y-63620939D01*
X115065648Y-63613949D01*
X115071288Y-63612500D01*
X115653712Y-63612500D01*
X115661985Y-63615927D01*
G37*
%TD.AperFunction*%
%TD*%
%TA.AperFunction,Conductor*%
%TO.N,Accessory 1*%
G36*
X175406167Y-77106150D02*
G01*
X175997265Y-77695860D01*
X176000702Y-77704129D01*
X176000702Y-77704153D01*
X176000011Y-78536594D01*
X175996577Y-78544864D01*
X175988301Y-78548284D01*
X175986719Y-78548175D01*
X174706411Y-78372286D01*
X174699730Y-78368968D01*
X174287744Y-77956982D01*
X174284317Y-77948709D01*
X174287744Y-77940436D01*
X174288946Y-77939387D01*
X175390841Y-77105104D01*
X175399506Y-77102843D01*
X175406167Y-77106150D01*
G37*
%TD.AperFunction*%
%TD*%
%TA.AperFunction,Conductor*%
%TO.N,GND*%
G36*
X162866378Y-89997650D02*
G01*
X162873457Y-90003130D01*
X162875000Y-90008937D01*
X162875000Y-90589923D01*
X162871573Y-90598196D01*
X162865036Y-90601494D01*
X162388402Y-90672989D01*
X162379712Y-90670827D01*
X162375095Y-90663154D01*
X162374966Y-90661447D01*
X162374787Y-90589923D01*
X162374005Y-90277350D01*
X162374904Y-90272829D01*
X162524117Y-89914935D01*
X162530463Y-89908619D01*
X162537990Y-89908151D01*
X162866378Y-89997650D01*
G37*
%TD.AperFunction*%
%TD*%
%TA.AperFunction,Conductor*%
%TO.N,I2C_SDA*%
G36*
X133374994Y-82926997D02*
G01*
X133862645Y-83122058D01*
X133869054Y-83128312D01*
X133870000Y-83132921D01*
X133870000Y-83717079D01*
X133866573Y-83725352D01*
X133862645Y-83727942D01*
X133375012Y-83922995D01*
X133366058Y-83922886D01*
X133365222Y-83922488D01*
X132990269Y-83725352D01*
X132438696Y-83435355D01*
X132432969Y-83428473D01*
X132433786Y-83419555D01*
X132438697Y-83414644D01*
X133365224Y-82927510D01*
X133374140Y-82926694D01*
X133374994Y-82926997D01*
G37*
%TD.AperFunction*%
%TD*%
%TA.AperFunction,Conductor*%
%TO.N,I2C_SCL*%
G36*
X117157243Y-95864057D02*
G01*
X117340011Y-95939105D01*
X117421184Y-95972436D01*
X117427536Y-95978748D01*
X117427563Y-95978815D01*
X117535941Y-96242754D01*
X117535914Y-96251709D01*
X117531023Y-96257298D01*
X117114596Y-96500773D01*
X117105725Y-96501991D01*
X117100418Y-96498946D01*
X116901053Y-96299581D01*
X116897626Y-96291308D01*
X116899224Y-96285407D01*
X117142702Y-95868974D01*
X117149835Y-95863563D01*
X117157243Y-95864057D01*
G37*
%TD.AperFunction*%
%TD*%
%TA.AperFunction,Conductor*%
%TO.N,Net-(J11-D8)*%
G36*
X145314994Y-75331997D02*
G01*
X145802645Y-75527058D01*
X145809054Y-75533312D01*
X145810000Y-75537921D01*
X145810000Y-76122079D01*
X145806573Y-76130352D01*
X145802645Y-76132942D01*
X145315012Y-76327995D01*
X145306058Y-76327886D01*
X145305222Y-76327488D01*
X144930269Y-76130352D01*
X144378696Y-75840355D01*
X144372969Y-75833473D01*
X144373786Y-75824555D01*
X144378697Y-75819644D01*
X145305224Y-75332510D01*
X145314140Y-75331694D01*
X145314994Y-75331997D01*
G37*
%TD.AperFunction*%
%TD*%
%TA.AperFunction,Conductor*%
%TO.N,I2C_SCL*%
G36*
X140911568Y-89374966D02*
G01*
X140919832Y-89378414D01*
X140923238Y-89386695D01*
X140923123Y-89388300D01*
X140820646Y-90114766D01*
X140813971Y-90162090D01*
X140813920Y-90162448D01*
X140809371Y-90170162D01*
X140802335Y-90172514D01*
X140222986Y-90172514D01*
X140214713Y-90169087D01*
X140211356Y-90162090D01*
X140126420Y-89387943D01*
X140128924Y-89379345D01*
X140136774Y-89375037D01*
X140138012Y-89374967D01*
X140525000Y-89374000D01*
X140911568Y-89374966D01*
G37*
%TD.AperFunction*%
%TD*%
%TA.AperFunction,Conductor*%
%TO.N,+3V3*%
G36*
X157085825Y-73299971D02*
G01*
X157094091Y-73303414D01*
X157097501Y-73311694D01*
X157097284Y-73313912D01*
X156906846Y-74289546D01*
X156901898Y-74297010D01*
X156895363Y-74299005D01*
X156314529Y-74299005D01*
X156306256Y-74295578D01*
X156303071Y-74289673D01*
X156303045Y-74289546D01*
X156140014Y-73500796D01*
X156141695Y-73492003D01*
X156146972Y-73487630D01*
X156597833Y-73299902D01*
X156602345Y-73299004D01*
X157085825Y-73299971D01*
G37*
%TD.AperFunction*%
%TD*%
%TA.AperFunction,Conductor*%
%TO.N,GND*%
G36*
X157868727Y-69103427D02*
G01*
X157871916Y-69109351D01*
X157937617Y-69429987D01*
X157935920Y-69438780D01*
X157930657Y-69443135D01*
X157574502Y-69591623D01*
X157565548Y-69591644D01*
X157565498Y-69591623D01*
X157209342Y-69443135D01*
X157203024Y-69436788D01*
X157202382Y-69429987D01*
X157268084Y-69109351D01*
X157273102Y-69101934D01*
X157279546Y-69100000D01*
X157860454Y-69100000D01*
X157868727Y-69103427D01*
G37*
%TD.AperFunction*%
%TD*%
%TA.AperFunction,Conductor*%
%TO.N,Accessory 2*%
G36*
X175679192Y-79465546D02*
G01*
X175679537Y-79466299D01*
X175994013Y-80223183D01*
X175998844Y-80234809D01*
X175998853Y-80243764D01*
X175998846Y-80243780D01*
X175678986Y-81015008D01*
X175672652Y-81021337D01*
X175664232Y-81021540D01*
X174590754Y-80636864D01*
X174586428Y-80634123D01*
X174175488Y-80223183D01*
X174172061Y-80214910D01*
X174175488Y-80206637D01*
X174178514Y-80204453D01*
X175663492Y-79460327D01*
X175672422Y-79459685D01*
X175679192Y-79465546D01*
G37*
%TD.AperFunction*%
%TD*%
%TA.AperFunction,Conductor*%
%TO.N,GND*%
G36*
X119398010Y-73501922D02*
G01*
X119401337Y-73508671D01*
X119503266Y-74284309D01*
X119500947Y-74292958D01*
X119493190Y-74297433D01*
X119491695Y-74297533D01*
X119105029Y-74298499D01*
X119104971Y-74298499D01*
X118718140Y-74297532D01*
X118709875Y-74294084D01*
X118706469Y-74285803D01*
X118706551Y-74284451D01*
X118798773Y-73508814D01*
X118803153Y-73501003D01*
X118810391Y-73498495D01*
X119389737Y-73498495D01*
X119398010Y-73501922D01*
G37*
%TD.AperFunction*%
%TD*%
%TA.AperFunction,Conductor*%
%TO.N,5V_IN*%
G36*
X124815540Y-100821208D02*
G01*
X125726215Y-101197437D01*
X125732553Y-101203764D01*
X125732562Y-101203784D01*
X126108790Y-102114458D01*
X126108781Y-102123412D01*
X126103881Y-102129025D01*
X124677134Y-102963210D01*
X124668263Y-102964428D01*
X124662956Y-102961383D01*
X123968616Y-102267043D01*
X123965189Y-102258770D01*
X123966787Y-102252869D01*
X124800974Y-100826117D01*
X124808108Y-100820705D01*
X124815540Y-100821208D01*
G37*
%TD.AperFunction*%
%TD*%
%TA.AperFunction,Conductor*%
%TO.N,GND*%
G36*
X136763484Y-107276071D02*
G01*
X136769429Y-107281602D01*
X136988376Y-107715924D01*
X137141447Y-108019567D01*
X137142111Y-108028497D01*
X137136266Y-108035282D01*
X137130999Y-108036534D01*
X136553903Y-108036534D01*
X136546879Y-108034191D01*
X136122922Y-107715924D01*
X136118363Y-107708216D01*
X136120589Y-107699543D01*
X136121658Y-107698308D01*
X136393342Y-107425663D01*
X136397173Y-107423105D01*
X136754532Y-107276050D01*
X136763484Y-107276071D01*
G37*
%TD.AperFunction*%
%TD*%
%TA.AperFunction,Conductor*%
%TO.N,Tank LED*%
G36*
X160541985Y-106610927D02*
G01*
X160544949Y-106615940D01*
X160734153Y-107268068D01*
X160733167Y-107276968D01*
X160731601Y-107279168D01*
X160251185Y-107811378D01*
X160243098Y-107815223D01*
X160234660Y-107812223D01*
X160233815Y-107811378D01*
X159753398Y-107279168D01*
X159750398Y-107270730D01*
X159750845Y-107268072D01*
X159940051Y-106615939D01*
X159945648Y-106608949D01*
X159951288Y-106607500D01*
X160533712Y-106607500D01*
X160541985Y-106610927D01*
G37*
%TD.AperFunction*%
%TD*%
%TA.AperFunction,Conductor*%
%TO.N,SPI_SCLK*%
G36*
X130074994Y-65146997D02*
G01*
X130562645Y-65342058D01*
X130569054Y-65348312D01*
X130570000Y-65352921D01*
X130570000Y-65937079D01*
X130566573Y-65945352D01*
X130562645Y-65947942D01*
X130075012Y-66142995D01*
X130066058Y-66142886D01*
X130065222Y-66142488D01*
X129690269Y-65945352D01*
X129138696Y-65655355D01*
X129132969Y-65648473D01*
X129133786Y-65639555D01*
X129138697Y-65634644D01*
X130065224Y-65147510D01*
X130074140Y-65146694D01*
X130074994Y-65146997D01*
G37*
%TD.AperFunction*%
%TD*%
%TA.AperFunction,Conductor*%
%TO.N,GND*%
G36*
X154900001Y-103293291D02*
G01*
X154901031Y-103298091D01*
X154901031Y-103875692D01*
X154898237Y-103883279D01*
X154566047Y-104273212D01*
X154558074Y-104277288D01*
X154549554Y-104274531D01*
X154548882Y-104273913D01*
X154275665Y-104001659D01*
X154273104Y-103997823D01*
X154126237Y-103640921D01*
X154126258Y-103631969D01*
X154132256Y-103625801D01*
X154884533Y-103287420D01*
X154893482Y-103287152D01*
X154900001Y-103293291D01*
G37*
%TD.AperFunction*%
%TD*%
%TA.AperFunction,Conductor*%
%TO.N,+3V3*%
G36*
X138653777Y-92722705D02*
G01*
X138660906Y-92728124D01*
X138662500Y-92734020D01*
X138662500Y-93314887D01*
X138659073Y-93323160D01*
X138652494Y-93326464D01*
X138163360Y-93398044D01*
X138154678Y-93395851D01*
X138150089Y-93388161D01*
X138149966Y-93386496D01*
X138149787Y-93314887D01*
X138149005Y-93002350D01*
X138149904Y-92997829D01*
X138299152Y-92639851D01*
X138305498Y-92633535D01*
X138312926Y-92633040D01*
X138653777Y-92722705D01*
G37*
%TD.AperFunction*%
%TD*%
%TA.AperFunction,Conductor*%
%TO.N,GND*%
G36*
X136610697Y-101824381D02*
G01*
X136617014Y-101830727D01*
X136617666Y-101837479D01*
X136551885Y-102165600D01*
X136546899Y-102173038D01*
X136540413Y-102175000D01*
X135959587Y-102175000D01*
X135951314Y-102171573D01*
X135948115Y-102165600D01*
X135882333Y-101837477D01*
X135884067Y-101828694D01*
X135889300Y-101824382D01*
X136245500Y-101675875D01*
X136254449Y-101675855D01*
X136610697Y-101824381D01*
G37*
%TD.AperFunction*%
%TD*%
%TA.AperFunction,Conductor*%
%TO.N,+3V3*%
G36*
X156612167Y-73299902D02*
G01*
X157063024Y-73487629D01*
X157069345Y-73493973D01*
X157069985Y-73500798D01*
X156906929Y-74289673D01*
X156901898Y-74297082D01*
X156895471Y-74299005D01*
X156314637Y-74299005D01*
X156306364Y-74295578D01*
X156303154Y-74289546D01*
X156229459Y-73912004D01*
X156112715Y-73313910D01*
X156114493Y-73305136D01*
X156121957Y-73300188D01*
X156124168Y-73299971D01*
X156607653Y-73299004D01*
X156612167Y-73299902D01*
G37*
%TD.AperFunction*%
%TD*%
%TA.AperFunction,Conductor*%
%TO.N,I2C_SCL*%
G36*
X153838106Y-93026638D02*
G01*
X154614752Y-93123719D01*
X154622535Y-93128145D01*
X154625000Y-93135328D01*
X154625000Y-93714671D01*
X154621573Y-93722944D01*
X154614751Y-93726281D01*
X153838117Y-93823360D01*
X153829483Y-93820985D01*
X153825056Y-93813201D01*
X153824966Y-93811794D01*
X153824000Y-93425000D01*
X153824966Y-93038217D01*
X153828414Y-93029955D01*
X153836695Y-93026549D01*
X153838106Y-93026638D01*
G37*
%TD.AperFunction*%
%TD*%
%TA.AperFunction,Conductor*%
%TO.N,I2C_SCL*%
G36*
X136313356Y-85204486D02*
G01*
X136723013Y-85614143D01*
X136726440Y-85622416D01*
X136723975Y-85629599D01*
X136243459Y-86247407D01*
X136235675Y-86251834D01*
X136227041Y-86249459D01*
X136225972Y-86248518D01*
X135951793Y-85975707D01*
X135951751Y-85975665D01*
X135678981Y-85701527D01*
X135675575Y-85693246D01*
X135679023Y-85684981D01*
X135680083Y-85684047D01*
X136297900Y-85203523D01*
X136306534Y-85201149D01*
X136313356Y-85204486D01*
G37*
%TD.AperFunction*%
%TD*%
%TA.AperFunction,Conductor*%
%TO.N,SPI_MOSI*%
G36*
X146713941Y-67712113D02*
G01*
X146714765Y-67712505D01*
X147090400Y-67910000D01*
X147641302Y-68199644D01*
X147647030Y-68206527D01*
X147646213Y-68215445D01*
X147641302Y-68220356D01*
X146714777Y-68707488D01*
X146705859Y-68708305D01*
X146704991Y-68707996D01*
X146217355Y-68512942D01*
X146210946Y-68506688D01*
X146210000Y-68502079D01*
X146210000Y-67917921D01*
X146213427Y-67909648D01*
X146217355Y-67907058D01*
X146704989Y-67712004D01*
X146713941Y-67712113D01*
G37*
%TD.AperFunction*%
%TD*%
%TA.AperFunction,Conductor*%
%TO.N,SPI_MISO*%
G36*
X144660352Y-64673427D02*
G01*
X144662942Y-64677355D01*
X144857137Y-65162844D01*
X144857028Y-65171798D01*
X144854555Y-65175454D01*
X144368281Y-65662702D01*
X144360012Y-65666137D01*
X144351735Y-65662718D01*
X144351719Y-65662702D01*
X143865444Y-65175454D01*
X143862025Y-65167177D01*
X143862862Y-65162844D01*
X144057058Y-64677355D01*
X144063312Y-64670946D01*
X144067921Y-64670000D01*
X144652079Y-64670000D01*
X144660352Y-64673427D01*
G37*
%TD.AperFunction*%
%TD*%
%TA.AperFunction,Conductor*%
%TO.N,+3V3*%
G36*
X116425209Y-103433400D02*
G01*
X116427870Y-103437508D01*
X116665514Y-104061328D01*
X116665256Y-104070279D01*
X116659082Y-104076292D01*
X116304502Y-104224123D01*
X116295548Y-104224144D01*
X116295498Y-104224123D01*
X115940210Y-104075997D01*
X115933892Y-104069650D01*
X115933515Y-104061806D01*
X116122482Y-103438279D01*
X116128161Y-103431356D01*
X116133679Y-103429973D01*
X116416936Y-103429973D01*
X116425209Y-103433400D01*
G37*
%TD.AperFunction*%
%TD*%
%TA.AperFunction,Conductor*%
%TO.N,I{slash}O interrupt*%
G36*
X145314994Y-90571997D02*
G01*
X145802645Y-90767058D01*
X145809054Y-90773312D01*
X145810000Y-90777921D01*
X145810000Y-91362079D01*
X145806573Y-91370352D01*
X145802645Y-91372942D01*
X145315012Y-91567995D01*
X145306058Y-91567886D01*
X145305222Y-91567488D01*
X144930269Y-91370352D01*
X144378696Y-91080355D01*
X144372969Y-91073473D01*
X144373786Y-91064555D01*
X144378697Y-91059644D01*
X145305224Y-90572510D01*
X145314140Y-90571694D01*
X145314994Y-90571997D01*
G37*
%TD.AperFunction*%
%TD*%
%TA.AperFunction,Conductor*%
%TO.N,+3V3*%
G36*
X164782532Y-90308220D02*
G01*
X164783953Y-90309641D01*
X165252003Y-90865957D01*
X165254707Y-90874493D01*
X165254327Y-90876608D01*
X165077373Y-91516419D01*
X165071864Y-91523479D01*
X165066096Y-91525000D01*
X164483904Y-91525000D01*
X164475631Y-91521573D01*
X164472627Y-91516419D01*
X164295672Y-90876608D01*
X164296770Y-90867721D01*
X164297996Y-90865957D01*
X164766047Y-90309641D01*
X164773996Y-90305516D01*
X164782532Y-90308220D01*
G37*
%TD.AperFunction*%
%TD*%
%TA.AperFunction,Conductor*%
%TO.N,Net-(J11-D4)*%
G36*
X145314994Y-85491997D02*
G01*
X145802645Y-85687058D01*
X145809054Y-85693312D01*
X145810000Y-85697921D01*
X145810000Y-86282079D01*
X145806573Y-86290352D01*
X145802645Y-86292942D01*
X145315012Y-86487995D01*
X145306058Y-86487886D01*
X145305222Y-86487488D01*
X144930269Y-86290352D01*
X144378696Y-86000355D01*
X144372969Y-85993473D01*
X144373786Y-85984555D01*
X144378697Y-85979644D01*
X145305224Y-85492510D01*
X145314140Y-85491694D01*
X145314994Y-85491997D01*
G37*
%TD.AperFunction*%
%TD*%
%TA.AperFunction,Conductor*%
%TO.N,GND*%
G36*
X157577986Y-69107590D02*
G01*
X157578551Y-69108155D01*
X158008639Y-69568645D01*
X158011781Y-69577030D01*
X158008074Y-69585182D01*
X158000462Y-69588325D01*
X157870188Y-69592494D01*
X157869814Y-69592500D01*
X157270186Y-69592500D01*
X157269812Y-69592494D01*
X157139537Y-69588325D01*
X157131377Y-69584635D01*
X157128217Y-69576257D01*
X157131360Y-69568645D01*
X157561449Y-69108155D01*
X157569601Y-69104448D01*
X157577986Y-69107590D01*
G37*
%TD.AperFunction*%
%TD*%
%TA.AperFunction,Conductor*%
%TO.N,I2C_SCL*%
G36*
X139361781Y-70999966D02*
G01*
X139370044Y-71003414D01*
X139373450Y-71011695D01*
X139373360Y-71013117D01*
X139276281Y-71789751D01*
X139271854Y-71797535D01*
X139264671Y-71800000D01*
X138685329Y-71800000D01*
X138677056Y-71796573D01*
X138673719Y-71789751D01*
X138657539Y-71660312D01*
X138576639Y-71013115D01*
X138579014Y-71004483D01*
X138586798Y-71000056D01*
X138588204Y-70999966D01*
X138975000Y-70999000D01*
X139361781Y-70999966D01*
G37*
%TD.AperFunction*%
%TD*%
%TA.AperFunction,Conductor*%
%TO.N,Pump control*%
G36*
X107310906Y-95679622D02*
G01*
X107311325Y-95679806D01*
X108668208Y-96306861D01*
X108674281Y-96313443D01*
X108675000Y-96317482D01*
X108675000Y-96602517D01*
X108671573Y-96610790D01*
X108668208Y-96613138D01*
X107311325Y-97240193D01*
X107302378Y-97240553D01*
X107295796Y-97234480D01*
X107295612Y-97234061D01*
X106975865Y-96464489D01*
X106975856Y-96455534D01*
X106975865Y-96455511D01*
X107033214Y-96317482D01*
X107295613Y-95685936D01*
X107301951Y-95679613D01*
X107310906Y-95679622D01*
G37*
%TD.AperFunction*%
%TD*%
%TA.AperFunction,Conductor*%
%TO.N,+3V3*%
G36*
X136540018Y-105046523D02*
G01*
X136540959Y-105047592D01*
X137021475Y-105665400D01*
X137023850Y-105674034D01*
X137020513Y-105680856D01*
X136610856Y-106090513D01*
X136602583Y-106093940D01*
X136595400Y-106091475D01*
X135977592Y-105610959D01*
X135973165Y-105603175D01*
X135975540Y-105594541D01*
X135976481Y-105593472D01*
X136249251Y-105319335D01*
X136249293Y-105319293D01*
X136523472Y-105046480D01*
X136531753Y-105043075D01*
X136540018Y-105046523D01*
G37*
%TD.AperFunction*%
%TD*%
%TA.AperFunction,Conductor*%
%TO.N,Net-(D1-A)*%
G36*
X158573099Y-66935617D02*
G01*
X158580537Y-66940600D01*
X158582500Y-66947088D01*
X158582500Y-67527911D01*
X158579073Y-67536184D01*
X158573097Y-67539383D01*
X157783251Y-67697555D01*
X157774466Y-67695820D01*
X157770153Y-67690580D01*
X157583372Y-67241997D01*
X157583355Y-67233044D01*
X157770153Y-66784418D01*
X157776497Y-66778098D01*
X157783250Y-66777444D01*
X158573099Y-66935617D01*
G37*
%TD.AperFunction*%
%TD*%
%TA.AperFunction,Conductor*%
%TO.N,Coffee boiler control*%
G36*
X166294489Y-62520865D02*
G01*
X167064597Y-62840835D01*
X167070922Y-62847174D01*
X167070956Y-62856024D01*
X166527956Y-64199755D01*
X166521679Y-64206141D01*
X166517108Y-64207071D01*
X165933634Y-64207071D01*
X165925361Y-64203644D01*
X165922454Y-64198821D01*
X165507841Y-62855451D01*
X165508676Y-62846536D01*
X165514530Y-62841197D01*
X166285511Y-62520864D01*
X166294466Y-62520856D01*
X166294489Y-62520865D01*
G37*
%TD.AperFunction*%
%TD*%
%TA.AperFunction,Conductor*%
%TO.N,Alarm LED*%
G36*
X150879837Y-107160442D02*
G01*
X151390191Y-107367041D01*
X151396573Y-107373321D01*
X151397500Y-107377885D01*
X151397500Y-107962114D01*
X151394073Y-107970387D01*
X151390190Y-107972959D01*
X150879839Y-108179556D01*
X150870885Y-108179484D01*
X150867083Y-108176890D01*
X150657098Y-107962114D01*
X150379495Y-107678178D01*
X150376163Y-107669868D01*
X150379495Y-107661821D01*
X150867084Y-107163108D01*
X150875317Y-107159589D01*
X150879837Y-107160442D01*
G37*
%TD.AperFunction*%
%TD*%
%TA.AperFunction,Conductor*%
%TO.N,+3V3*%
G36*
X121939369Y-75778427D02*
G01*
X121942373Y-75783581D01*
X122119327Y-76423391D01*
X122118229Y-76432278D01*
X122117003Y-76434042D01*
X121648953Y-76990358D01*
X121641004Y-76994483D01*
X121632468Y-76991779D01*
X121631047Y-76990358D01*
X121162996Y-76434042D01*
X121160292Y-76425506D01*
X121160672Y-76423391D01*
X121337627Y-75783581D01*
X121343136Y-75776521D01*
X121348904Y-75775000D01*
X121931096Y-75775000D01*
X121939369Y-75778427D01*
G37*
%TD.AperFunction*%
%TD*%
%TA.AperFunction,Conductor*%
%TO.N,+3V3*%
G36*
X122021859Y-74287467D02*
G01*
X122030124Y-74290915D01*
X122033530Y-74299196D01*
X122033448Y-74300548D01*
X121941227Y-75076186D01*
X121936848Y-75083997D01*
X121929609Y-75086505D01*
X121350263Y-75086505D01*
X121341990Y-75083078D01*
X121338663Y-75076329D01*
X121236733Y-74300690D01*
X121239052Y-74292041D01*
X121246809Y-74287566D01*
X121248292Y-74287466D01*
X121635000Y-74286500D01*
X122021859Y-74287467D01*
G37*
%TD.AperFunction*%
%TD*%
%TA.AperFunction,Conductor*%
%TO.N,I2C_SCL*%
G36*
X135948126Y-85578941D02*
G01*
X135952458Y-85586778D01*
X135952532Y-85588060D01*
X135953500Y-85975000D01*
X135953500Y-85975058D01*
X135952533Y-86361610D01*
X135949085Y-86369875D01*
X135940804Y-86373281D01*
X135939235Y-86373171D01*
X135164591Y-86266392D01*
X135156864Y-86261868D01*
X135154489Y-86254802D01*
X135154489Y-85675454D01*
X135157916Y-85667181D01*
X135164877Y-85663828D01*
X135939522Y-85576463D01*
X135948126Y-85578941D01*
G37*
%TD.AperFunction*%
%TD*%
%TA.AperFunction,Conductor*%
%TO.N,+3V3*%
G36*
X136547944Y-104523427D02*
G01*
X136551281Y-104530249D01*
X136648360Y-105306882D01*
X136645985Y-105315516D01*
X136638201Y-105319943D01*
X136636779Y-105320033D01*
X136250029Y-105320999D01*
X136249971Y-105320999D01*
X135863220Y-105320033D01*
X135854955Y-105316585D01*
X135851549Y-105308304D01*
X135851638Y-105306894D01*
X135948719Y-104530249D01*
X135953146Y-104522465D01*
X135960329Y-104520000D01*
X136539671Y-104520000D01*
X136547944Y-104523427D01*
G37*
%TD.AperFunction*%
%TD*%
%TA.AperFunction,Conductor*%
%TO.N,I2C_SDA*%
G36*
X153724244Y-63318427D02*
G01*
X153727289Y-63323734D01*
X153891971Y-63952079D01*
X153890753Y-63960950D01*
X153885155Y-63965844D01*
X153529502Y-64114123D01*
X153520548Y-64114144D01*
X153520498Y-64114123D01*
X153164844Y-63965844D01*
X153158526Y-63959497D01*
X153158028Y-63952082D01*
X153322711Y-63323734D01*
X153328124Y-63316600D01*
X153334029Y-63315000D01*
X153715971Y-63315000D01*
X153724244Y-63318427D01*
G37*
%TD.AperFunction*%
%TD*%
%TA.AperFunction,Conductor*%
%TO.N,Net-(J4-Pin_2)*%
G36*
X168001236Y-88616102D02*
G01*
X168003476Y-88618966D01*
X168297680Y-89147905D01*
X168372363Y-89282174D01*
X168373389Y-89291070D01*
X168370411Y-89296134D01*
X167959105Y-89707440D01*
X167950832Y-89710867D01*
X167944439Y-89708966D01*
X167095834Y-89155296D01*
X167090778Y-89147905D01*
X167091409Y-89141040D01*
X167296418Y-88643765D01*
X167302739Y-88637424D01*
X167306826Y-88636534D01*
X167992851Y-88612961D01*
X168001236Y-88616102D01*
G37*
%TD.AperFunction*%
%TD*%
%TA.AperFunction,Conductor*%
%TO.N,Brew lights*%
G36*
X166433392Y-85704694D02*
G01*
X167301761Y-86188684D01*
X167492562Y-86295028D01*
X167498120Y-86302049D01*
X167497762Y-86309510D01*
X167303691Y-86805619D01*
X167297486Y-86812076D01*
X167293630Y-86813027D01*
X166609139Y-86862004D01*
X166600642Y-86859177D01*
X166597175Y-86853944D01*
X166416569Y-86296758D01*
X166415999Y-86293150D01*
X166415999Y-85714915D01*
X166419426Y-85706642D01*
X166427699Y-85703215D01*
X166433392Y-85704694D01*
G37*
%TD.AperFunction*%
%TD*%
%TA.AperFunction,Conductor*%
%TO.N,I2C_SCL*%
G36*
X150465193Y-61467755D02*
G01*
X150472364Y-61473118D01*
X150474005Y-61479093D01*
X150474005Y-61861041D01*
X150470578Y-61869314D01*
X150465357Y-61872336D01*
X149837976Y-62041875D01*
X149829096Y-62040725D01*
X149824125Y-62035082D01*
X149751564Y-61861041D01*
X149675875Y-61679499D01*
X149675855Y-61670550D01*
X149824183Y-61314777D01*
X149830529Y-61308461D01*
X149837867Y-61307943D01*
X150465193Y-61467755D01*
G37*
%TD.AperFunction*%
%TD*%
%TA.AperFunction,Conductor*%
%TO.N,Water pump control*%
G36*
X175673212Y-74378868D02*
G01*
X175678970Y-74384934D01*
X175999134Y-75155511D01*
X175999143Y-75164466D01*
X175999134Y-75164489D01*
X175678970Y-75935065D01*
X175672631Y-75941390D01*
X175664270Y-75941609D01*
X174307805Y-75462755D01*
X174301145Y-75456769D01*
X174300000Y-75451722D01*
X174300000Y-74868277D01*
X174303427Y-74860004D01*
X174307802Y-74857245D01*
X175664271Y-74378390D01*
X175673212Y-74378868D01*
G37*
%TD.AperFunction*%
%TD*%
%TA.AperFunction,Conductor*%
%TO.N,SPI_MISO*%
G36*
X143977508Y-58176428D02*
G01*
X144085817Y-58221349D01*
X144092146Y-58227683D01*
X144092634Y-58235192D01*
X143816393Y-59263293D01*
X143813367Y-59268530D01*
X143401982Y-59679915D01*
X143393709Y-59683342D01*
X143385436Y-59679915D01*
X143383640Y-59677600D01*
X142531557Y-58236873D01*
X142530297Y-58228009D01*
X142535673Y-58220847D01*
X142537140Y-58220113D01*
X143304811Y-57901154D01*
X143313760Y-57901146D01*
X143977508Y-58176428D01*
G37*
%TD.AperFunction*%
%TD*%
%TA.AperFunction,Conductor*%
%TO.N,Brew button*%
G36*
X166259995Y-110528427D02*
G01*
X166262755Y-110532805D01*
X166741609Y-111889270D01*
X166741131Y-111898212D01*
X166735065Y-111903970D01*
X165964489Y-112224134D01*
X165955534Y-112224143D01*
X165955511Y-112224134D01*
X165184934Y-111903970D01*
X165178609Y-111897631D01*
X165178390Y-111889271D01*
X165657245Y-110532805D01*
X165663231Y-110526145D01*
X165668278Y-110525000D01*
X166251722Y-110525000D01*
X166259995Y-110528427D01*
G37*
%TD.AperFunction*%
%TD*%
%TA.AperFunction,Conductor*%
%TO.N,+3V3*%
G36*
X154622676Y-59263427D02*
G01*
X154626046Y-59270545D01*
X154649443Y-59506385D01*
X154649500Y-59507540D01*
X154649500Y-59507546D01*
X154646073Y-59515819D01*
X154645961Y-59515930D01*
X154433161Y-59723056D01*
X154424842Y-59726371D01*
X154416839Y-59723056D01*
X154204039Y-59515930D01*
X154200501Y-59507704D01*
X154200500Y-59507546D01*
X154200500Y-59507540D01*
X154200557Y-59506385D01*
X154223954Y-59270545D01*
X154228181Y-59262651D01*
X154235597Y-59260000D01*
X154614403Y-59260000D01*
X154622676Y-59263427D01*
G37*
%TD.AperFunction*%
%TD*%
%TA.AperFunction,Conductor*%
%TO.N,I2C_SDA*%
G36*
X124445516Y-72729014D02*
G01*
X124449943Y-72736798D01*
X124450033Y-72738220D01*
X124451000Y-73125000D01*
X124451000Y-73125058D01*
X124450033Y-73511779D01*
X124446585Y-73520044D01*
X124438304Y-73523450D01*
X124436882Y-73523360D01*
X123660249Y-73426281D01*
X123652465Y-73421854D01*
X123650000Y-73414671D01*
X123650000Y-72835328D01*
X123653427Y-72827055D01*
X123660246Y-72823719D01*
X124436883Y-72726639D01*
X124445516Y-72729014D01*
G37*
%TD.AperFunction*%
%TD*%
%TA.AperFunction,Conductor*%
%TO.N,I2C_SCL*%
G36*
X130074994Y-85466997D02*
G01*
X130562645Y-85662058D01*
X130569054Y-85668312D01*
X130570000Y-85672921D01*
X130570000Y-86257079D01*
X130566573Y-86265352D01*
X130562645Y-86267942D01*
X130075012Y-86462995D01*
X130066058Y-86462886D01*
X130065222Y-86462488D01*
X129690269Y-86265352D01*
X129138696Y-85975355D01*
X129132969Y-85968473D01*
X129133786Y-85959555D01*
X129138697Y-85954644D01*
X130065224Y-85467510D01*
X130074140Y-85466694D01*
X130074994Y-85466997D01*
G37*
%TD.AperFunction*%
%TD*%
%TA.AperFunction,Conductor*%
%TO.N,GND*%
G36*
X115681696Y-67027466D02*
G01*
X115689960Y-67030914D01*
X115693366Y-67039195D01*
X115693266Y-67040690D01*
X115591337Y-67816329D01*
X115586862Y-67824086D01*
X115579737Y-67826505D01*
X115000391Y-67826505D01*
X114992118Y-67823078D01*
X114988773Y-67816186D01*
X114896551Y-67040548D01*
X114898977Y-67031928D01*
X114906788Y-67027549D01*
X114908137Y-67027467D01*
X115295000Y-67026500D01*
X115681696Y-67027466D01*
G37*
%TD.AperFunction*%
%TD*%
%TA.AperFunction,Conductor*%
%TO.N,GND*%
G36*
X116857882Y-73481922D02*
G01*
X116861227Y-73488814D01*
X116953448Y-74264451D01*
X116951022Y-74273071D01*
X116943211Y-74277450D01*
X116941859Y-74277532D01*
X116555029Y-74278499D01*
X116554971Y-74278499D01*
X116168304Y-74277533D01*
X116160039Y-74274085D01*
X116156633Y-74265804D01*
X116156733Y-74264309D01*
X116258663Y-73488671D01*
X116263138Y-73480914D01*
X116270263Y-73478495D01*
X116849609Y-73478495D01*
X116857882Y-73481922D01*
G37*
%TD.AperFunction*%
%TD*%
%TA.AperFunction,Conductor*%
%TO.N,I2C_SDA*%
G36*
X154433160Y-61676942D02*
G01*
X154645961Y-61884069D01*
X154649499Y-61892294D01*
X154649500Y-61892452D01*
X154649500Y-61892459D01*
X154649443Y-61893614D01*
X154626046Y-62129455D01*
X154621819Y-62137349D01*
X154614403Y-62140000D01*
X154235597Y-62140000D01*
X154227324Y-62136573D01*
X154223954Y-62129455D01*
X154200557Y-61893614D01*
X154200500Y-61892459D01*
X154200500Y-61892452D01*
X154203927Y-61884179D01*
X154203999Y-61884107D01*
X154416839Y-61676942D01*
X154425158Y-61673628D01*
X154433160Y-61676942D01*
G37*
%TD.AperFunction*%
%TD*%
%TA.AperFunction,Conductor*%
%TO.N,+3V3*%
G36*
X118123618Y-89035927D02*
G01*
X118126832Y-89041980D01*
X118222316Y-89536115D01*
X118220522Y-89544888D01*
X118213049Y-89549822D01*
X118210858Y-89550035D01*
X117825029Y-89550999D01*
X117824971Y-89550999D01*
X117439141Y-89550035D01*
X117430876Y-89546587D01*
X117427470Y-89538306D01*
X117427683Y-89536115D01*
X117523168Y-89041980D01*
X117528102Y-89034507D01*
X117534655Y-89032500D01*
X118115345Y-89032500D01*
X118123618Y-89035927D01*
G37*
%TD.AperFunction*%
%TD*%
%TA.AperFunction,Conductor*%
%TO.N,+3V3*%
G36*
X155954192Y-59505616D02*
G01*
X156164585Y-59528849D01*
X156172431Y-59533163D01*
X156175000Y-59540478D01*
X156175000Y-59919521D01*
X156171573Y-59927794D01*
X156164584Y-59931150D01*
X155954198Y-59954382D01*
X155945599Y-59951884D01*
X155944634Y-59951019D01*
X155913191Y-59919521D01*
X155732250Y-59738264D01*
X155728831Y-59729990D01*
X155732250Y-59721735D01*
X155944635Y-59508979D01*
X155952904Y-59505546D01*
X155954192Y-59505616D01*
G37*
%TD.AperFunction*%
%TD*%
%TA.AperFunction,Conductor*%
%TO.N,+3V3*%
G36*
X121937882Y-73491922D02*
G01*
X121941227Y-73498814D01*
X122033448Y-74274451D01*
X122031022Y-74283071D01*
X122023211Y-74287450D01*
X122021859Y-74287532D01*
X121635029Y-74288499D01*
X121634971Y-74288499D01*
X121248304Y-74287533D01*
X121240039Y-74284085D01*
X121236633Y-74275804D01*
X121236733Y-74274309D01*
X121338663Y-73498671D01*
X121343138Y-73490914D01*
X121350263Y-73488495D01*
X121929609Y-73488495D01*
X121937882Y-73491922D01*
G37*
%TD.AperFunction*%
%TD*%
%TA.AperFunction,Conductor*%
%TO.N,Boiler level sensor*%
G36*
X108665677Y-86708065D02*
G01*
X108673082Y-86713102D01*
X108675000Y-86719521D01*
X108675000Y-87700478D01*
X108671573Y-87708751D01*
X108665677Y-87711934D01*
X107309751Y-87993332D01*
X107300955Y-87991658D01*
X107296569Y-87986365D01*
X106975865Y-87214489D01*
X106975856Y-87205534D01*
X106975865Y-87205511D01*
X107296570Y-86433632D01*
X107302908Y-86427309D01*
X107309749Y-86426667D01*
X108665677Y-86708065D01*
G37*
%TD.AperFunction*%
%TD*%
%TA.AperFunction,Conductor*%
%TO.N,+3V3*%
G36*
X156745570Y-99378977D02*
G01*
X156749950Y-99386788D01*
X156750032Y-99388140D01*
X156751000Y-99775000D01*
X156751000Y-99775058D01*
X156750033Y-100161695D01*
X156746585Y-100169960D01*
X156738304Y-100173366D01*
X156736809Y-100173266D01*
X155961171Y-100071337D01*
X155953414Y-100066862D01*
X155950995Y-100059737D01*
X155950995Y-99480391D01*
X155954422Y-99472118D01*
X155961313Y-99468773D01*
X156736952Y-99376551D01*
X156745570Y-99378977D01*
G37*
%TD.AperFunction*%
%TD*%
%TA.AperFunction,Conductor*%
%TO.N,GND*%
G36*
X115395180Y-82300006D02*
G01*
X115520308Y-82304176D01*
X115528460Y-82307877D01*
X115531610Y-82316260D01*
X115528715Y-82323581D01*
X115103799Y-82808459D01*
X115095769Y-82812423D01*
X115087289Y-82809547D01*
X115086201Y-82808459D01*
X114661284Y-82323581D01*
X114658408Y-82315101D01*
X114662372Y-82307071D01*
X114669690Y-82304176D01*
X114794820Y-82300006D01*
X114795210Y-82300000D01*
X115394790Y-82300000D01*
X115395180Y-82300006D01*
G37*
%TD.AperFunction*%
%TD*%
%TA.AperFunction,Conductor*%
%TO.N,Net-(J15-Pin_2)*%
G36*
X175648212Y-97758868D02*
G01*
X175653970Y-97764934D01*
X175974134Y-98535511D01*
X175974143Y-98544466D01*
X175974134Y-98544489D01*
X175653970Y-99315065D01*
X175647631Y-99321390D01*
X175639270Y-99321609D01*
X174282805Y-98842755D01*
X174276145Y-98836769D01*
X174275000Y-98831722D01*
X174275000Y-98248277D01*
X174278427Y-98240004D01*
X174282802Y-98237245D01*
X175639271Y-97758390D01*
X175648212Y-97758868D01*
G37*
%TD.AperFunction*%
%TD*%
%TA.AperFunction,Conductor*%
%TO.N,Fill valve control*%
G36*
X175673212Y-71838868D02*
G01*
X175678970Y-71844934D01*
X175999134Y-72615511D01*
X175999143Y-72624466D01*
X175999134Y-72624489D01*
X175678970Y-73395065D01*
X175672631Y-73401390D01*
X175664270Y-73401609D01*
X174307805Y-72922755D01*
X174301145Y-72916769D01*
X174300000Y-72911722D01*
X174300000Y-72328277D01*
X174303427Y-72320004D01*
X174307802Y-72317245D01*
X175664271Y-71838390D01*
X175673212Y-71838868D01*
G37*
%TD.AperFunction*%
%TD*%
%TA.AperFunction,Conductor*%
%TO.N,I2C_SDA*%
G36*
X157595516Y-94279014D02*
G01*
X157599943Y-94286798D01*
X157600033Y-94288220D01*
X157601000Y-94675000D01*
X157601000Y-94675058D01*
X157600033Y-95061779D01*
X157596585Y-95070044D01*
X157588304Y-95073450D01*
X157586882Y-95073360D01*
X156810249Y-94976281D01*
X156802465Y-94971854D01*
X156800000Y-94964671D01*
X156800000Y-94385328D01*
X156803427Y-94377055D01*
X156810246Y-94373719D01*
X157586883Y-94276639D01*
X157595516Y-94279014D01*
G37*
%TD.AperFunction*%
%TD*%
%TA.AperFunction,Conductor*%
%TO.N,Steam boiler control*%
G36*
X175673212Y-66758868D02*
G01*
X175678970Y-66764934D01*
X175999134Y-67535511D01*
X175999143Y-67544466D01*
X175999134Y-67544489D01*
X175678970Y-68315065D01*
X175672631Y-68321390D01*
X175664270Y-68321609D01*
X174307805Y-67842755D01*
X174301145Y-67836769D01*
X174300000Y-67831722D01*
X174300000Y-67248277D01*
X174303427Y-67240004D01*
X174307802Y-67237245D01*
X175664271Y-66758390D01*
X175673212Y-66758868D01*
G37*
%TD.AperFunction*%
%TD*%
%TA.AperFunction,Conductor*%
%TO.N,Dial potentiometer*%
G36*
X108667196Y-67882245D02*
G01*
X108673855Y-67888230D01*
X108675000Y-67893277D01*
X108675000Y-68476722D01*
X108671573Y-68484995D01*
X108667195Y-68487755D01*
X107310729Y-68966609D01*
X107301787Y-68966131D01*
X107296029Y-68960065D01*
X107095206Y-68476722D01*
X106975864Y-68189488D01*
X106975856Y-68180534D01*
X106975865Y-68180511D01*
X107099791Y-67882244D01*
X107296030Y-67409932D01*
X107302368Y-67403609D01*
X107310728Y-67403390D01*
X108667196Y-67882245D01*
G37*
%TD.AperFunction*%
%TD*%
%TA.AperFunction,Conductor*%
%TO.N,+3V3*%
G36*
X156620903Y-59359274D02*
G01*
X156625874Y-59364917D01*
X156774123Y-59720498D01*
X156774144Y-59729452D01*
X156774123Y-59729502D01*
X156625817Y-60085220D01*
X156619470Y-60091538D01*
X156612130Y-60092056D01*
X155984807Y-59932244D01*
X155977636Y-59926881D01*
X155975995Y-59920906D01*
X155975995Y-59538958D01*
X155979422Y-59530685D01*
X155984643Y-59527663D01*
X156612023Y-59358124D01*
X156620903Y-59359274D01*
G37*
%TD.AperFunction*%
%TD*%
%TA.AperFunction,Conductor*%
%TO.N,Net-(J2-Pin_2)*%
G36*
X156458752Y-110528427D02*
G01*
X156461935Y-110534323D01*
X156743332Y-111890248D01*
X156741658Y-111899044D01*
X156736365Y-111903430D01*
X155964489Y-112224134D01*
X155955534Y-112224143D01*
X155955511Y-112224134D01*
X155183634Y-111903430D01*
X155177309Y-111897091D01*
X155176667Y-111890249D01*
X155458065Y-110534322D01*
X155463102Y-110526918D01*
X155469521Y-110525000D01*
X156450479Y-110525000D01*
X156458752Y-110528427D01*
G37*
%TD.AperFunction*%
%TD*%
%TA.AperFunction,Conductor*%
%TO.N,Tachometer*%
G36*
X128188041Y-90651550D02*
G01*
X128963686Y-90743773D01*
X128971497Y-90748152D01*
X128974005Y-90755391D01*
X128974005Y-91334737D01*
X128970578Y-91343010D01*
X128963829Y-91346337D01*
X128188190Y-91448266D01*
X128179541Y-91445947D01*
X128175066Y-91438190D01*
X128174966Y-91436706D01*
X128174000Y-91050000D01*
X128174967Y-90663139D01*
X128178415Y-90654875D01*
X128186696Y-90651469D01*
X128188041Y-90651550D01*
G37*
%TD.AperFunction*%
%TD*%
%TA.AperFunction,Conductor*%
%TO.N,Group head thermistor*%
G36*
X115354484Y-60830863D02*
G01*
X116125142Y-61151061D01*
X116131467Y-61157400D01*
X116131715Y-61165677D01*
X115665218Y-62519625D01*
X115659283Y-62526331D01*
X115654156Y-62527514D01*
X115070702Y-62527514D01*
X115062429Y-62524087D01*
X115059703Y-62519804D01*
X114568513Y-61165787D01*
X114568913Y-61156841D01*
X114575021Y-61150993D01*
X115345511Y-60830864D01*
X115354466Y-60830856D01*
X115354484Y-60830863D01*
G37*
%TD.AperFunction*%
%TD*%
%TA.AperFunction,Conductor*%
%TO.N,GND*%
G36*
X153554400Y-59508115D02*
G01*
X153555365Y-59508980D01*
X153767748Y-59721734D01*
X153771168Y-59730010D01*
X153767748Y-59738266D01*
X153555365Y-59951019D01*
X153547095Y-59954453D01*
X153545801Y-59954382D01*
X153335416Y-59931150D01*
X153327569Y-59926836D01*
X153325000Y-59919521D01*
X153325000Y-59540478D01*
X153328427Y-59532205D01*
X153335413Y-59528850D01*
X153545802Y-59505617D01*
X153554400Y-59508115D01*
G37*
%TD.AperFunction*%
%TD*%
%TA.AperFunction,Conductor*%
%TO.N,5V_IN*%
G36*
X163897157Y-73444794D02*
G01*
X163988080Y-73482653D01*
X163994401Y-73488997D01*
X163995055Y-73495751D01*
X163836883Y-74285597D01*
X163831899Y-74293037D01*
X163825411Y-74295000D01*
X163244589Y-74295000D01*
X163236316Y-74291573D01*
X163233117Y-74285597D01*
X163074944Y-73495751D01*
X163076679Y-73486966D01*
X163081918Y-73482653D01*
X163530504Y-73295871D01*
X163539455Y-73295855D01*
X163897157Y-73444794D01*
G37*
%TD.AperFunction*%
%TD*%
%TA.AperFunction,Conductor*%
%TO.N,GND*%
G36*
X126353540Y-97897962D02*
G01*
X127072337Y-98162183D01*
X127078920Y-98168254D01*
X127080000Y-98173165D01*
X127080000Y-99153733D01*
X127076573Y-99162006D01*
X127068742Y-99165425D01*
X126161864Y-99199740D01*
X126153468Y-99196628D01*
X126151429Y-99194133D01*
X125733831Y-98507939D01*
X125732459Y-98499092D01*
X125735640Y-98493499D01*
X126341322Y-97900582D01*
X126349630Y-97897246D01*
X126353540Y-97897962D01*
G37*
%TD.AperFunction*%
%TD*%
%TA.AperFunction,Conductor*%
%TO.N,GND*%
G36*
X162413184Y-75431732D02*
G01*
X163188830Y-75533662D01*
X163196586Y-75538137D01*
X163199005Y-75545262D01*
X163199005Y-76124608D01*
X163195578Y-76132881D01*
X163188686Y-76136226D01*
X162413048Y-76228448D01*
X162404428Y-76226022D01*
X162400049Y-76218211D01*
X162399967Y-76216859D01*
X162399765Y-76136226D01*
X162399000Y-75830000D01*
X162399966Y-75443302D01*
X162403414Y-75435039D01*
X162411695Y-75431633D01*
X162413184Y-75431732D01*
G37*
%TD.AperFunction*%
%TD*%
%TA.AperFunction,Conductor*%
%TO.N,GND*%
G36*
X155954192Y-61445616D02*
G01*
X156164585Y-61468849D01*
X156172431Y-61473163D01*
X156175000Y-61480478D01*
X156175000Y-61859521D01*
X156171573Y-61867794D01*
X156164584Y-61871150D01*
X155954198Y-61894382D01*
X155945599Y-61891884D01*
X155944634Y-61891019D01*
X155913191Y-61859521D01*
X155732250Y-61678264D01*
X155728831Y-61669990D01*
X155732250Y-61661735D01*
X155944635Y-61448979D01*
X155952904Y-61445546D01*
X155954192Y-61445616D01*
G37*
%TD.AperFunction*%
%TD*%
%TA.AperFunction,Conductor*%
%TO.N,GND*%
G36*
X153471267Y-59527711D02*
G01*
X153478400Y-59533123D01*
X153480000Y-59539028D01*
X153480000Y-59920971D01*
X153476573Y-59929244D01*
X153471266Y-59932289D01*
X152842920Y-60096971D01*
X152834049Y-60095753D01*
X152829155Y-60090155D01*
X152680875Y-59734499D01*
X152680855Y-59725550D01*
X152829156Y-59369842D01*
X152835502Y-59363526D01*
X152842917Y-59363028D01*
X153471267Y-59527711D01*
G37*
%TD.AperFunction*%
%TD*%
%TA.AperFunction,Conductor*%
%TO.N,I2C_SDA*%
G36*
X136337944Y-80833427D02*
G01*
X136341281Y-80840249D01*
X136438360Y-81616882D01*
X136435985Y-81625516D01*
X136428201Y-81629943D01*
X136426779Y-81630033D01*
X136040029Y-81630999D01*
X136039971Y-81630999D01*
X135653220Y-81630033D01*
X135644955Y-81626585D01*
X135641549Y-81618304D01*
X135641638Y-81616894D01*
X135738719Y-80840249D01*
X135743146Y-80832465D01*
X135750329Y-80830000D01*
X136329671Y-80830000D01*
X136337944Y-80833427D01*
G37*
%TD.AperFunction*%
%TD*%
%TA.AperFunction,Conductor*%
%TO.N,+3V3*%
G36*
X154724991Y-58501987D02*
G01*
X154790082Y-58529125D01*
X154796400Y-58535472D01*
X154796875Y-58542976D01*
X154627337Y-59170357D01*
X154621870Y-59177450D01*
X154616042Y-59179005D01*
X154234093Y-59179005D01*
X154225820Y-59175578D01*
X154222755Y-59170193D01*
X154062943Y-58542867D01*
X154064222Y-58534006D01*
X154069777Y-58529183D01*
X154425500Y-58380875D01*
X154434449Y-58380855D01*
X154724991Y-58501987D01*
G37*
%TD.AperFunction*%
%TD*%
%TA.AperFunction,Conductor*%
%TO.N,Pressurestat*%
G36*
X108667196Y-76747245D02*
G01*
X108673855Y-76753230D01*
X108675000Y-76758277D01*
X108675000Y-77341722D01*
X108671573Y-77349995D01*
X108667195Y-77352755D01*
X107310729Y-77831609D01*
X107301787Y-77831131D01*
X107296029Y-77825065D01*
X107095206Y-77341722D01*
X106975864Y-77054488D01*
X106975856Y-77045534D01*
X106975865Y-77045511D01*
X107099791Y-76747244D01*
X107296030Y-76274932D01*
X107302368Y-76268609D01*
X107310728Y-76268390D01*
X108667196Y-76747245D01*
G37*
%TD.AperFunction*%
%TD*%
%TA.AperFunction,Conductor*%
%TO.N,I2C_SCL*%
G36*
X124645428Y-67804072D02*
G01*
X124649928Y-67811814D01*
X124650033Y-67813346D01*
X124651000Y-68200000D01*
X124651000Y-68200058D01*
X124650032Y-68586899D01*
X124646584Y-68595164D01*
X124638303Y-68598570D01*
X124636986Y-68598492D01*
X123861846Y-68508699D01*
X123854022Y-68504343D01*
X123851492Y-68497077D01*
X123851492Y-67917730D01*
X123854919Y-67909457D01*
X123861631Y-67906135D01*
X124636774Y-67801780D01*
X124645428Y-67804072D01*
G37*
%TD.AperFunction*%
%TD*%
%TA.AperFunction,Conductor*%
%TO.N,Net-(J11-~D5)*%
G36*
X148795154Y-82996663D02*
G01*
X148800566Y-82999734D01*
X149211947Y-83411115D01*
X149215374Y-83419388D01*
X149211947Y-83427661D01*
X149209690Y-83429423D01*
X148614735Y-83786103D01*
X148605877Y-83787418D01*
X148604797Y-83787091D01*
X147684428Y-83459649D01*
X147677782Y-83453647D01*
X147677327Y-83444704D01*
X147682896Y-83438275D01*
X148606035Y-82952087D01*
X148614345Y-82951095D01*
X148795154Y-82996663D01*
G37*
%TD.AperFunction*%
%TD*%
%TA.AperFunction,Conductor*%
%TO.N,+3V3*%
G36*
X156612167Y-73299902D02*
G01*
X157063024Y-73487629D01*
X157069345Y-73493973D01*
X157069985Y-73500798D01*
X156906929Y-74289673D01*
X156901898Y-74297082D01*
X156895471Y-74299005D01*
X156314637Y-74299005D01*
X156306364Y-74295578D01*
X156303154Y-74289546D01*
X156229459Y-73912004D01*
X156112715Y-73313910D01*
X156114493Y-73305136D01*
X156121957Y-73300188D01*
X156124168Y-73299971D01*
X156607653Y-73299004D01*
X156612167Y-73299902D01*
G37*
%TD.AperFunction*%
%TD*%
%TA.AperFunction,Conductor*%
%TO.N,+3V3*%
G36*
X165161696Y-91924966D02*
G01*
X165169960Y-91928414D01*
X165173366Y-91936695D01*
X165173266Y-91938190D01*
X165071337Y-92713829D01*
X165066862Y-92721586D01*
X165059737Y-92724005D01*
X164480391Y-92724005D01*
X164472118Y-92720578D01*
X164468773Y-92713686D01*
X164376551Y-91938048D01*
X164378977Y-91929428D01*
X164386788Y-91925049D01*
X164388137Y-91924967D01*
X164775000Y-91924000D01*
X165161696Y-91924966D01*
G37*
%TD.AperFunction*%
%TD*%
%TA.AperFunction,Conductor*%
%TO.N,+3V3*%
G36*
X157085825Y-73299971D02*
G01*
X157094091Y-73303414D01*
X157097501Y-73311694D01*
X157097284Y-73313912D01*
X156906846Y-74289546D01*
X156901898Y-74297010D01*
X156895363Y-74299005D01*
X156314529Y-74299005D01*
X156306256Y-74295578D01*
X156303071Y-74289673D01*
X156303045Y-74289546D01*
X156140014Y-73500796D01*
X156141695Y-73492003D01*
X156146972Y-73487630D01*
X156597833Y-73299902D01*
X156602345Y-73299004D01*
X157085825Y-73299971D01*
G37*
%TD.AperFunction*%
%TD*%
%TA.AperFunction,Conductor*%
%TO.N,Net-(J11-~D9)*%
G36*
X148614994Y-72791997D02*
G01*
X149102645Y-72987058D01*
X149109054Y-72993312D01*
X149110000Y-72997921D01*
X149110000Y-73582079D01*
X149106573Y-73590352D01*
X149102645Y-73592942D01*
X148615012Y-73787995D01*
X148606058Y-73787886D01*
X148605222Y-73787488D01*
X148230269Y-73590352D01*
X147678696Y-73300355D01*
X147672969Y-73293473D01*
X147673786Y-73284555D01*
X147678697Y-73279644D01*
X148605224Y-72792510D01*
X148614140Y-72791694D01*
X148614994Y-72791997D01*
G37*
%TD.AperFunction*%
%TD*%
%TA.AperFunction,Conductor*%
%TO.N,5V_IN*%
G36*
X115425246Y-104278427D02*
G01*
X115427889Y-104282489D01*
X115732838Y-105073026D01*
X115732618Y-105081978D01*
X115726419Y-105088038D01*
X115279497Y-105274127D01*
X115270543Y-105274144D01*
X115270503Y-105274127D01*
X114823580Y-105088038D01*
X114817259Y-105081694D01*
X114817161Y-105073026D01*
X115122111Y-104282489D01*
X115128286Y-104276004D01*
X115133027Y-104275000D01*
X115416973Y-104275000D01*
X115425246Y-104278427D01*
G37*
%TD.AperFunction*%
%TD*%
%TA.AperFunction,Conductor*%
%TO.N,GND*%
G36*
X162413184Y-86861732D02*
G01*
X163188830Y-86963662D01*
X163196586Y-86968137D01*
X163199005Y-86975262D01*
X163199005Y-87554608D01*
X163195578Y-87562881D01*
X163188686Y-87566226D01*
X162413048Y-87658448D01*
X162404428Y-87656022D01*
X162400049Y-87648211D01*
X162399967Y-87646859D01*
X162399765Y-87566226D01*
X162399000Y-87260000D01*
X162399966Y-86873302D01*
X162403414Y-86865039D01*
X162411695Y-86861633D01*
X162413184Y-86861732D01*
G37*
%TD.AperFunction*%
%TD*%
%TA.AperFunction,Conductor*%
%TO.N,Net-(J11-~D3)*%
G36*
X148615915Y-88034409D02*
G01*
X148853254Y-88211295D01*
X148854535Y-88212403D01*
X149266570Y-88624438D01*
X149269997Y-88632711D01*
X149266570Y-88640984D01*
X149263401Y-88643239D01*
X148614927Y-88957598D01*
X148605987Y-88958123D01*
X148605008Y-88957733D01*
X147681119Y-88540562D01*
X147674989Y-88534034D01*
X147675271Y-88525084D01*
X147680481Y-88519547D01*
X148603472Y-88033437D01*
X148612388Y-88032615D01*
X148615915Y-88034409D01*
G37*
%TD.AperFunction*%
%TD*%
%TA.AperFunction,Conductor*%
%TO.N,Pressurestat*%
G36*
X128173941Y-75307113D02*
G01*
X128174765Y-75307505D01*
X128550400Y-75505000D01*
X129101302Y-75794644D01*
X129107030Y-75801527D01*
X129106213Y-75810445D01*
X129101302Y-75815356D01*
X128174777Y-76302488D01*
X128165859Y-76303305D01*
X128164991Y-76302996D01*
X127677355Y-76107942D01*
X127670946Y-76101688D01*
X127670000Y-76097079D01*
X127670000Y-75512921D01*
X127673427Y-75504648D01*
X127677355Y-75502058D01*
X128164989Y-75307004D01*
X128173941Y-75307113D01*
G37*
%TD.AperFunction*%
%TD*%
%TA.AperFunction,Conductor*%
%TO.N,GND*%
G36*
X120761696Y-67027466D02*
G01*
X120769960Y-67030914D01*
X120773366Y-67039195D01*
X120773266Y-67040690D01*
X120671337Y-67816329D01*
X120666862Y-67824086D01*
X120659737Y-67826505D01*
X120080391Y-67826505D01*
X120072118Y-67823078D01*
X120068773Y-67816186D01*
X119976551Y-67040548D01*
X119978977Y-67031928D01*
X119986788Y-67027549D01*
X119988137Y-67027467D01*
X120375000Y-67026500D01*
X120761696Y-67027466D01*
G37*
%TD.AperFunction*%
%TD*%
%TA.AperFunction,Conductor*%
%TO.N,Net-(J11-D7)*%
G36*
X148614997Y-77875290D02*
G01*
X149102679Y-78072046D01*
X149109068Y-78078318D01*
X149110000Y-78082895D01*
X149110000Y-78667005D01*
X149106573Y-78675278D01*
X149102551Y-78677905D01*
X148614972Y-78868060D01*
X148606019Y-78867874D01*
X148605276Y-78867516D01*
X147678762Y-78380390D01*
X147673034Y-78373507D01*
X147673851Y-78364589D01*
X147678789Y-78359663D01*
X148605216Y-77875772D01*
X148614133Y-77874981D01*
X148614997Y-77875290D01*
G37*
%TD.AperFunction*%
%TD*%
%TA.AperFunction,Conductor*%
%TO.N,+3V3*%
G36*
X113038903Y-64427712D02*
G01*
X113528041Y-64523154D01*
X113535504Y-64528101D01*
X113537500Y-64534637D01*
X113537500Y-65115362D01*
X113534073Y-65123635D01*
X113528041Y-65126845D01*
X113038905Y-65222286D01*
X113030128Y-65220507D01*
X113025181Y-65213044D01*
X113024964Y-65210838D01*
X113024000Y-64825000D01*
X113024964Y-64439165D01*
X113028412Y-64430902D01*
X113036693Y-64427496D01*
X113038903Y-64427712D01*
G37*
%TD.AperFunction*%
%TD*%
%TA.AperFunction,Conductor*%
%TO.N,I2C_SDA*%
G36*
X136426781Y-75349966D02*
G01*
X136435044Y-75353414D01*
X136438450Y-75361695D01*
X136438360Y-75363117D01*
X136341281Y-76139751D01*
X136336854Y-76147535D01*
X136329671Y-76150000D01*
X135750329Y-76150000D01*
X135742056Y-76146573D01*
X135738719Y-76139751D01*
X135722539Y-76010312D01*
X135641639Y-75363115D01*
X135644014Y-75354483D01*
X135651798Y-75350056D01*
X135653204Y-75349966D01*
X136040000Y-75349000D01*
X136426781Y-75349966D01*
G37*
%TD.AperFunction*%
%TD*%
%TA.AperFunction,Conductor*%
%TO.N,+3V3*%
G36*
X165072944Y-91128427D02*
G01*
X165076281Y-91135249D01*
X165173360Y-91911882D01*
X165170985Y-91920516D01*
X165163201Y-91924943D01*
X165161779Y-91925033D01*
X164775029Y-91925999D01*
X164774971Y-91925999D01*
X164388220Y-91925033D01*
X164379955Y-91921585D01*
X164376549Y-91913304D01*
X164376638Y-91911894D01*
X164473719Y-91135249D01*
X164478146Y-91127465D01*
X164485329Y-91125000D01*
X165064671Y-91125000D01*
X165072944Y-91128427D01*
G37*
%TD.AperFunction*%
%TD*%
%TA.AperFunction,Conductor*%
%TO.N,I2C_SCL*%
G36*
X153554400Y-61448115D02*
G01*
X153555365Y-61448980D01*
X153767748Y-61661734D01*
X153771168Y-61670010D01*
X153767748Y-61678266D01*
X153555365Y-61891019D01*
X153547095Y-61894453D01*
X153545801Y-61894382D01*
X153335416Y-61871150D01*
X153327569Y-61866836D01*
X153325000Y-61859521D01*
X153325000Y-61480478D01*
X153328427Y-61472205D01*
X153335413Y-61468850D01*
X153545802Y-61445617D01*
X153554400Y-61448115D01*
G37*
%TD.AperFunction*%
%TD*%
M02*
