%TF.GenerationSoftware,KiCad,Pcbnew,7.0.10*%
%TF.CreationDate,2024-03-09T05:04:33-09:00*%
%TF.ProjectId,SP_V.1.7.5_Board,53505f56-2e31-42e3-972e-355f426f6172,rev?*%
%TF.SameCoordinates,Original*%
%TF.FileFunction,Legend,Top*%
%TF.FilePolarity,Positive*%
%FSLAX46Y46*%
G04 Gerber Fmt 4.6, Leading zero omitted, Abs format (unit mm)*
G04 Created by KiCad (PCBNEW 7.0.10) date 2024-03-09 05:04:33*
%MOMM*%
%LPD*%
G01*
G04 APERTURE LIST*
%ADD10C,0.300000*%
%ADD11C,0.150000*%
%ADD12C,0.120000*%
%ADD13C,0.127000*%
%ADD14C,0.200000*%
G04 APERTURE END LIST*
D10*
X144608082Y-117047257D02*
X145322368Y-117047257D01*
X144465225Y-117475828D02*
X144965225Y-115975828D01*
X144965225Y-115975828D02*
X145465225Y-117475828D01*
X146179510Y-117475828D02*
X146036653Y-117404400D01*
X146036653Y-117404400D02*
X145965224Y-117261542D01*
X145965224Y-117261542D02*
X145965224Y-115975828D01*
X147393796Y-117475828D02*
X147393796Y-116690114D01*
X147393796Y-116690114D02*
X147322367Y-116547257D01*
X147322367Y-116547257D02*
X147179510Y-116475828D01*
X147179510Y-116475828D02*
X146893796Y-116475828D01*
X146893796Y-116475828D02*
X146750938Y-116547257D01*
X147393796Y-117404400D02*
X147250938Y-117475828D01*
X147250938Y-117475828D02*
X146893796Y-117475828D01*
X146893796Y-117475828D02*
X146750938Y-117404400D01*
X146750938Y-117404400D02*
X146679510Y-117261542D01*
X146679510Y-117261542D02*
X146679510Y-117118685D01*
X146679510Y-117118685D02*
X146750938Y-116975828D01*
X146750938Y-116975828D02*
X146893796Y-116904400D01*
X146893796Y-116904400D02*
X147250938Y-116904400D01*
X147250938Y-116904400D02*
X147393796Y-116832971D01*
X148108081Y-117475828D02*
X148108081Y-116475828D01*
X148108081Y-116761542D02*
X148179510Y-116618685D01*
X148179510Y-116618685D02*
X148250939Y-116547257D01*
X148250939Y-116547257D02*
X148393796Y-116475828D01*
X148393796Y-116475828D02*
X148536653Y-116475828D01*
X149036652Y-117475828D02*
X149036652Y-116475828D01*
X149036652Y-116618685D02*
X149108081Y-116547257D01*
X149108081Y-116547257D02*
X149250938Y-116475828D01*
X149250938Y-116475828D02*
X149465224Y-116475828D01*
X149465224Y-116475828D02*
X149608081Y-116547257D01*
X149608081Y-116547257D02*
X149679510Y-116690114D01*
X149679510Y-116690114D02*
X149679510Y-117475828D01*
X149679510Y-116690114D02*
X149750938Y-116547257D01*
X149750938Y-116547257D02*
X149893795Y-116475828D01*
X149893795Y-116475828D02*
X150108081Y-116475828D01*
X150108081Y-116475828D02*
X150250938Y-116547257D01*
X150250938Y-116547257D02*
X150322367Y-116690114D01*
X150322367Y-116690114D02*
X150322367Y-117475828D01*
X122268796Y-103250828D02*
X121554510Y-103250828D01*
X121554510Y-103250828D02*
X121483082Y-103965114D01*
X121483082Y-103965114D02*
X121554510Y-103893685D01*
X121554510Y-103893685D02*
X121697368Y-103822257D01*
X121697368Y-103822257D02*
X122054510Y-103822257D01*
X122054510Y-103822257D02*
X122197368Y-103893685D01*
X122197368Y-103893685D02*
X122268796Y-103965114D01*
X122268796Y-103965114D02*
X122340225Y-104107971D01*
X122340225Y-104107971D02*
X122340225Y-104465114D01*
X122340225Y-104465114D02*
X122268796Y-104607971D01*
X122268796Y-104607971D02*
X122197368Y-104679400D01*
X122197368Y-104679400D02*
X122054510Y-104750828D01*
X122054510Y-104750828D02*
X121697368Y-104750828D01*
X121697368Y-104750828D02*
X121554510Y-104679400D01*
X121554510Y-104679400D02*
X121483082Y-104607971D01*
X122768796Y-103250828D02*
X123268796Y-104750828D01*
X123268796Y-104750828D02*
X123768796Y-103250828D01*
X110875828Y-109159774D02*
X110875828Y-108302632D01*
X112375828Y-108731203D02*
X110875828Y-108731203D01*
X112375828Y-107159775D02*
X111590114Y-107159775D01*
X111590114Y-107159775D02*
X111447257Y-107231203D01*
X111447257Y-107231203D02*
X111375828Y-107374060D01*
X111375828Y-107374060D02*
X111375828Y-107659775D01*
X111375828Y-107659775D02*
X111447257Y-107802632D01*
X112304400Y-107159775D02*
X112375828Y-107302632D01*
X112375828Y-107302632D02*
X112375828Y-107659775D01*
X112375828Y-107659775D02*
X112304400Y-107802632D01*
X112304400Y-107802632D02*
X112161542Y-107874060D01*
X112161542Y-107874060D02*
X112018685Y-107874060D01*
X112018685Y-107874060D02*
X111875828Y-107802632D01*
X111875828Y-107802632D02*
X111804400Y-107659775D01*
X111804400Y-107659775D02*
X111804400Y-107302632D01*
X111804400Y-107302632D02*
X111732971Y-107159775D01*
X112304400Y-105802632D02*
X112375828Y-105945489D01*
X112375828Y-105945489D02*
X112375828Y-106231203D01*
X112375828Y-106231203D02*
X112304400Y-106374060D01*
X112304400Y-106374060D02*
X112232971Y-106445489D01*
X112232971Y-106445489D02*
X112090114Y-106516917D01*
X112090114Y-106516917D02*
X111661542Y-106516917D01*
X111661542Y-106516917D02*
X111518685Y-106445489D01*
X111518685Y-106445489D02*
X111447257Y-106374060D01*
X111447257Y-106374060D02*
X111375828Y-106231203D01*
X111375828Y-106231203D02*
X111375828Y-105945489D01*
X111375828Y-105945489D02*
X111447257Y-105802632D01*
X112375828Y-105159775D02*
X110875828Y-105159775D01*
X112375828Y-104516918D02*
X111590114Y-104516918D01*
X111590114Y-104516918D02*
X111447257Y-104588346D01*
X111447257Y-104588346D02*
X111375828Y-104731203D01*
X111375828Y-104731203D02*
X111375828Y-104945489D01*
X111375828Y-104945489D02*
X111447257Y-105088346D01*
X111447257Y-105088346D02*
X111518685Y-105159775D01*
X171300828Y-107370489D02*
X169800828Y-107370489D01*
X169800828Y-106370488D02*
X169800828Y-106084774D01*
X169800828Y-106084774D02*
X169872257Y-105941917D01*
X169872257Y-105941917D02*
X170015114Y-105799060D01*
X170015114Y-105799060D02*
X170300828Y-105727631D01*
X170300828Y-105727631D02*
X170800828Y-105727631D01*
X170800828Y-105727631D02*
X171086542Y-105799060D01*
X171086542Y-105799060D02*
X171229400Y-105941917D01*
X171229400Y-105941917D02*
X171300828Y-106084774D01*
X171300828Y-106084774D02*
X171300828Y-106370488D01*
X171300828Y-106370488D02*
X171229400Y-106513346D01*
X171229400Y-106513346D02*
X171086542Y-106656203D01*
X171086542Y-106656203D02*
X170800828Y-106727631D01*
X170800828Y-106727631D02*
X170300828Y-106727631D01*
X170300828Y-106727631D02*
X170015114Y-106656203D01*
X170015114Y-106656203D02*
X169872257Y-106513346D01*
X169872257Y-106513346D02*
X169800828Y-106370488D01*
X171300828Y-104299059D02*
X171300828Y-105156202D01*
X171300828Y-104727631D02*
X169800828Y-104727631D01*
X169800828Y-104727631D02*
X170015114Y-104870488D01*
X170015114Y-104870488D02*
X170157971Y-105013345D01*
X170157971Y-105013345D02*
X170229400Y-105156202D01*
X171300828Y-90506203D02*
X171300828Y-91220489D01*
X171300828Y-91220489D02*
X169800828Y-91220489D01*
X171300828Y-90006203D02*
X170300828Y-90006203D01*
X169800828Y-90006203D02*
X169872257Y-90077631D01*
X169872257Y-90077631D02*
X169943685Y-90006203D01*
X169943685Y-90006203D02*
X169872257Y-89934774D01*
X169872257Y-89934774D02*
X169800828Y-90006203D01*
X169800828Y-90006203D02*
X169943685Y-90006203D01*
X170300828Y-88649060D02*
X171515114Y-88649060D01*
X171515114Y-88649060D02*
X171657971Y-88720488D01*
X171657971Y-88720488D02*
X171729400Y-88791917D01*
X171729400Y-88791917D02*
X171800828Y-88934774D01*
X171800828Y-88934774D02*
X171800828Y-89149060D01*
X171800828Y-89149060D02*
X171729400Y-89291917D01*
X171229400Y-88649060D02*
X171300828Y-88791917D01*
X171300828Y-88791917D02*
X171300828Y-89077631D01*
X171300828Y-89077631D02*
X171229400Y-89220488D01*
X171229400Y-89220488D02*
X171157971Y-89291917D01*
X171157971Y-89291917D02*
X171015114Y-89363345D01*
X171015114Y-89363345D02*
X170586542Y-89363345D01*
X170586542Y-89363345D02*
X170443685Y-89291917D01*
X170443685Y-89291917D02*
X170372257Y-89220488D01*
X170372257Y-89220488D02*
X170300828Y-89077631D01*
X170300828Y-89077631D02*
X170300828Y-88791917D01*
X170300828Y-88791917D02*
X170372257Y-88649060D01*
X171300828Y-87934774D02*
X169800828Y-87934774D01*
X171300828Y-87291917D02*
X170515114Y-87291917D01*
X170515114Y-87291917D02*
X170372257Y-87363345D01*
X170372257Y-87363345D02*
X170300828Y-87506202D01*
X170300828Y-87506202D02*
X170300828Y-87720488D01*
X170300828Y-87720488D02*
X170372257Y-87863345D01*
X170372257Y-87863345D02*
X170443685Y-87934774D01*
X170300828Y-86791916D02*
X170300828Y-86220488D01*
X169800828Y-86577631D02*
X171086542Y-86577631D01*
X171086542Y-86577631D02*
X171229400Y-86506202D01*
X171229400Y-86506202D02*
X171300828Y-86363345D01*
X171300828Y-86363345D02*
X171300828Y-86220488D01*
X171229400Y-85791916D02*
X171300828Y-85649059D01*
X171300828Y-85649059D02*
X171300828Y-85363345D01*
X171300828Y-85363345D02*
X171229400Y-85220488D01*
X171229400Y-85220488D02*
X171086542Y-85149059D01*
X171086542Y-85149059D02*
X171015114Y-85149059D01*
X171015114Y-85149059D02*
X170872257Y-85220488D01*
X170872257Y-85220488D02*
X170800828Y-85363345D01*
X170800828Y-85363345D02*
X170800828Y-85577631D01*
X170800828Y-85577631D02*
X170729400Y-85720488D01*
X170729400Y-85720488D02*
X170586542Y-85791916D01*
X170586542Y-85791916D02*
X170515114Y-85791916D01*
X170515114Y-85791916D02*
X170372257Y-85720488D01*
X170372257Y-85720488D02*
X170300828Y-85577631D01*
X170300828Y-85577631D02*
X170300828Y-85363345D01*
X170300828Y-85363345D02*
X170372257Y-85220488D01*
X119554510Y-57050828D02*
X119554510Y-55550828D01*
X119554510Y-55550828D02*
X120125939Y-55550828D01*
X120125939Y-55550828D02*
X120268796Y-55622257D01*
X120268796Y-55622257D02*
X120340225Y-55693685D01*
X120340225Y-55693685D02*
X120411653Y-55836542D01*
X120411653Y-55836542D02*
X120411653Y-56050828D01*
X120411653Y-56050828D02*
X120340225Y-56193685D01*
X120340225Y-56193685D02*
X120268796Y-56265114D01*
X120268796Y-56265114D02*
X120125939Y-56336542D01*
X120125939Y-56336542D02*
X119554510Y-56336542D01*
X121054510Y-57050828D02*
X121054510Y-56050828D01*
X121054510Y-56336542D02*
X121125939Y-56193685D01*
X121125939Y-56193685D02*
X121197368Y-56122257D01*
X121197368Y-56122257D02*
X121340225Y-56050828D01*
X121340225Y-56050828D02*
X121483082Y-56050828D01*
X122554510Y-56979400D02*
X122411653Y-57050828D01*
X122411653Y-57050828D02*
X122125939Y-57050828D01*
X122125939Y-57050828D02*
X121983081Y-56979400D01*
X121983081Y-56979400D02*
X121911653Y-56836542D01*
X121911653Y-56836542D02*
X121911653Y-56265114D01*
X121911653Y-56265114D02*
X121983081Y-56122257D01*
X121983081Y-56122257D02*
X122125939Y-56050828D01*
X122125939Y-56050828D02*
X122411653Y-56050828D01*
X122411653Y-56050828D02*
X122554510Y-56122257D01*
X122554510Y-56122257D02*
X122625939Y-56265114D01*
X122625939Y-56265114D02*
X122625939Y-56407971D01*
X122625939Y-56407971D02*
X121911653Y-56550828D01*
X123197367Y-56979400D02*
X123340224Y-57050828D01*
X123340224Y-57050828D02*
X123625938Y-57050828D01*
X123625938Y-57050828D02*
X123768795Y-56979400D01*
X123768795Y-56979400D02*
X123840224Y-56836542D01*
X123840224Y-56836542D02*
X123840224Y-56765114D01*
X123840224Y-56765114D02*
X123768795Y-56622257D01*
X123768795Y-56622257D02*
X123625938Y-56550828D01*
X123625938Y-56550828D02*
X123411653Y-56550828D01*
X123411653Y-56550828D02*
X123268795Y-56479400D01*
X123268795Y-56479400D02*
X123197367Y-56336542D01*
X123197367Y-56336542D02*
X123197367Y-56265114D01*
X123197367Y-56265114D02*
X123268795Y-56122257D01*
X123268795Y-56122257D02*
X123411653Y-56050828D01*
X123411653Y-56050828D02*
X123625938Y-56050828D01*
X123625938Y-56050828D02*
X123768795Y-56122257D01*
X124411653Y-56979400D02*
X124554510Y-57050828D01*
X124554510Y-57050828D02*
X124840224Y-57050828D01*
X124840224Y-57050828D02*
X124983081Y-56979400D01*
X124983081Y-56979400D02*
X125054510Y-56836542D01*
X125054510Y-56836542D02*
X125054510Y-56765114D01*
X125054510Y-56765114D02*
X124983081Y-56622257D01*
X124983081Y-56622257D02*
X124840224Y-56550828D01*
X124840224Y-56550828D02*
X124625939Y-56550828D01*
X124625939Y-56550828D02*
X124483081Y-56479400D01*
X124483081Y-56479400D02*
X124411653Y-56336542D01*
X124411653Y-56336542D02*
X124411653Y-56265114D01*
X124411653Y-56265114D02*
X124483081Y-56122257D01*
X124483081Y-56122257D02*
X124625939Y-56050828D01*
X124625939Y-56050828D02*
X124840224Y-56050828D01*
X124840224Y-56050828D02*
X124983081Y-56122257D01*
X126340225Y-56050828D02*
X126340225Y-57050828D01*
X125697367Y-56050828D02*
X125697367Y-56836542D01*
X125697367Y-56836542D02*
X125768796Y-56979400D01*
X125768796Y-56979400D02*
X125911653Y-57050828D01*
X125911653Y-57050828D02*
X126125939Y-57050828D01*
X126125939Y-57050828D02*
X126268796Y-56979400D01*
X126268796Y-56979400D02*
X126340225Y-56907971D01*
X127054510Y-57050828D02*
X127054510Y-56050828D01*
X127054510Y-56336542D02*
X127125939Y-56193685D01*
X127125939Y-56193685D02*
X127197368Y-56122257D01*
X127197368Y-56122257D02*
X127340225Y-56050828D01*
X127340225Y-56050828D02*
X127483082Y-56050828D01*
X128554510Y-56979400D02*
X128411653Y-57050828D01*
X128411653Y-57050828D02*
X128125939Y-57050828D01*
X128125939Y-57050828D02*
X127983081Y-56979400D01*
X127983081Y-56979400D02*
X127911653Y-56836542D01*
X127911653Y-56836542D02*
X127911653Y-56265114D01*
X127911653Y-56265114D02*
X127983081Y-56122257D01*
X127983081Y-56122257D02*
X128125939Y-56050828D01*
X128125939Y-56050828D02*
X128411653Y-56050828D01*
X128411653Y-56050828D02*
X128554510Y-56122257D01*
X128554510Y-56122257D02*
X128625939Y-56265114D01*
X128625939Y-56265114D02*
X128625939Y-56407971D01*
X128625939Y-56407971D02*
X127911653Y-56550828D01*
X155090225Y-115975828D02*
X155947368Y-115975828D01*
X155518796Y-117475828D02*
X155518796Y-115975828D01*
X157090225Y-117475828D02*
X157090225Y-116690114D01*
X157090225Y-116690114D02*
X157018796Y-116547257D01*
X157018796Y-116547257D02*
X156875939Y-116475828D01*
X156875939Y-116475828D02*
X156590225Y-116475828D01*
X156590225Y-116475828D02*
X156447367Y-116547257D01*
X157090225Y-117404400D02*
X156947367Y-117475828D01*
X156947367Y-117475828D02*
X156590225Y-117475828D01*
X156590225Y-117475828D02*
X156447367Y-117404400D01*
X156447367Y-117404400D02*
X156375939Y-117261542D01*
X156375939Y-117261542D02*
X156375939Y-117118685D01*
X156375939Y-117118685D02*
X156447367Y-116975828D01*
X156447367Y-116975828D02*
X156590225Y-116904400D01*
X156590225Y-116904400D02*
X156947367Y-116904400D01*
X156947367Y-116904400D02*
X157090225Y-116832971D01*
X157804510Y-116475828D02*
X157804510Y-117475828D01*
X157804510Y-116618685D02*
X157875939Y-116547257D01*
X157875939Y-116547257D02*
X158018796Y-116475828D01*
X158018796Y-116475828D02*
X158233082Y-116475828D01*
X158233082Y-116475828D02*
X158375939Y-116547257D01*
X158375939Y-116547257D02*
X158447368Y-116690114D01*
X158447368Y-116690114D02*
X158447368Y-117475828D01*
X159161653Y-117475828D02*
X159161653Y-115975828D01*
X159304511Y-116904400D02*
X159733082Y-117475828D01*
X159733082Y-116475828D02*
X159161653Y-117047257D01*
X110840225Y-55550828D02*
X111697368Y-55550828D01*
X111268796Y-57050828D02*
X111268796Y-55550828D01*
X112197367Y-57050828D02*
X112197367Y-55550828D01*
X112840225Y-57050828D02*
X112840225Y-56265114D01*
X112840225Y-56265114D02*
X112768796Y-56122257D01*
X112768796Y-56122257D02*
X112625939Y-56050828D01*
X112625939Y-56050828D02*
X112411653Y-56050828D01*
X112411653Y-56050828D02*
X112268796Y-56122257D01*
X112268796Y-56122257D02*
X112197367Y-56193685D01*
X114125939Y-56979400D02*
X113983082Y-57050828D01*
X113983082Y-57050828D02*
X113697368Y-57050828D01*
X113697368Y-57050828D02*
X113554510Y-56979400D01*
X113554510Y-56979400D02*
X113483082Y-56836542D01*
X113483082Y-56836542D02*
X113483082Y-56265114D01*
X113483082Y-56265114D02*
X113554510Y-56122257D01*
X113554510Y-56122257D02*
X113697368Y-56050828D01*
X113697368Y-56050828D02*
X113983082Y-56050828D01*
X113983082Y-56050828D02*
X114125939Y-56122257D01*
X114125939Y-56122257D02*
X114197368Y-56265114D01*
X114197368Y-56265114D02*
X114197368Y-56407971D01*
X114197368Y-56407971D02*
X113483082Y-56550828D01*
X114840224Y-57050828D02*
X114840224Y-56050828D01*
X114840224Y-56336542D02*
X114911653Y-56193685D01*
X114911653Y-56193685D02*
X114983082Y-56122257D01*
X114983082Y-56122257D02*
X115125939Y-56050828D01*
X115125939Y-56050828D02*
X115268796Y-56050828D01*
X115768795Y-57050828D02*
X115768795Y-56050828D01*
X115768795Y-56193685D02*
X115840224Y-56122257D01*
X115840224Y-56122257D02*
X115983081Y-56050828D01*
X115983081Y-56050828D02*
X116197367Y-56050828D01*
X116197367Y-56050828D02*
X116340224Y-56122257D01*
X116340224Y-56122257D02*
X116411653Y-56265114D01*
X116411653Y-56265114D02*
X116411653Y-57050828D01*
X116411653Y-56265114D02*
X116483081Y-56122257D01*
X116483081Y-56122257D02*
X116625938Y-56050828D01*
X116625938Y-56050828D02*
X116840224Y-56050828D01*
X116840224Y-56050828D02*
X116983081Y-56122257D01*
X116983081Y-56122257D02*
X117054510Y-56265114D01*
X117054510Y-56265114D02*
X117054510Y-57050828D01*
X112304400Y-87516917D02*
X112375828Y-87302632D01*
X112375828Y-87302632D02*
X112375828Y-86945489D01*
X112375828Y-86945489D02*
X112304400Y-86802632D01*
X112304400Y-86802632D02*
X112232971Y-86731203D01*
X112232971Y-86731203D02*
X112090114Y-86659774D01*
X112090114Y-86659774D02*
X111947257Y-86659774D01*
X111947257Y-86659774D02*
X111804400Y-86731203D01*
X111804400Y-86731203D02*
X111732971Y-86802632D01*
X111732971Y-86802632D02*
X111661542Y-86945489D01*
X111661542Y-86945489D02*
X111590114Y-87231203D01*
X111590114Y-87231203D02*
X111518685Y-87374060D01*
X111518685Y-87374060D02*
X111447257Y-87445489D01*
X111447257Y-87445489D02*
X111304400Y-87516917D01*
X111304400Y-87516917D02*
X111161542Y-87516917D01*
X111161542Y-87516917D02*
X111018685Y-87445489D01*
X111018685Y-87445489D02*
X110947257Y-87374060D01*
X110947257Y-87374060D02*
X110875828Y-87231203D01*
X110875828Y-87231203D02*
X110875828Y-86874060D01*
X110875828Y-86874060D02*
X110947257Y-86659774D01*
X112304400Y-85445489D02*
X112375828Y-85588346D01*
X112375828Y-85588346D02*
X112375828Y-85874061D01*
X112375828Y-85874061D02*
X112304400Y-86016918D01*
X112304400Y-86016918D02*
X112161542Y-86088346D01*
X112161542Y-86088346D02*
X111590114Y-86088346D01*
X111590114Y-86088346D02*
X111447257Y-86016918D01*
X111447257Y-86016918D02*
X111375828Y-85874061D01*
X111375828Y-85874061D02*
X111375828Y-85588346D01*
X111375828Y-85588346D02*
X111447257Y-85445489D01*
X111447257Y-85445489D02*
X111590114Y-85374061D01*
X111590114Y-85374061D02*
X111732971Y-85374061D01*
X111732971Y-85374061D02*
X111875828Y-86088346D01*
X111375828Y-84731204D02*
X112375828Y-84731204D01*
X111518685Y-84731204D02*
X111447257Y-84659775D01*
X111447257Y-84659775D02*
X111375828Y-84516918D01*
X111375828Y-84516918D02*
X111375828Y-84302632D01*
X111375828Y-84302632D02*
X111447257Y-84159775D01*
X111447257Y-84159775D02*
X111590114Y-84088347D01*
X111590114Y-84088347D02*
X112375828Y-84088347D01*
X112304400Y-83445489D02*
X112375828Y-83302632D01*
X112375828Y-83302632D02*
X112375828Y-83016918D01*
X112375828Y-83016918D02*
X112304400Y-82874061D01*
X112304400Y-82874061D02*
X112161542Y-82802632D01*
X112161542Y-82802632D02*
X112090114Y-82802632D01*
X112090114Y-82802632D02*
X111947257Y-82874061D01*
X111947257Y-82874061D02*
X111875828Y-83016918D01*
X111875828Y-83016918D02*
X111875828Y-83231204D01*
X111875828Y-83231204D02*
X111804400Y-83374061D01*
X111804400Y-83374061D02*
X111661542Y-83445489D01*
X111661542Y-83445489D02*
X111590114Y-83445489D01*
X111590114Y-83445489D02*
X111447257Y-83374061D01*
X111447257Y-83374061D02*
X111375828Y-83231204D01*
X111375828Y-83231204D02*
X111375828Y-83016918D01*
X111375828Y-83016918D02*
X111447257Y-82874061D01*
X112375828Y-81945489D02*
X112304400Y-82088346D01*
X112304400Y-82088346D02*
X112232971Y-82159775D01*
X112232971Y-82159775D02*
X112090114Y-82231203D01*
X112090114Y-82231203D02*
X111661542Y-82231203D01*
X111661542Y-82231203D02*
X111518685Y-82159775D01*
X111518685Y-82159775D02*
X111447257Y-82088346D01*
X111447257Y-82088346D02*
X111375828Y-81945489D01*
X111375828Y-81945489D02*
X111375828Y-81731203D01*
X111375828Y-81731203D02*
X111447257Y-81588346D01*
X111447257Y-81588346D02*
X111518685Y-81516918D01*
X111518685Y-81516918D02*
X111661542Y-81445489D01*
X111661542Y-81445489D02*
X112090114Y-81445489D01*
X112090114Y-81445489D02*
X112232971Y-81516918D01*
X112232971Y-81516918D02*
X112304400Y-81588346D01*
X112304400Y-81588346D02*
X112375828Y-81731203D01*
X112375828Y-81731203D02*
X112375828Y-81945489D01*
X112375828Y-80802632D02*
X111375828Y-80802632D01*
X111661542Y-80802632D02*
X111518685Y-80731203D01*
X111518685Y-80731203D02*
X111447257Y-80659775D01*
X111447257Y-80659775D02*
X111375828Y-80516917D01*
X111375828Y-80516917D02*
X111375828Y-80374060D01*
X112304400Y-79945489D02*
X112375828Y-79802632D01*
X112375828Y-79802632D02*
X112375828Y-79516918D01*
X112375828Y-79516918D02*
X112304400Y-79374061D01*
X112304400Y-79374061D02*
X112161542Y-79302632D01*
X112161542Y-79302632D02*
X112090114Y-79302632D01*
X112090114Y-79302632D02*
X111947257Y-79374061D01*
X111947257Y-79374061D02*
X111875828Y-79516918D01*
X111875828Y-79516918D02*
X111875828Y-79731204D01*
X111875828Y-79731204D02*
X111804400Y-79874061D01*
X111804400Y-79874061D02*
X111661542Y-79945489D01*
X111661542Y-79945489D02*
X111590114Y-79945489D01*
X111590114Y-79945489D02*
X111447257Y-79874061D01*
X111447257Y-79874061D02*
X111375828Y-79731204D01*
X111375828Y-79731204D02*
X111375828Y-79516918D01*
X111375828Y-79516918D02*
X111447257Y-79374061D01*
X137079510Y-117475828D02*
X137079510Y-115975828D01*
X137722368Y-116118685D02*
X137793796Y-116047257D01*
X137793796Y-116047257D02*
X137936654Y-115975828D01*
X137936654Y-115975828D02*
X138293796Y-115975828D01*
X138293796Y-115975828D02*
X138436654Y-116047257D01*
X138436654Y-116047257D02*
X138508082Y-116118685D01*
X138508082Y-116118685D02*
X138579511Y-116261542D01*
X138579511Y-116261542D02*
X138579511Y-116404400D01*
X138579511Y-116404400D02*
X138508082Y-116618685D01*
X138508082Y-116618685D02*
X137650939Y-117475828D01*
X137650939Y-117475828D02*
X138579511Y-117475828D01*
X140079510Y-117332971D02*
X140008082Y-117404400D01*
X140008082Y-117404400D02*
X139793796Y-117475828D01*
X139793796Y-117475828D02*
X139650939Y-117475828D01*
X139650939Y-117475828D02*
X139436653Y-117404400D01*
X139436653Y-117404400D02*
X139293796Y-117261542D01*
X139293796Y-117261542D02*
X139222367Y-117118685D01*
X139222367Y-117118685D02*
X139150939Y-116832971D01*
X139150939Y-116832971D02*
X139150939Y-116618685D01*
X139150939Y-116618685D02*
X139222367Y-116332971D01*
X139222367Y-116332971D02*
X139293796Y-116190114D01*
X139293796Y-116190114D02*
X139436653Y-116047257D01*
X139436653Y-116047257D02*
X139650939Y-115975828D01*
X139650939Y-115975828D02*
X139793796Y-115975828D01*
X139793796Y-115975828D02*
X140008082Y-116047257D01*
X140008082Y-116047257D02*
X140079510Y-116118685D01*
X165429510Y-116690114D02*
X165643796Y-116761542D01*
X165643796Y-116761542D02*
X165715225Y-116832971D01*
X165715225Y-116832971D02*
X165786653Y-116975828D01*
X165786653Y-116975828D02*
X165786653Y-117190114D01*
X165786653Y-117190114D02*
X165715225Y-117332971D01*
X165715225Y-117332971D02*
X165643796Y-117404400D01*
X165643796Y-117404400D02*
X165500939Y-117475828D01*
X165500939Y-117475828D02*
X164929510Y-117475828D01*
X164929510Y-117475828D02*
X164929510Y-115975828D01*
X164929510Y-115975828D02*
X165429510Y-115975828D01*
X165429510Y-115975828D02*
X165572368Y-116047257D01*
X165572368Y-116047257D02*
X165643796Y-116118685D01*
X165643796Y-116118685D02*
X165715225Y-116261542D01*
X165715225Y-116261542D02*
X165715225Y-116404400D01*
X165715225Y-116404400D02*
X165643796Y-116547257D01*
X165643796Y-116547257D02*
X165572368Y-116618685D01*
X165572368Y-116618685D02*
X165429510Y-116690114D01*
X165429510Y-116690114D02*
X164929510Y-116690114D01*
X166429510Y-117475828D02*
X166429510Y-116475828D01*
X166429510Y-116761542D02*
X166500939Y-116618685D01*
X166500939Y-116618685D02*
X166572368Y-116547257D01*
X166572368Y-116547257D02*
X166715225Y-116475828D01*
X166715225Y-116475828D02*
X166858082Y-116475828D01*
X167929510Y-117404400D02*
X167786653Y-117475828D01*
X167786653Y-117475828D02*
X167500939Y-117475828D01*
X167500939Y-117475828D02*
X167358081Y-117404400D01*
X167358081Y-117404400D02*
X167286653Y-117261542D01*
X167286653Y-117261542D02*
X167286653Y-116690114D01*
X167286653Y-116690114D02*
X167358081Y-116547257D01*
X167358081Y-116547257D02*
X167500939Y-116475828D01*
X167500939Y-116475828D02*
X167786653Y-116475828D01*
X167786653Y-116475828D02*
X167929510Y-116547257D01*
X167929510Y-116547257D02*
X168000939Y-116690114D01*
X168000939Y-116690114D02*
X168000939Y-116832971D01*
X168000939Y-116832971D02*
X167286653Y-116975828D01*
X168500938Y-116475828D02*
X168786653Y-117475828D01*
X168786653Y-117475828D02*
X169072367Y-116761542D01*
X169072367Y-116761542D02*
X169358081Y-117475828D01*
X169358081Y-117475828D02*
X169643795Y-116475828D01*
X171229400Y-79141917D02*
X171300828Y-78927632D01*
X171300828Y-78927632D02*
X171300828Y-78570489D01*
X171300828Y-78570489D02*
X171229400Y-78427632D01*
X171229400Y-78427632D02*
X171157971Y-78356203D01*
X171157971Y-78356203D02*
X171015114Y-78284774D01*
X171015114Y-78284774D02*
X170872257Y-78284774D01*
X170872257Y-78284774D02*
X170729400Y-78356203D01*
X170729400Y-78356203D02*
X170657971Y-78427632D01*
X170657971Y-78427632D02*
X170586542Y-78570489D01*
X170586542Y-78570489D02*
X170515114Y-78856203D01*
X170515114Y-78856203D02*
X170443685Y-78999060D01*
X170443685Y-78999060D02*
X170372257Y-79070489D01*
X170372257Y-79070489D02*
X170229400Y-79141917D01*
X170229400Y-79141917D02*
X170086542Y-79141917D01*
X170086542Y-79141917D02*
X169943685Y-79070489D01*
X169943685Y-79070489D02*
X169872257Y-78999060D01*
X169872257Y-78999060D02*
X169800828Y-78856203D01*
X169800828Y-78856203D02*
X169800828Y-78499060D01*
X169800828Y-78499060D02*
X169872257Y-78284774D01*
X171229400Y-77713346D02*
X171300828Y-77499061D01*
X171300828Y-77499061D02*
X171300828Y-77141918D01*
X171300828Y-77141918D02*
X171229400Y-76999061D01*
X171229400Y-76999061D02*
X171157971Y-76927632D01*
X171157971Y-76927632D02*
X171015114Y-76856203D01*
X171015114Y-76856203D02*
X170872257Y-76856203D01*
X170872257Y-76856203D02*
X170729400Y-76927632D01*
X170729400Y-76927632D02*
X170657971Y-76999061D01*
X170657971Y-76999061D02*
X170586542Y-77141918D01*
X170586542Y-77141918D02*
X170515114Y-77427632D01*
X170515114Y-77427632D02*
X170443685Y-77570489D01*
X170443685Y-77570489D02*
X170372257Y-77641918D01*
X170372257Y-77641918D02*
X170229400Y-77713346D01*
X170229400Y-77713346D02*
X170086542Y-77713346D01*
X170086542Y-77713346D02*
X169943685Y-77641918D01*
X169943685Y-77641918D02*
X169872257Y-77570489D01*
X169872257Y-77570489D02*
X169800828Y-77427632D01*
X169800828Y-77427632D02*
X169800828Y-77070489D01*
X169800828Y-77070489D02*
X169872257Y-76856203D01*
X171300828Y-75356204D02*
X170586542Y-75856204D01*
X171300828Y-76213347D02*
X169800828Y-76213347D01*
X169800828Y-76213347D02*
X169800828Y-75641918D01*
X169800828Y-75641918D02*
X169872257Y-75499061D01*
X169872257Y-75499061D02*
X169943685Y-75427632D01*
X169943685Y-75427632D02*
X170086542Y-75356204D01*
X170086542Y-75356204D02*
X170300828Y-75356204D01*
X170300828Y-75356204D02*
X170443685Y-75427632D01*
X170443685Y-75427632D02*
X170515114Y-75499061D01*
X170515114Y-75499061D02*
X170586542Y-75641918D01*
X170586542Y-75641918D02*
X170586542Y-76213347D01*
X171229400Y-72927633D02*
X171300828Y-73070490D01*
X171300828Y-73070490D02*
X171300828Y-73356204D01*
X171300828Y-73356204D02*
X171229400Y-73499061D01*
X171229400Y-73499061D02*
X171157971Y-73570490D01*
X171157971Y-73570490D02*
X171015114Y-73641918D01*
X171015114Y-73641918D02*
X170586542Y-73641918D01*
X170586542Y-73641918D02*
X170443685Y-73570490D01*
X170443685Y-73570490D02*
X170372257Y-73499061D01*
X170372257Y-73499061D02*
X170300828Y-73356204D01*
X170300828Y-73356204D02*
X170300828Y-73070490D01*
X170300828Y-73070490D02*
X170372257Y-72927633D01*
X171300828Y-72070490D02*
X171229400Y-72213347D01*
X171229400Y-72213347D02*
X171157971Y-72284776D01*
X171157971Y-72284776D02*
X171015114Y-72356204D01*
X171015114Y-72356204D02*
X170586542Y-72356204D01*
X170586542Y-72356204D02*
X170443685Y-72284776D01*
X170443685Y-72284776D02*
X170372257Y-72213347D01*
X170372257Y-72213347D02*
X170300828Y-72070490D01*
X170300828Y-72070490D02*
X170300828Y-71856204D01*
X170300828Y-71856204D02*
X170372257Y-71713347D01*
X170372257Y-71713347D02*
X170443685Y-71641919D01*
X170443685Y-71641919D02*
X170586542Y-71570490D01*
X170586542Y-71570490D02*
X171015114Y-71570490D01*
X171015114Y-71570490D02*
X171157971Y-71641919D01*
X171157971Y-71641919D02*
X171229400Y-71713347D01*
X171229400Y-71713347D02*
X171300828Y-71856204D01*
X171300828Y-71856204D02*
X171300828Y-72070490D01*
X170300828Y-70927633D02*
X171300828Y-70927633D01*
X170443685Y-70927633D02*
X170372257Y-70856204D01*
X170372257Y-70856204D02*
X170300828Y-70713347D01*
X170300828Y-70713347D02*
X170300828Y-70499061D01*
X170300828Y-70499061D02*
X170372257Y-70356204D01*
X170372257Y-70356204D02*
X170515114Y-70284776D01*
X170515114Y-70284776D02*
X171300828Y-70284776D01*
X170300828Y-69784775D02*
X170300828Y-69213347D01*
X169800828Y-69570490D02*
X171086542Y-69570490D01*
X171086542Y-69570490D02*
X171229400Y-69499061D01*
X171229400Y-69499061D02*
X171300828Y-69356204D01*
X171300828Y-69356204D02*
X171300828Y-69213347D01*
X171300828Y-68713347D02*
X170300828Y-68713347D01*
X170586542Y-68713347D02*
X170443685Y-68641918D01*
X170443685Y-68641918D02*
X170372257Y-68570490D01*
X170372257Y-68570490D02*
X170300828Y-68427632D01*
X170300828Y-68427632D02*
X170300828Y-68284775D01*
X171300828Y-67570490D02*
X171229400Y-67713347D01*
X171229400Y-67713347D02*
X171157971Y-67784776D01*
X171157971Y-67784776D02*
X171015114Y-67856204D01*
X171015114Y-67856204D02*
X170586542Y-67856204D01*
X170586542Y-67856204D02*
X170443685Y-67784776D01*
X170443685Y-67784776D02*
X170372257Y-67713347D01*
X170372257Y-67713347D02*
X170300828Y-67570490D01*
X170300828Y-67570490D02*
X170300828Y-67356204D01*
X170300828Y-67356204D02*
X170372257Y-67213347D01*
X170372257Y-67213347D02*
X170443685Y-67141919D01*
X170443685Y-67141919D02*
X170586542Y-67070490D01*
X170586542Y-67070490D02*
X171015114Y-67070490D01*
X171015114Y-67070490D02*
X171157971Y-67141919D01*
X171157971Y-67141919D02*
X171229400Y-67213347D01*
X171229400Y-67213347D02*
X171300828Y-67356204D01*
X171300828Y-67356204D02*
X171300828Y-67570490D01*
X171300828Y-66213347D02*
X171229400Y-66356204D01*
X171229400Y-66356204D02*
X171086542Y-66427633D01*
X171086542Y-66427633D02*
X169800828Y-66427633D01*
X171300828Y-98695489D02*
X169800828Y-98695489D01*
X169800828Y-97695488D02*
X169800828Y-97409774D01*
X169800828Y-97409774D02*
X169872257Y-97266917D01*
X169872257Y-97266917D02*
X170015114Y-97124060D01*
X170015114Y-97124060D02*
X170300828Y-97052631D01*
X170300828Y-97052631D02*
X170800828Y-97052631D01*
X170800828Y-97052631D02*
X171086542Y-97124060D01*
X171086542Y-97124060D02*
X171229400Y-97266917D01*
X171229400Y-97266917D02*
X171300828Y-97409774D01*
X171300828Y-97409774D02*
X171300828Y-97695488D01*
X171300828Y-97695488D02*
X171229400Y-97838346D01*
X171229400Y-97838346D02*
X171086542Y-97981203D01*
X171086542Y-97981203D02*
X170800828Y-98052631D01*
X170800828Y-98052631D02*
X170300828Y-98052631D01*
X170300828Y-98052631D02*
X170015114Y-97981203D01*
X170015114Y-97981203D02*
X169872257Y-97838346D01*
X169872257Y-97838346D02*
X169800828Y-97695488D01*
X169943685Y-96481202D02*
X169872257Y-96409774D01*
X169872257Y-96409774D02*
X169800828Y-96266917D01*
X169800828Y-96266917D02*
X169800828Y-95909774D01*
X169800828Y-95909774D02*
X169872257Y-95766917D01*
X169872257Y-95766917D02*
X169943685Y-95695488D01*
X169943685Y-95695488D02*
X170086542Y-95624059D01*
X170086542Y-95624059D02*
X170229400Y-95624059D01*
X170229400Y-95624059D02*
X170443685Y-95695488D01*
X170443685Y-95695488D02*
X171300828Y-96552631D01*
X171300828Y-96552631D02*
X171300828Y-95624059D01*
X112375828Y-100695489D02*
X110875828Y-100695489D01*
X110875828Y-100695489D02*
X110875828Y-100124060D01*
X110875828Y-100124060D02*
X110947257Y-99981203D01*
X110947257Y-99981203D02*
X111018685Y-99909774D01*
X111018685Y-99909774D02*
X111161542Y-99838346D01*
X111161542Y-99838346D02*
X111375828Y-99838346D01*
X111375828Y-99838346D02*
X111518685Y-99909774D01*
X111518685Y-99909774D02*
X111590114Y-99981203D01*
X111590114Y-99981203D02*
X111661542Y-100124060D01*
X111661542Y-100124060D02*
X111661542Y-100695489D01*
X111375828Y-98552632D02*
X112375828Y-98552632D01*
X111375828Y-99195489D02*
X112161542Y-99195489D01*
X112161542Y-99195489D02*
X112304400Y-99124060D01*
X112304400Y-99124060D02*
X112375828Y-98981203D01*
X112375828Y-98981203D02*
X112375828Y-98766917D01*
X112375828Y-98766917D02*
X112304400Y-98624060D01*
X112304400Y-98624060D02*
X112232971Y-98552632D01*
X112375828Y-97838346D02*
X111375828Y-97838346D01*
X111518685Y-97838346D02*
X111447257Y-97766917D01*
X111447257Y-97766917D02*
X111375828Y-97624060D01*
X111375828Y-97624060D02*
X111375828Y-97409774D01*
X111375828Y-97409774D02*
X111447257Y-97266917D01*
X111447257Y-97266917D02*
X111590114Y-97195489D01*
X111590114Y-97195489D02*
X112375828Y-97195489D01*
X111590114Y-97195489D02*
X111447257Y-97124060D01*
X111447257Y-97124060D02*
X111375828Y-96981203D01*
X111375828Y-96981203D02*
X111375828Y-96766917D01*
X111375828Y-96766917D02*
X111447257Y-96624060D01*
X111447257Y-96624060D02*
X111590114Y-96552631D01*
X111590114Y-96552631D02*
X112375828Y-96552631D01*
X111375828Y-95838346D02*
X112875828Y-95838346D01*
X111447257Y-95838346D02*
X111375828Y-95695489D01*
X111375828Y-95695489D02*
X111375828Y-95409774D01*
X111375828Y-95409774D02*
X111447257Y-95266917D01*
X111447257Y-95266917D02*
X111518685Y-95195489D01*
X111518685Y-95195489D02*
X111661542Y-95124060D01*
X111661542Y-95124060D02*
X112090114Y-95124060D01*
X112090114Y-95124060D02*
X112232971Y-95195489D01*
X112232971Y-95195489D02*
X112304400Y-95266917D01*
X112304400Y-95266917D02*
X112375828Y-95409774D01*
X112375828Y-95409774D02*
X112375828Y-95695489D01*
X112375828Y-95695489D02*
X112304400Y-95838346D01*
X162642857Y-56242971D02*
X162571429Y-56314400D01*
X162571429Y-56314400D02*
X162357143Y-56385828D01*
X162357143Y-56385828D02*
X162214286Y-56385828D01*
X162214286Y-56385828D02*
X162000000Y-56314400D01*
X162000000Y-56314400D02*
X161857143Y-56171542D01*
X161857143Y-56171542D02*
X161785714Y-56028685D01*
X161785714Y-56028685D02*
X161714286Y-55742971D01*
X161714286Y-55742971D02*
X161714286Y-55528685D01*
X161714286Y-55528685D02*
X161785714Y-55242971D01*
X161785714Y-55242971D02*
X161857143Y-55100114D01*
X161857143Y-55100114D02*
X162000000Y-54957257D01*
X162000000Y-54957257D02*
X162214286Y-54885828D01*
X162214286Y-54885828D02*
X162357143Y-54885828D01*
X162357143Y-54885828D02*
X162571429Y-54957257D01*
X162571429Y-54957257D02*
X162642857Y-55028685D01*
X163500000Y-56385828D02*
X163357143Y-56314400D01*
X163357143Y-56314400D02*
X163285714Y-56242971D01*
X163285714Y-56242971D02*
X163214286Y-56100114D01*
X163214286Y-56100114D02*
X163214286Y-55671542D01*
X163214286Y-55671542D02*
X163285714Y-55528685D01*
X163285714Y-55528685D02*
X163357143Y-55457257D01*
X163357143Y-55457257D02*
X163500000Y-55385828D01*
X163500000Y-55385828D02*
X163714286Y-55385828D01*
X163714286Y-55385828D02*
X163857143Y-55457257D01*
X163857143Y-55457257D02*
X163928572Y-55528685D01*
X163928572Y-55528685D02*
X164000000Y-55671542D01*
X164000000Y-55671542D02*
X164000000Y-56100114D01*
X164000000Y-56100114D02*
X163928572Y-56242971D01*
X163928572Y-56242971D02*
X163857143Y-56314400D01*
X163857143Y-56314400D02*
X163714286Y-56385828D01*
X163714286Y-56385828D02*
X163500000Y-56385828D01*
X164428572Y-55385828D02*
X165000000Y-55385828D01*
X164642857Y-56385828D02*
X164642857Y-55100114D01*
X164642857Y-55100114D02*
X164714286Y-54957257D01*
X164714286Y-54957257D02*
X164857143Y-54885828D01*
X164857143Y-54885828D02*
X165000000Y-54885828D01*
X165285715Y-55385828D02*
X165857143Y-55385828D01*
X165500000Y-56385828D02*
X165500000Y-55100114D01*
X165500000Y-55100114D02*
X165571429Y-54957257D01*
X165571429Y-54957257D02*
X165714286Y-54885828D01*
X165714286Y-54885828D02*
X165857143Y-54885828D01*
X166928572Y-56314400D02*
X166785715Y-56385828D01*
X166785715Y-56385828D02*
X166500001Y-56385828D01*
X166500001Y-56385828D02*
X166357143Y-56314400D01*
X166357143Y-56314400D02*
X166285715Y-56171542D01*
X166285715Y-56171542D02*
X166285715Y-55600114D01*
X166285715Y-55600114D02*
X166357143Y-55457257D01*
X166357143Y-55457257D02*
X166500001Y-55385828D01*
X166500001Y-55385828D02*
X166785715Y-55385828D01*
X166785715Y-55385828D02*
X166928572Y-55457257D01*
X166928572Y-55457257D02*
X167000001Y-55600114D01*
X167000001Y-55600114D02*
X167000001Y-55742971D01*
X167000001Y-55742971D02*
X166285715Y-55885828D01*
X168214286Y-56314400D02*
X168071429Y-56385828D01*
X168071429Y-56385828D02*
X167785715Y-56385828D01*
X167785715Y-56385828D02*
X167642857Y-56314400D01*
X167642857Y-56314400D02*
X167571429Y-56171542D01*
X167571429Y-56171542D02*
X167571429Y-55600114D01*
X167571429Y-55600114D02*
X167642857Y-55457257D01*
X167642857Y-55457257D02*
X167785715Y-55385828D01*
X167785715Y-55385828D02*
X168071429Y-55385828D01*
X168071429Y-55385828D02*
X168214286Y-55457257D01*
X168214286Y-55457257D02*
X168285715Y-55600114D01*
X168285715Y-55600114D02*
X168285715Y-55742971D01*
X168285715Y-55742971D02*
X167571429Y-55885828D01*
X162571428Y-58015114D02*
X162785714Y-58086542D01*
X162785714Y-58086542D02*
X162857143Y-58157971D01*
X162857143Y-58157971D02*
X162928571Y-58300828D01*
X162928571Y-58300828D02*
X162928571Y-58515114D01*
X162928571Y-58515114D02*
X162857143Y-58657971D01*
X162857143Y-58657971D02*
X162785714Y-58729400D01*
X162785714Y-58729400D02*
X162642857Y-58800828D01*
X162642857Y-58800828D02*
X162071428Y-58800828D01*
X162071428Y-58800828D02*
X162071428Y-57300828D01*
X162071428Y-57300828D02*
X162571428Y-57300828D01*
X162571428Y-57300828D02*
X162714286Y-57372257D01*
X162714286Y-57372257D02*
X162785714Y-57443685D01*
X162785714Y-57443685D02*
X162857143Y-57586542D01*
X162857143Y-57586542D02*
X162857143Y-57729400D01*
X162857143Y-57729400D02*
X162785714Y-57872257D01*
X162785714Y-57872257D02*
X162714286Y-57943685D01*
X162714286Y-57943685D02*
X162571428Y-58015114D01*
X162571428Y-58015114D02*
X162071428Y-58015114D01*
X163785714Y-58800828D02*
X163642857Y-58729400D01*
X163642857Y-58729400D02*
X163571428Y-58657971D01*
X163571428Y-58657971D02*
X163500000Y-58515114D01*
X163500000Y-58515114D02*
X163500000Y-58086542D01*
X163500000Y-58086542D02*
X163571428Y-57943685D01*
X163571428Y-57943685D02*
X163642857Y-57872257D01*
X163642857Y-57872257D02*
X163785714Y-57800828D01*
X163785714Y-57800828D02*
X164000000Y-57800828D01*
X164000000Y-57800828D02*
X164142857Y-57872257D01*
X164142857Y-57872257D02*
X164214286Y-57943685D01*
X164214286Y-57943685D02*
X164285714Y-58086542D01*
X164285714Y-58086542D02*
X164285714Y-58515114D01*
X164285714Y-58515114D02*
X164214286Y-58657971D01*
X164214286Y-58657971D02*
X164142857Y-58729400D01*
X164142857Y-58729400D02*
X164000000Y-58800828D01*
X164000000Y-58800828D02*
X163785714Y-58800828D01*
X164928571Y-58800828D02*
X164928571Y-57800828D01*
X164928571Y-57300828D02*
X164857143Y-57372257D01*
X164857143Y-57372257D02*
X164928571Y-57443685D01*
X164928571Y-57443685D02*
X165000000Y-57372257D01*
X165000000Y-57372257D02*
X164928571Y-57300828D01*
X164928571Y-57300828D02*
X164928571Y-57443685D01*
X165857143Y-58800828D02*
X165714286Y-58729400D01*
X165714286Y-58729400D02*
X165642857Y-58586542D01*
X165642857Y-58586542D02*
X165642857Y-57300828D01*
X167000000Y-58729400D02*
X166857143Y-58800828D01*
X166857143Y-58800828D02*
X166571429Y-58800828D01*
X166571429Y-58800828D02*
X166428571Y-58729400D01*
X166428571Y-58729400D02*
X166357143Y-58586542D01*
X166357143Y-58586542D02*
X166357143Y-58015114D01*
X166357143Y-58015114D02*
X166428571Y-57872257D01*
X166428571Y-57872257D02*
X166571429Y-57800828D01*
X166571429Y-57800828D02*
X166857143Y-57800828D01*
X166857143Y-57800828D02*
X167000000Y-57872257D01*
X167000000Y-57872257D02*
X167071429Y-58015114D01*
X167071429Y-58015114D02*
X167071429Y-58157971D01*
X167071429Y-58157971D02*
X166357143Y-58300828D01*
X167714285Y-58800828D02*
X167714285Y-57800828D01*
X167714285Y-58086542D02*
X167785714Y-57943685D01*
X167785714Y-57943685D02*
X167857143Y-57872257D01*
X167857143Y-57872257D02*
X168000000Y-57800828D01*
X168000000Y-57800828D02*
X168142857Y-57800828D01*
X112375828Y-70095489D02*
X110875828Y-70095489D01*
X110875828Y-70095489D02*
X110875828Y-69738346D01*
X110875828Y-69738346D02*
X110947257Y-69524060D01*
X110947257Y-69524060D02*
X111090114Y-69381203D01*
X111090114Y-69381203D02*
X111232971Y-69309774D01*
X111232971Y-69309774D02*
X111518685Y-69238346D01*
X111518685Y-69238346D02*
X111732971Y-69238346D01*
X111732971Y-69238346D02*
X112018685Y-69309774D01*
X112018685Y-69309774D02*
X112161542Y-69381203D01*
X112161542Y-69381203D02*
X112304400Y-69524060D01*
X112304400Y-69524060D02*
X112375828Y-69738346D01*
X112375828Y-69738346D02*
X112375828Y-70095489D01*
X112375828Y-68595489D02*
X111375828Y-68595489D01*
X110875828Y-68595489D02*
X110947257Y-68666917D01*
X110947257Y-68666917D02*
X111018685Y-68595489D01*
X111018685Y-68595489D02*
X110947257Y-68524060D01*
X110947257Y-68524060D02*
X110875828Y-68595489D01*
X110875828Y-68595489D02*
X111018685Y-68595489D01*
X112375828Y-67238346D02*
X111590114Y-67238346D01*
X111590114Y-67238346D02*
X111447257Y-67309774D01*
X111447257Y-67309774D02*
X111375828Y-67452631D01*
X111375828Y-67452631D02*
X111375828Y-67738346D01*
X111375828Y-67738346D02*
X111447257Y-67881203D01*
X112304400Y-67238346D02*
X112375828Y-67381203D01*
X112375828Y-67381203D02*
X112375828Y-67738346D01*
X112375828Y-67738346D02*
X112304400Y-67881203D01*
X112304400Y-67881203D02*
X112161542Y-67952631D01*
X112161542Y-67952631D02*
X112018685Y-67952631D01*
X112018685Y-67952631D02*
X111875828Y-67881203D01*
X111875828Y-67881203D02*
X111804400Y-67738346D01*
X111804400Y-67738346D02*
X111804400Y-67381203D01*
X111804400Y-67381203D02*
X111732971Y-67238346D01*
X112375828Y-66309774D02*
X112304400Y-66452631D01*
X112304400Y-66452631D02*
X112161542Y-66524060D01*
X112161542Y-66524060D02*
X110875828Y-66524060D01*
X137883082Y-62504400D02*
X138097368Y-62575828D01*
X138097368Y-62575828D02*
X138454510Y-62575828D01*
X138454510Y-62575828D02*
X138597368Y-62504400D01*
X138597368Y-62504400D02*
X138668796Y-62432971D01*
X138668796Y-62432971D02*
X138740225Y-62290114D01*
X138740225Y-62290114D02*
X138740225Y-62147257D01*
X138740225Y-62147257D02*
X138668796Y-62004400D01*
X138668796Y-62004400D02*
X138597368Y-61932971D01*
X138597368Y-61932971D02*
X138454510Y-61861542D01*
X138454510Y-61861542D02*
X138168796Y-61790114D01*
X138168796Y-61790114D02*
X138025939Y-61718685D01*
X138025939Y-61718685D02*
X137954510Y-61647257D01*
X137954510Y-61647257D02*
X137883082Y-61504400D01*
X137883082Y-61504400D02*
X137883082Y-61361542D01*
X137883082Y-61361542D02*
X137954510Y-61218685D01*
X137954510Y-61218685D02*
X138025939Y-61147257D01*
X138025939Y-61147257D02*
X138168796Y-61075828D01*
X138168796Y-61075828D02*
X138525939Y-61075828D01*
X138525939Y-61075828D02*
X138740225Y-61147257D01*
X139383081Y-62575828D02*
X139383081Y-61075828D01*
X139383081Y-61075828D02*
X139954510Y-61075828D01*
X139954510Y-61075828D02*
X140097367Y-61147257D01*
X140097367Y-61147257D02*
X140168796Y-61218685D01*
X140168796Y-61218685D02*
X140240224Y-61361542D01*
X140240224Y-61361542D02*
X140240224Y-61575828D01*
X140240224Y-61575828D02*
X140168796Y-61718685D01*
X140168796Y-61718685D02*
X140097367Y-61790114D01*
X140097367Y-61790114D02*
X139954510Y-61861542D01*
X139954510Y-61861542D02*
X139383081Y-61861542D01*
X140883081Y-62575828D02*
X140883081Y-61075828D01*
D11*
X138932142Y-91304819D02*
X138598809Y-90828628D01*
X138360714Y-91304819D02*
X138360714Y-90304819D01*
X138360714Y-90304819D02*
X138741666Y-90304819D01*
X138741666Y-90304819D02*
X138836904Y-90352438D01*
X138836904Y-90352438D02*
X138884523Y-90400057D01*
X138884523Y-90400057D02*
X138932142Y-90495295D01*
X138932142Y-90495295D02*
X138932142Y-90638152D01*
X138932142Y-90638152D02*
X138884523Y-90733390D01*
X138884523Y-90733390D02*
X138836904Y-90781009D01*
X138836904Y-90781009D02*
X138741666Y-90828628D01*
X138741666Y-90828628D02*
X138360714Y-90828628D01*
X139884523Y-91304819D02*
X139313095Y-91304819D01*
X139598809Y-91304819D02*
X139598809Y-90304819D01*
X139598809Y-90304819D02*
X139503571Y-90447676D01*
X139503571Y-90447676D02*
X139408333Y-90542914D01*
X139408333Y-90542914D02*
X139313095Y-90590533D01*
X140503571Y-90304819D02*
X140598809Y-90304819D01*
X140598809Y-90304819D02*
X140694047Y-90352438D01*
X140694047Y-90352438D02*
X140741666Y-90400057D01*
X140741666Y-90400057D02*
X140789285Y-90495295D01*
X140789285Y-90495295D02*
X140836904Y-90685771D01*
X140836904Y-90685771D02*
X140836904Y-90923866D01*
X140836904Y-90923866D02*
X140789285Y-91114342D01*
X140789285Y-91114342D02*
X140741666Y-91209580D01*
X140741666Y-91209580D02*
X140694047Y-91257200D01*
X140694047Y-91257200D02*
X140598809Y-91304819D01*
X140598809Y-91304819D02*
X140503571Y-91304819D01*
X140503571Y-91304819D02*
X140408333Y-91257200D01*
X140408333Y-91257200D02*
X140360714Y-91209580D01*
X140360714Y-91209580D02*
X140313095Y-91114342D01*
X140313095Y-91114342D02*
X140265476Y-90923866D01*
X140265476Y-90923866D02*
X140265476Y-90685771D01*
X140265476Y-90685771D02*
X140313095Y-90495295D01*
X140313095Y-90495295D02*
X140360714Y-90400057D01*
X140360714Y-90400057D02*
X140408333Y-90352438D01*
X140408333Y-90352438D02*
X140503571Y-90304819D01*
X124354819Y-71411904D02*
X125164342Y-71411904D01*
X125164342Y-71411904D02*
X125259580Y-71364285D01*
X125259580Y-71364285D02*
X125307200Y-71316666D01*
X125307200Y-71316666D02*
X125354819Y-71221428D01*
X125354819Y-71221428D02*
X125354819Y-71030952D01*
X125354819Y-71030952D02*
X125307200Y-70935714D01*
X125307200Y-70935714D02*
X125259580Y-70888095D01*
X125259580Y-70888095D02*
X125164342Y-70840476D01*
X125164342Y-70840476D02*
X124354819Y-70840476D01*
X124354819Y-69888095D02*
X124354819Y-70364285D01*
X124354819Y-70364285D02*
X124831009Y-70411904D01*
X124831009Y-70411904D02*
X124783390Y-70364285D01*
X124783390Y-70364285D02*
X124735771Y-70269047D01*
X124735771Y-70269047D02*
X124735771Y-70030952D01*
X124735771Y-70030952D02*
X124783390Y-69935714D01*
X124783390Y-69935714D02*
X124831009Y-69888095D01*
X124831009Y-69888095D02*
X124926247Y-69840476D01*
X124926247Y-69840476D02*
X125164342Y-69840476D01*
X125164342Y-69840476D02*
X125259580Y-69888095D01*
X125259580Y-69888095D02*
X125307200Y-69935714D01*
X125307200Y-69935714D02*
X125354819Y-70030952D01*
X125354819Y-70030952D02*
X125354819Y-70269047D01*
X125354819Y-70269047D02*
X125307200Y-70364285D01*
X125307200Y-70364285D02*
X125259580Y-70411904D01*
X165899580Y-69676666D02*
X165947200Y-69724285D01*
X165947200Y-69724285D02*
X165994819Y-69867142D01*
X165994819Y-69867142D02*
X165994819Y-69962380D01*
X165994819Y-69962380D02*
X165947200Y-70105237D01*
X165947200Y-70105237D02*
X165851961Y-70200475D01*
X165851961Y-70200475D02*
X165756723Y-70248094D01*
X165756723Y-70248094D02*
X165566247Y-70295713D01*
X165566247Y-70295713D02*
X165423390Y-70295713D01*
X165423390Y-70295713D02*
X165232914Y-70248094D01*
X165232914Y-70248094D02*
X165137676Y-70200475D01*
X165137676Y-70200475D02*
X165042438Y-70105237D01*
X165042438Y-70105237D02*
X164994819Y-69962380D01*
X164994819Y-69962380D02*
X164994819Y-69867142D01*
X164994819Y-69867142D02*
X165042438Y-69724285D01*
X165042438Y-69724285D02*
X165090057Y-69676666D01*
X165090057Y-69295713D02*
X165042438Y-69248094D01*
X165042438Y-69248094D02*
X164994819Y-69152856D01*
X164994819Y-69152856D02*
X164994819Y-68914761D01*
X164994819Y-68914761D02*
X165042438Y-68819523D01*
X165042438Y-68819523D02*
X165090057Y-68771904D01*
X165090057Y-68771904D02*
X165185295Y-68724285D01*
X165185295Y-68724285D02*
X165280533Y-68724285D01*
X165280533Y-68724285D02*
X165423390Y-68771904D01*
X165423390Y-68771904D02*
X165994819Y-69343332D01*
X165994819Y-69343332D02*
X165994819Y-68724285D01*
X126079580Y-96136666D02*
X126127200Y-96184285D01*
X126127200Y-96184285D02*
X126174819Y-96327142D01*
X126174819Y-96327142D02*
X126174819Y-96422380D01*
X126174819Y-96422380D02*
X126127200Y-96565237D01*
X126127200Y-96565237D02*
X126031961Y-96660475D01*
X126031961Y-96660475D02*
X125936723Y-96708094D01*
X125936723Y-96708094D02*
X125746247Y-96755713D01*
X125746247Y-96755713D02*
X125603390Y-96755713D01*
X125603390Y-96755713D02*
X125412914Y-96708094D01*
X125412914Y-96708094D02*
X125317676Y-96660475D01*
X125317676Y-96660475D02*
X125222438Y-96565237D01*
X125222438Y-96565237D02*
X125174819Y-96422380D01*
X125174819Y-96422380D02*
X125174819Y-96327142D01*
X125174819Y-96327142D02*
X125222438Y-96184285D01*
X125222438Y-96184285D02*
X125270057Y-96136666D01*
X125174819Y-95803332D02*
X125174819Y-95136666D01*
X125174819Y-95136666D02*
X126174819Y-95565237D01*
X115540819Y-91316666D02*
X115064628Y-91649999D01*
X115540819Y-91888094D02*
X114540819Y-91888094D01*
X114540819Y-91888094D02*
X114540819Y-91507142D01*
X114540819Y-91507142D02*
X114588438Y-91411904D01*
X114588438Y-91411904D02*
X114636057Y-91364285D01*
X114636057Y-91364285D02*
X114731295Y-91316666D01*
X114731295Y-91316666D02*
X114874152Y-91316666D01*
X114874152Y-91316666D02*
X114969390Y-91364285D01*
X114969390Y-91364285D02*
X115017009Y-91411904D01*
X115017009Y-91411904D02*
X115064628Y-91507142D01*
X115064628Y-91507142D02*
X115064628Y-91888094D01*
X114540819Y-90411904D02*
X114540819Y-90888094D01*
X114540819Y-90888094D02*
X115017009Y-90935713D01*
X115017009Y-90935713D02*
X114969390Y-90888094D01*
X114969390Y-90888094D02*
X114921771Y-90792856D01*
X114921771Y-90792856D02*
X114921771Y-90554761D01*
X114921771Y-90554761D02*
X114969390Y-90459523D01*
X114969390Y-90459523D02*
X115017009Y-90411904D01*
X115017009Y-90411904D02*
X115112247Y-90364285D01*
X115112247Y-90364285D02*
X115350342Y-90364285D01*
X115350342Y-90364285D02*
X115445580Y-90411904D01*
X115445580Y-90411904D02*
X115493200Y-90459523D01*
X115493200Y-90459523D02*
X115540819Y-90554761D01*
X115540819Y-90554761D02*
X115540819Y-90792856D01*
X115540819Y-90792856D02*
X115493200Y-90888094D01*
X115493200Y-90888094D02*
X115445580Y-90935713D01*
X120279819Y-83916666D02*
X119803628Y-84249999D01*
X120279819Y-84488094D02*
X119279819Y-84488094D01*
X119279819Y-84488094D02*
X119279819Y-84107142D01*
X119279819Y-84107142D02*
X119327438Y-84011904D01*
X119327438Y-84011904D02*
X119375057Y-83964285D01*
X119375057Y-83964285D02*
X119470295Y-83916666D01*
X119470295Y-83916666D02*
X119613152Y-83916666D01*
X119613152Y-83916666D02*
X119708390Y-83964285D01*
X119708390Y-83964285D02*
X119756009Y-84011904D01*
X119756009Y-84011904D02*
X119803628Y-84107142D01*
X119803628Y-84107142D02*
X119803628Y-84488094D01*
X119279819Y-83059523D02*
X119279819Y-83249999D01*
X119279819Y-83249999D02*
X119327438Y-83345237D01*
X119327438Y-83345237D02*
X119375057Y-83392856D01*
X119375057Y-83392856D02*
X119517914Y-83488094D01*
X119517914Y-83488094D02*
X119708390Y-83535713D01*
X119708390Y-83535713D02*
X120089342Y-83535713D01*
X120089342Y-83535713D02*
X120184580Y-83488094D01*
X120184580Y-83488094D02*
X120232200Y-83440475D01*
X120232200Y-83440475D02*
X120279819Y-83345237D01*
X120279819Y-83345237D02*
X120279819Y-83154761D01*
X120279819Y-83154761D02*
X120232200Y-83059523D01*
X120232200Y-83059523D02*
X120184580Y-83011904D01*
X120184580Y-83011904D02*
X120089342Y-82964285D01*
X120089342Y-82964285D02*
X119851247Y-82964285D01*
X119851247Y-82964285D02*
X119756009Y-83011904D01*
X119756009Y-83011904D02*
X119708390Y-83059523D01*
X119708390Y-83059523D02*
X119660771Y-83154761D01*
X119660771Y-83154761D02*
X119660771Y-83345237D01*
X119660771Y-83345237D02*
X119708390Y-83440475D01*
X119708390Y-83440475D02*
X119756009Y-83488094D01*
X119756009Y-83488094D02*
X119851247Y-83535713D01*
X156618095Y-90794819D02*
X156618095Y-91604342D01*
X156618095Y-91604342D02*
X156665714Y-91699580D01*
X156665714Y-91699580D02*
X156713333Y-91747200D01*
X156713333Y-91747200D02*
X156808571Y-91794819D01*
X156808571Y-91794819D02*
X156999047Y-91794819D01*
X156999047Y-91794819D02*
X157094285Y-91747200D01*
X157094285Y-91747200D02*
X157141904Y-91699580D01*
X157141904Y-91699580D02*
X157189523Y-91604342D01*
X157189523Y-91604342D02*
X157189523Y-90794819D01*
X157618095Y-90890057D02*
X157665714Y-90842438D01*
X157665714Y-90842438D02*
X157760952Y-90794819D01*
X157760952Y-90794819D02*
X157999047Y-90794819D01*
X157999047Y-90794819D02*
X158094285Y-90842438D01*
X158094285Y-90842438D02*
X158141904Y-90890057D01*
X158141904Y-90890057D02*
X158189523Y-90985295D01*
X158189523Y-90985295D02*
X158189523Y-91080533D01*
X158189523Y-91080533D02*
X158141904Y-91223390D01*
X158141904Y-91223390D02*
X157570476Y-91794819D01*
X157570476Y-91794819D02*
X158189523Y-91794819D01*
X155934819Y-68900594D02*
X154934819Y-68900594D01*
X154934819Y-68900594D02*
X154934819Y-68662499D01*
X154934819Y-68662499D02*
X154982438Y-68519642D01*
X154982438Y-68519642D02*
X155077676Y-68424404D01*
X155077676Y-68424404D02*
X155172914Y-68376785D01*
X155172914Y-68376785D02*
X155363390Y-68329166D01*
X155363390Y-68329166D02*
X155506247Y-68329166D01*
X155506247Y-68329166D02*
X155696723Y-68376785D01*
X155696723Y-68376785D02*
X155791961Y-68424404D01*
X155791961Y-68424404D02*
X155887200Y-68519642D01*
X155887200Y-68519642D02*
X155934819Y-68662499D01*
X155934819Y-68662499D02*
X155934819Y-68900594D01*
X155934819Y-67376785D02*
X155934819Y-67948213D01*
X155934819Y-67662499D02*
X154934819Y-67662499D01*
X154934819Y-67662499D02*
X155077676Y-67757737D01*
X155077676Y-67757737D02*
X155172914Y-67852975D01*
X155172914Y-67852975D02*
X155220533Y-67948213D01*
X153283333Y-66009580D02*
X153235714Y-66057200D01*
X153235714Y-66057200D02*
X153092857Y-66104819D01*
X153092857Y-66104819D02*
X152997619Y-66104819D01*
X152997619Y-66104819D02*
X152854762Y-66057200D01*
X152854762Y-66057200D02*
X152759524Y-65961961D01*
X152759524Y-65961961D02*
X152711905Y-65866723D01*
X152711905Y-65866723D02*
X152664286Y-65676247D01*
X152664286Y-65676247D02*
X152664286Y-65533390D01*
X152664286Y-65533390D02*
X152711905Y-65342914D01*
X152711905Y-65342914D02*
X152759524Y-65247676D01*
X152759524Y-65247676D02*
X152854762Y-65152438D01*
X152854762Y-65152438D02*
X152997619Y-65104819D01*
X152997619Y-65104819D02*
X153092857Y-65104819D01*
X153092857Y-65104819D02*
X153235714Y-65152438D01*
X153235714Y-65152438D02*
X153283333Y-65200057D01*
X154188095Y-65104819D02*
X153711905Y-65104819D01*
X153711905Y-65104819D02*
X153664286Y-65581009D01*
X153664286Y-65581009D02*
X153711905Y-65533390D01*
X153711905Y-65533390D02*
X153807143Y-65485771D01*
X153807143Y-65485771D02*
X154045238Y-65485771D01*
X154045238Y-65485771D02*
X154140476Y-65533390D01*
X154140476Y-65533390D02*
X154188095Y-65581009D01*
X154188095Y-65581009D02*
X154235714Y-65676247D01*
X154235714Y-65676247D02*
X154235714Y-65914342D01*
X154235714Y-65914342D02*
X154188095Y-66009580D01*
X154188095Y-66009580D02*
X154140476Y-66057200D01*
X154140476Y-66057200D02*
X154045238Y-66104819D01*
X154045238Y-66104819D02*
X153807143Y-66104819D01*
X153807143Y-66104819D02*
X153711905Y-66057200D01*
X153711905Y-66057200D02*
X153664286Y-66009580D01*
X120279819Y-88291666D02*
X119803628Y-88624999D01*
X120279819Y-88863094D02*
X119279819Y-88863094D01*
X119279819Y-88863094D02*
X119279819Y-88482142D01*
X119279819Y-88482142D02*
X119327438Y-88386904D01*
X119327438Y-88386904D02*
X119375057Y-88339285D01*
X119375057Y-88339285D02*
X119470295Y-88291666D01*
X119470295Y-88291666D02*
X119613152Y-88291666D01*
X119613152Y-88291666D02*
X119708390Y-88339285D01*
X119708390Y-88339285D02*
X119756009Y-88386904D01*
X119756009Y-88386904D02*
X119803628Y-88482142D01*
X119803628Y-88482142D02*
X119803628Y-88863094D01*
X119613152Y-87434523D02*
X120279819Y-87434523D01*
X119232200Y-87672618D02*
X119946485Y-87910713D01*
X119946485Y-87910713D02*
X119946485Y-87291666D01*
X160254819Y-65042857D02*
X159778628Y-65376190D01*
X160254819Y-65614285D02*
X159254819Y-65614285D01*
X159254819Y-65614285D02*
X159254819Y-65233333D01*
X159254819Y-65233333D02*
X159302438Y-65138095D01*
X159302438Y-65138095D02*
X159350057Y-65090476D01*
X159350057Y-65090476D02*
X159445295Y-65042857D01*
X159445295Y-65042857D02*
X159588152Y-65042857D01*
X159588152Y-65042857D02*
X159683390Y-65090476D01*
X159683390Y-65090476D02*
X159731009Y-65138095D01*
X159731009Y-65138095D02*
X159778628Y-65233333D01*
X159778628Y-65233333D02*
X159778628Y-65614285D01*
X160254819Y-64090476D02*
X160254819Y-64661904D01*
X160254819Y-64376190D02*
X159254819Y-64376190D01*
X159254819Y-64376190D02*
X159397676Y-64471428D01*
X159397676Y-64471428D02*
X159492914Y-64566666D01*
X159492914Y-64566666D02*
X159540533Y-64661904D01*
X160254819Y-63138095D02*
X160254819Y-63709523D01*
X160254819Y-63423809D02*
X159254819Y-63423809D01*
X159254819Y-63423809D02*
X159397676Y-63519047D01*
X159397676Y-63519047D02*
X159492914Y-63614285D01*
X159492914Y-63614285D02*
X159540533Y-63709523D01*
X138779580Y-103286666D02*
X138827200Y-103334285D01*
X138827200Y-103334285D02*
X138874819Y-103477142D01*
X138874819Y-103477142D02*
X138874819Y-103572380D01*
X138874819Y-103572380D02*
X138827200Y-103715237D01*
X138827200Y-103715237D02*
X138731961Y-103810475D01*
X138731961Y-103810475D02*
X138636723Y-103858094D01*
X138636723Y-103858094D02*
X138446247Y-103905713D01*
X138446247Y-103905713D02*
X138303390Y-103905713D01*
X138303390Y-103905713D02*
X138112914Y-103858094D01*
X138112914Y-103858094D02*
X138017676Y-103810475D01*
X138017676Y-103810475D02*
X137922438Y-103715237D01*
X137922438Y-103715237D02*
X137874819Y-103572380D01*
X137874819Y-103572380D02*
X137874819Y-103477142D01*
X137874819Y-103477142D02*
X137922438Y-103334285D01*
X137922438Y-103334285D02*
X137970057Y-103286666D01*
X137874819Y-102429523D02*
X137874819Y-102619999D01*
X137874819Y-102619999D02*
X137922438Y-102715237D01*
X137922438Y-102715237D02*
X137970057Y-102762856D01*
X137970057Y-102762856D02*
X138112914Y-102858094D01*
X138112914Y-102858094D02*
X138303390Y-102905713D01*
X138303390Y-102905713D02*
X138684342Y-102905713D01*
X138684342Y-102905713D02*
X138779580Y-102858094D01*
X138779580Y-102858094D02*
X138827200Y-102810475D01*
X138827200Y-102810475D02*
X138874819Y-102715237D01*
X138874819Y-102715237D02*
X138874819Y-102524761D01*
X138874819Y-102524761D02*
X138827200Y-102429523D01*
X138827200Y-102429523D02*
X138779580Y-102381904D01*
X138779580Y-102381904D02*
X138684342Y-102334285D01*
X138684342Y-102334285D02*
X138446247Y-102334285D01*
X138446247Y-102334285D02*
X138351009Y-102381904D01*
X138351009Y-102381904D02*
X138303390Y-102429523D01*
X138303390Y-102429523D02*
X138255771Y-102524761D01*
X138255771Y-102524761D02*
X138255771Y-102715237D01*
X138255771Y-102715237D02*
X138303390Y-102810475D01*
X138303390Y-102810475D02*
X138351009Y-102858094D01*
X138351009Y-102858094D02*
X138446247Y-102905713D01*
X120808333Y-93159580D02*
X120760714Y-93207200D01*
X120760714Y-93207200D02*
X120617857Y-93254819D01*
X120617857Y-93254819D02*
X120522619Y-93254819D01*
X120522619Y-93254819D02*
X120379762Y-93207200D01*
X120379762Y-93207200D02*
X120284524Y-93111961D01*
X120284524Y-93111961D02*
X120236905Y-93016723D01*
X120236905Y-93016723D02*
X120189286Y-92826247D01*
X120189286Y-92826247D02*
X120189286Y-92683390D01*
X120189286Y-92683390D02*
X120236905Y-92492914D01*
X120236905Y-92492914D02*
X120284524Y-92397676D01*
X120284524Y-92397676D02*
X120379762Y-92302438D01*
X120379762Y-92302438D02*
X120522619Y-92254819D01*
X120522619Y-92254819D02*
X120617857Y-92254819D01*
X120617857Y-92254819D02*
X120760714Y-92302438D01*
X120760714Y-92302438D02*
X120808333Y-92350057D01*
X121379762Y-92683390D02*
X121284524Y-92635771D01*
X121284524Y-92635771D02*
X121236905Y-92588152D01*
X121236905Y-92588152D02*
X121189286Y-92492914D01*
X121189286Y-92492914D02*
X121189286Y-92445295D01*
X121189286Y-92445295D02*
X121236905Y-92350057D01*
X121236905Y-92350057D02*
X121284524Y-92302438D01*
X121284524Y-92302438D02*
X121379762Y-92254819D01*
X121379762Y-92254819D02*
X121570238Y-92254819D01*
X121570238Y-92254819D02*
X121665476Y-92302438D01*
X121665476Y-92302438D02*
X121713095Y-92350057D01*
X121713095Y-92350057D02*
X121760714Y-92445295D01*
X121760714Y-92445295D02*
X121760714Y-92492914D01*
X121760714Y-92492914D02*
X121713095Y-92588152D01*
X121713095Y-92588152D02*
X121665476Y-92635771D01*
X121665476Y-92635771D02*
X121570238Y-92683390D01*
X121570238Y-92683390D02*
X121379762Y-92683390D01*
X121379762Y-92683390D02*
X121284524Y-92731009D01*
X121284524Y-92731009D02*
X121236905Y-92778628D01*
X121236905Y-92778628D02*
X121189286Y-92873866D01*
X121189286Y-92873866D02*
X121189286Y-93064342D01*
X121189286Y-93064342D02*
X121236905Y-93159580D01*
X121236905Y-93159580D02*
X121284524Y-93207200D01*
X121284524Y-93207200D02*
X121379762Y-93254819D01*
X121379762Y-93254819D02*
X121570238Y-93254819D01*
X121570238Y-93254819D02*
X121665476Y-93207200D01*
X121665476Y-93207200D02*
X121713095Y-93159580D01*
X121713095Y-93159580D02*
X121760714Y-93064342D01*
X121760714Y-93064342D02*
X121760714Y-92873866D01*
X121760714Y-92873866D02*
X121713095Y-92778628D01*
X121713095Y-92778628D02*
X121665476Y-92731009D01*
X121665476Y-92731009D02*
X121570238Y-92683390D01*
X159183333Y-106044819D02*
X158850000Y-105568628D01*
X158611905Y-106044819D02*
X158611905Y-105044819D01*
X158611905Y-105044819D02*
X158992857Y-105044819D01*
X158992857Y-105044819D02*
X159088095Y-105092438D01*
X159088095Y-105092438D02*
X159135714Y-105140057D01*
X159135714Y-105140057D02*
X159183333Y-105235295D01*
X159183333Y-105235295D02*
X159183333Y-105378152D01*
X159183333Y-105378152D02*
X159135714Y-105473390D01*
X159135714Y-105473390D02*
X159088095Y-105521009D01*
X159088095Y-105521009D02*
X158992857Y-105568628D01*
X158992857Y-105568628D02*
X158611905Y-105568628D01*
X160135714Y-106044819D02*
X159564286Y-106044819D01*
X159850000Y-106044819D02*
X159850000Y-105044819D01*
X159850000Y-105044819D02*
X159754762Y-105187676D01*
X159754762Y-105187676D02*
X159659524Y-105282914D01*
X159659524Y-105282914D02*
X159564286Y-105330533D01*
X157579819Y-61461904D02*
X158389342Y-61461904D01*
X158389342Y-61461904D02*
X158484580Y-61414285D01*
X158484580Y-61414285D02*
X158532200Y-61366666D01*
X158532200Y-61366666D02*
X158579819Y-61271428D01*
X158579819Y-61271428D02*
X158579819Y-61080952D01*
X158579819Y-61080952D02*
X158532200Y-60985714D01*
X158532200Y-60985714D02*
X158484580Y-60938095D01*
X158484580Y-60938095D02*
X158389342Y-60890476D01*
X158389342Y-60890476D02*
X157579819Y-60890476D01*
X157913152Y-59985714D02*
X158579819Y-59985714D01*
X157532200Y-60223809D02*
X158246485Y-60461904D01*
X158246485Y-60461904D02*
X158246485Y-59842857D01*
X152369047Y-56681009D02*
X152511904Y-56728628D01*
X152511904Y-56728628D02*
X152559523Y-56776247D01*
X152559523Y-56776247D02*
X152607142Y-56871485D01*
X152607142Y-56871485D02*
X152607142Y-57014342D01*
X152607142Y-57014342D02*
X152559523Y-57109580D01*
X152559523Y-57109580D02*
X152511904Y-57157200D01*
X152511904Y-57157200D02*
X152416666Y-57204819D01*
X152416666Y-57204819D02*
X152035714Y-57204819D01*
X152035714Y-57204819D02*
X152035714Y-56204819D01*
X152035714Y-56204819D02*
X152369047Y-56204819D01*
X152369047Y-56204819D02*
X152464285Y-56252438D01*
X152464285Y-56252438D02*
X152511904Y-56300057D01*
X152511904Y-56300057D02*
X152559523Y-56395295D01*
X152559523Y-56395295D02*
X152559523Y-56490533D01*
X152559523Y-56490533D02*
X152511904Y-56585771D01*
X152511904Y-56585771D02*
X152464285Y-56633390D01*
X152464285Y-56633390D02*
X152369047Y-56681009D01*
X152369047Y-56681009D02*
X152035714Y-56681009D01*
X153035714Y-57204819D02*
X153035714Y-56204819D01*
X153035714Y-56204819D02*
X153369047Y-56919104D01*
X153369047Y-56919104D02*
X153702380Y-56204819D01*
X153702380Y-56204819D02*
X153702380Y-57204819D01*
X154178571Y-56681009D02*
X154511904Y-56681009D01*
X154654761Y-57204819D02*
X154178571Y-57204819D01*
X154178571Y-57204819D02*
X154178571Y-56204819D01*
X154178571Y-56204819D02*
X154654761Y-56204819D01*
X155035714Y-56300057D02*
X155083333Y-56252438D01*
X155083333Y-56252438D02*
X155178571Y-56204819D01*
X155178571Y-56204819D02*
X155416666Y-56204819D01*
X155416666Y-56204819D02*
X155511904Y-56252438D01*
X155511904Y-56252438D02*
X155559523Y-56300057D01*
X155559523Y-56300057D02*
X155607142Y-56395295D01*
X155607142Y-56395295D02*
X155607142Y-56490533D01*
X155607142Y-56490533D02*
X155559523Y-56633390D01*
X155559523Y-56633390D02*
X154988095Y-57204819D01*
X154988095Y-57204819D02*
X155607142Y-57204819D01*
X156178571Y-56633390D02*
X156083333Y-56585771D01*
X156083333Y-56585771D02*
X156035714Y-56538152D01*
X156035714Y-56538152D02*
X155988095Y-56442914D01*
X155988095Y-56442914D02*
X155988095Y-56395295D01*
X155988095Y-56395295D02*
X156035714Y-56300057D01*
X156035714Y-56300057D02*
X156083333Y-56252438D01*
X156083333Y-56252438D02*
X156178571Y-56204819D01*
X156178571Y-56204819D02*
X156369047Y-56204819D01*
X156369047Y-56204819D02*
X156464285Y-56252438D01*
X156464285Y-56252438D02*
X156511904Y-56300057D01*
X156511904Y-56300057D02*
X156559523Y-56395295D01*
X156559523Y-56395295D02*
X156559523Y-56442914D01*
X156559523Y-56442914D02*
X156511904Y-56538152D01*
X156511904Y-56538152D02*
X156464285Y-56585771D01*
X156464285Y-56585771D02*
X156369047Y-56633390D01*
X156369047Y-56633390D02*
X156178571Y-56633390D01*
X156178571Y-56633390D02*
X156083333Y-56681009D01*
X156083333Y-56681009D02*
X156035714Y-56728628D01*
X156035714Y-56728628D02*
X155988095Y-56823866D01*
X155988095Y-56823866D02*
X155988095Y-57014342D01*
X155988095Y-57014342D02*
X156035714Y-57109580D01*
X156035714Y-57109580D02*
X156083333Y-57157200D01*
X156083333Y-57157200D02*
X156178571Y-57204819D01*
X156178571Y-57204819D02*
X156369047Y-57204819D01*
X156369047Y-57204819D02*
X156464285Y-57157200D01*
X156464285Y-57157200D02*
X156511904Y-57109580D01*
X156511904Y-57109580D02*
X156559523Y-57014342D01*
X156559523Y-57014342D02*
X156559523Y-56823866D01*
X156559523Y-56823866D02*
X156511904Y-56728628D01*
X156511904Y-56728628D02*
X156464285Y-56681009D01*
X156464285Y-56681009D02*
X156369047Y-56633390D01*
X157178571Y-56204819D02*
X157273809Y-56204819D01*
X157273809Y-56204819D02*
X157369047Y-56252438D01*
X157369047Y-56252438D02*
X157416666Y-56300057D01*
X157416666Y-56300057D02*
X157464285Y-56395295D01*
X157464285Y-56395295D02*
X157511904Y-56585771D01*
X157511904Y-56585771D02*
X157511904Y-56823866D01*
X157511904Y-56823866D02*
X157464285Y-57014342D01*
X157464285Y-57014342D02*
X157416666Y-57109580D01*
X157416666Y-57109580D02*
X157369047Y-57157200D01*
X157369047Y-57157200D02*
X157273809Y-57204819D01*
X157273809Y-57204819D02*
X157178571Y-57204819D01*
X157178571Y-57204819D02*
X157083333Y-57157200D01*
X157083333Y-57157200D02*
X157035714Y-57109580D01*
X157035714Y-57109580D02*
X156988095Y-57014342D01*
X156988095Y-57014342D02*
X156940476Y-56823866D01*
X156940476Y-56823866D02*
X156940476Y-56585771D01*
X156940476Y-56585771D02*
X156988095Y-56395295D01*
X156988095Y-56395295D02*
X157035714Y-56300057D01*
X157035714Y-56300057D02*
X157083333Y-56252438D01*
X157083333Y-56252438D02*
X157178571Y-56204819D01*
X120508333Y-79359580D02*
X120460714Y-79407200D01*
X120460714Y-79407200D02*
X120317857Y-79454819D01*
X120317857Y-79454819D02*
X120222619Y-79454819D01*
X120222619Y-79454819D02*
X120079762Y-79407200D01*
X120079762Y-79407200D02*
X119984524Y-79311961D01*
X119984524Y-79311961D02*
X119936905Y-79216723D01*
X119936905Y-79216723D02*
X119889286Y-79026247D01*
X119889286Y-79026247D02*
X119889286Y-78883390D01*
X119889286Y-78883390D02*
X119936905Y-78692914D01*
X119936905Y-78692914D02*
X119984524Y-78597676D01*
X119984524Y-78597676D02*
X120079762Y-78502438D01*
X120079762Y-78502438D02*
X120222619Y-78454819D01*
X120222619Y-78454819D02*
X120317857Y-78454819D01*
X120317857Y-78454819D02*
X120460714Y-78502438D01*
X120460714Y-78502438D02*
X120508333Y-78550057D01*
X121365476Y-78788152D02*
X121365476Y-79454819D01*
X121127381Y-78407200D02*
X120889286Y-79121485D01*
X120889286Y-79121485D02*
X121508333Y-79121485D01*
X136933333Y-98429819D02*
X136600000Y-97953628D01*
X136361905Y-98429819D02*
X136361905Y-97429819D01*
X136361905Y-97429819D02*
X136742857Y-97429819D01*
X136742857Y-97429819D02*
X136838095Y-97477438D01*
X136838095Y-97477438D02*
X136885714Y-97525057D01*
X136885714Y-97525057D02*
X136933333Y-97620295D01*
X136933333Y-97620295D02*
X136933333Y-97763152D01*
X136933333Y-97763152D02*
X136885714Y-97858390D01*
X136885714Y-97858390D02*
X136838095Y-97906009D01*
X136838095Y-97906009D02*
X136742857Y-97953628D01*
X136742857Y-97953628D02*
X136361905Y-97953628D01*
X137409524Y-98429819D02*
X137600000Y-98429819D01*
X137600000Y-98429819D02*
X137695238Y-98382200D01*
X137695238Y-98382200D02*
X137742857Y-98334580D01*
X137742857Y-98334580D02*
X137838095Y-98191723D01*
X137838095Y-98191723D02*
X137885714Y-98001247D01*
X137885714Y-98001247D02*
X137885714Y-97620295D01*
X137885714Y-97620295D02*
X137838095Y-97525057D01*
X137838095Y-97525057D02*
X137790476Y-97477438D01*
X137790476Y-97477438D02*
X137695238Y-97429819D01*
X137695238Y-97429819D02*
X137504762Y-97429819D01*
X137504762Y-97429819D02*
X137409524Y-97477438D01*
X137409524Y-97477438D02*
X137361905Y-97525057D01*
X137361905Y-97525057D02*
X137314286Y-97620295D01*
X137314286Y-97620295D02*
X137314286Y-97858390D01*
X137314286Y-97858390D02*
X137361905Y-97953628D01*
X137361905Y-97953628D02*
X137409524Y-98001247D01*
X137409524Y-98001247D02*
X137504762Y-98048866D01*
X137504762Y-98048866D02*
X137695238Y-98048866D01*
X137695238Y-98048866D02*
X137790476Y-98001247D01*
X137790476Y-98001247D02*
X137838095Y-97953628D01*
X137838095Y-97953628D02*
X137885714Y-97858390D01*
X166833333Y-91709580D02*
X166785714Y-91757200D01*
X166785714Y-91757200D02*
X166642857Y-91804819D01*
X166642857Y-91804819D02*
X166547619Y-91804819D01*
X166547619Y-91804819D02*
X166404762Y-91757200D01*
X166404762Y-91757200D02*
X166309524Y-91661961D01*
X166309524Y-91661961D02*
X166261905Y-91566723D01*
X166261905Y-91566723D02*
X166214286Y-91376247D01*
X166214286Y-91376247D02*
X166214286Y-91233390D01*
X166214286Y-91233390D02*
X166261905Y-91042914D01*
X166261905Y-91042914D02*
X166309524Y-90947676D01*
X166309524Y-90947676D02*
X166404762Y-90852438D01*
X166404762Y-90852438D02*
X166547619Y-90804819D01*
X166547619Y-90804819D02*
X166642857Y-90804819D01*
X166642857Y-90804819D02*
X166785714Y-90852438D01*
X166785714Y-90852438D02*
X166833333Y-90900057D01*
X167166667Y-90804819D02*
X167785714Y-90804819D01*
X167785714Y-90804819D02*
X167452381Y-91185771D01*
X167452381Y-91185771D02*
X167595238Y-91185771D01*
X167595238Y-91185771D02*
X167690476Y-91233390D01*
X167690476Y-91233390D02*
X167738095Y-91281009D01*
X167738095Y-91281009D02*
X167785714Y-91376247D01*
X167785714Y-91376247D02*
X167785714Y-91614342D01*
X167785714Y-91614342D02*
X167738095Y-91709580D01*
X167738095Y-91709580D02*
X167690476Y-91757200D01*
X167690476Y-91757200D02*
X167595238Y-91804819D01*
X167595238Y-91804819D02*
X167309524Y-91804819D01*
X167309524Y-91804819D02*
X167214286Y-91757200D01*
X167214286Y-91757200D02*
X167166667Y-91709580D01*
X118504819Y-102361904D02*
X119314342Y-102361904D01*
X119314342Y-102361904D02*
X119409580Y-102314285D01*
X119409580Y-102314285D02*
X119457200Y-102266666D01*
X119457200Y-102266666D02*
X119504819Y-102171428D01*
X119504819Y-102171428D02*
X119504819Y-101980952D01*
X119504819Y-101980952D02*
X119457200Y-101885714D01*
X119457200Y-101885714D02*
X119409580Y-101838095D01*
X119409580Y-101838095D02*
X119314342Y-101790476D01*
X119314342Y-101790476D02*
X118504819Y-101790476D01*
X118504819Y-101409523D02*
X118504819Y-100790476D01*
X118504819Y-100790476D02*
X118885771Y-101123809D01*
X118885771Y-101123809D02*
X118885771Y-100980952D01*
X118885771Y-100980952D02*
X118933390Y-100885714D01*
X118933390Y-100885714D02*
X118981009Y-100838095D01*
X118981009Y-100838095D02*
X119076247Y-100790476D01*
X119076247Y-100790476D02*
X119314342Y-100790476D01*
X119314342Y-100790476D02*
X119409580Y-100838095D01*
X119409580Y-100838095D02*
X119457200Y-100885714D01*
X119457200Y-100885714D02*
X119504819Y-100980952D01*
X119504819Y-100980952D02*
X119504819Y-101266666D01*
X119504819Y-101266666D02*
X119457200Y-101361904D01*
X119457200Y-101361904D02*
X119409580Y-101409523D01*
X117343333Y-65269819D02*
X117010000Y-64793628D01*
X116771905Y-65269819D02*
X116771905Y-64269819D01*
X116771905Y-64269819D02*
X117152857Y-64269819D01*
X117152857Y-64269819D02*
X117248095Y-64317438D01*
X117248095Y-64317438D02*
X117295714Y-64365057D01*
X117295714Y-64365057D02*
X117343333Y-64460295D01*
X117343333Y-64460295D02*
X117343333Y-64603152D01*
X117343333Y-64603152D02*
X117295714Y-64698390D01*
X117295714Y-64698390D02*
X117248095Y-64746009D01*
X117248095Y-64746009D02*
X117152857Y-64793628D01*
X117152857Y-64793628D02*
X116771905Y-64793628D01*
X117914762Y-64698390D02*
X117819524Y-64650771D01*
X117819524Y-64650771D02*
X117771905Y-64603152D01*
X117771905Y-64603152D02*
X117724286Y-64507914D01*
X117724286Y-64507914D02*
X117724286Y-64460295D01*
X117724286Y-64460295D02*
X117771905Y-64365057D01*
X117771905Y-64365057D02*
X117819524Y-64317438D01*
X117819524Y-64317438D02*
X117914762Y-64269819D01*
X117914762Y-64269819D02*
X118105238Y-64269819D01*
X118105238Y-64269819D02*
X118200476Y-64317438D01*
X118200476Y-64317438D02*
X118248095Y-64365057D01*
X118248095Y-64365057D02*
X118295714Y-64460295D01*
X118295714Y-64460295D02*
X118295714Y-64507914D01*
X118295714Y-64507914D02*
X118248095Y-64603152D01*
X118248095Y-64603152D02*
X118200476Y-64650771D01*
X118200476Y-64650771D02*
X118105238Y-64698390D01*
X118105238Y-64698390D02*
X117914762Y-64698390D01*
X117914762Y-64698390D02*
X117819524Y-64746009D01*
X117819524Y-64746009D02*
X117771905Y-64793628D01*
X117771905Y-64793628D02*
X117724286Y-64888866D01*
X117724286Y-64888866D02*
X117724286Y-65079342D01*
X117724286Y-65079342D02*
X117771905Y-65174580D01*
X117771905Y-65174580D02*
X117819524Y-65222200D01*
X117819524Y-65222200D02*
X117914762Y-65269819D01*
X117914762Y-65269819D02*
X118105238Y-65269819D01*
X118105238Y-65269819D02*
X118200476Y-65222200D01*
X118200476Y-65222200D02*
X118248095Y-65174580D01*
X118248095Y-65174580D02*
X118295714Y-65079342D01*
X118295714Y-65079342D02*
X118295714Y-64888866D01*
X118295714Y-64888866D02*
X118248095Y-64793628D01*
X118248095Y-64793628D02*
X118200476Y-64746009D01*
X118200476Y-64746009D02*
X118105238Y-64698390D01*
X167754819Y-84881666D02*
X167278628Y-85214999D01*
X167754819Y-85453094D02*
X166754819Y-85453094D01*
X166754819Y-85453094D02*
X166754819Y-85072142D01*
X166754819Y-85072142D02*
X166802438Y-84976904D01*
X166802438Y-84976904D02*
X166850057Y-84929285D01*
X166850057Y-84929285D02*
X166945295Y-84881666D01*
X166945295Y-84881666D02*
X167088152Y-84881666D01*
X167088152Y-84881666D02*
X167183390Y-84929285D01*
X167183390Y-84929285D02*
X167231009Y-84976904D01*
X167231009Y-84976904D02*
X167278628Y-85072142D01*
X167278628Y-85072142D02*
X167278628Y-85453094D01*
X166754819Y-84548332D02*
X166754819Y-83929285D01*
X166754819Y-83929285D02*
X167135771Y-84262618D01*
X167135771Y-84262618D02*
X167135771Y-84119761D01*
X167135771Y-84119761D02*
X167183390Y-84024523D01*
X167183390Y-84024523D02*
X167231009Y-83976904D01*
X167231009Y-83976904D02*
X167326247Y-83929285D01*
X167326247Y-83929285D02*
X167564342Y-83929285D01*
X167564342Y-83929285D02*
X167659580Y-83976904D01*
X167659580Y-83976904D02*
X167707200Y-84024523D01*
X167707200Y-84024523D02*
X167754819Y-84119761D01*
X167754819Y-84119761D02*
X167754819Y-84405475D01*
X167754819Y-84405475D02*
X167707200Y-84500713D01*
X167707200Y-84500713D02*
X167659580Y-84548332D01*
X157688095Y-70834819D02*
X157688095Y-71644342D01*
X157688095Y-71644342D02*
X157735714Y-71739580D01*
X157735714Y-71739580D02*
X157783333Y-71787200D01*
X157783333Y-71787200D02*
X157878571Y-71834819D01*
X157878571Y-71834819D02*
X158069047Y-71834819D01*
X158069047Y-71834819D02*
X158164285Y-71787200D01*
X158164285Y-71787200D02*
X158211904Y-71739580D01*
X158211904Y-71739580D02*
X158259523Y-71644342D01*
X158259523Y-71644342D02*
X158259523Y-70834819D01*
X159259523Y-71834819D02*
X158688095Y-71834819D01*
X158973809Y-71834819D02*
X158973809Y-70834819D01*
X158973809Y-70834819D02*
X158878571Y-70977676D01*
X158878571Y-70977676D02*
X158783333Y-71072914D01*
X158783333Y-71072914D02*
X158688095Y-71120533D01*
X121359580Y-97366666D02*
X121407200Y-97414285D01*
X121407200Y-97414285D02*
X121454819Y-97557142D01*
X121454819Y-97557142D02*
X121454819Y-97652380D01*
X121454819Y-97652380D02*
X121407200Y-97795237D01*
X121407200Y-97795237D02*
X121311961Y-97890475D01*
X121311961Y-97890475D02*
X121216723Y-97938094D01*
X121216723Y-97938094D02*
X121026247Y-97985713D01*
X121026247Y-97985713D02*
X120883390Y-97985713D01*
X120883390Y-97985713D02*
X120692914Y-97938094D01*
X120692914Y-97938094D02*
X120597676Y-97890475D01*
X120597676Y-97890475D02*
X120502438Y-97795237D01*
X120502438Y-97795237D02*
X120454819Y-97652380D01*
X120454819Y-97652380D02*
X120454819Y-97557142D01*
X120454819Y-97557142D02*
X120502438Y-97414285D01*
X120502438Y-97414285D02*
X120550057Y-97366666D01*
X121454819Y-96890475D02*
X121454819Y-96699999D01*
X121454819Y-96699999D02*
X121407200Y-96604761D01*
X121407200Y-96604761D02*
X121359580Y-96557142D01*
X121359580Y-96557142D02*
X121216723Y-96461904D01*
X121216723Y-96461904D02*
X121026247Y-96414285D01*
X121026247Y-96414285D02*
X120645295Y-96414285D01*
X120645295Y-96414285D02*
X120550057Y-96461904D01*
X120550057Y-96461904D02*
X120502438Y-96509523D01*
X120502438Y-96509523D02*
X120454819Y-96604761D01*
X120454819Y-96604761D02*
X120454819Y-96795237D01*
X120454819Y-96795237D02*
X120502438Y-96890475D01*
X120502438Y-96890475D02*
X120550057Y-96938094D01*
X120550057Y-96938094D02*
X120645295Y-96985713D01*
X120645295Y-96985713D02*
X120883390Y-96985713D01*
X120883390Y-96985713D02*
X120978628Y-96938094D01*
X120978628Y-96938094D02*
X121026247Y-96890475D01*
X121026247Y-96890475D02*
X121073866Y-96795237D01*
X121073866Y-96795237D02*
X121073866Y-96604761D01*
X121073866Y-96604761D02*
X121026247Y-96509523D01*
X121026247Y-96509523D02*
X120978628Y-96461904D01*
X120978628Y-96461904D02*
X120883390Y-96414285D01*
X115549819Y-80916666D02*
X115073628Y-81249999D01*
X115549819Y-81488094D02*
X114549819Y-81488094D01*
X114549819Y-81488094D02*
X114549819Y-81107142D01*
X114549819Y-81107142D02*
X114597438Y-81011904D01*
X114597438Y-81011904D02*
X114645057Y-80964285D01*
X114645057Y-80964285D02*
X114740295Y-80916666D01*
X114740295Y-80916666D02*
X114883152Y-80916666D01*
X114883152Y-80916666D02*
X114978390Y-80964285D01*
X114978390Y-80964285D02*
X115026009Y-81011904D01*
X115026009Y-81011904D02*
X115073628Y-81107142D01*
X115073628Y-81107142D02*
X115073628Y-81488094D01*
X114549819Y-80583332D02*
X114549819Y-79916666D01*
X114549819Y-79916666D02*
X115549819Y-80345237D01*
X151489580Y-72516666D02*
X151537200Y-72564285D01*
X151537200Y-72564285D02*
X151584819Y-72707142D01*
X151584819Y-72707142D02*
X151584819Y-72802380D01*
X151584819Y-72802380D02*
X151537200Y-72945237D01*
X151537200Y-72945237D02*
X151441961Y-73040475D01*
X151441961Y-73040475D02*
X151346723Y-73088094D01*
X151346723Y-73088094D02*
X151156247Y-73135713D01*
X151156247Y-73135713D02*
X151013390Y-73135713D01*
X151013390Y-73135713D02*
X150822914Y-73088094D01*
X150822914Y-73088094D02*
X150727676Y-73040475D01*
X150727676Y-73040475D02*
X150632438Y-72945237D01*
X150632438Y-72945237D02*
X150584819Y-72802380D01*
X150584819Y-72802380D02*
X150584819Y-72707142D01*
X150584819Y-72707142D02*
X150632438Y-72564285D01*
X150632438Y-72564285D02*
X150680057Y-72516666D01*
X151584819Y-71564285D02*
X151584819Y-72135713D01*
X151584819Y-71849999D02*
X150584819Y-71849999D01*
X150584819Y-71849999D02*
X150727676Y-71945237D01*
X150727676Y-71945237D02*
X150822914Y-72040475D01*
X150822914Y-72040475D02*
X150870533Y-72135713D01*
X149290833Y-106014819D02*
X148957500Y-105538628D01*
X148719405Y-106014819D02*
X148719405Y-105014819D01*
X148719405Y-105014819D02*
X149100357Y-105014819D01*
X149100357Y-105014819D02*
X149195595Y-105062438D01*
X149195595Y-105062438D02*
X149243214Y-105110057D01*
X149243214Y-105110057D02*
X149290833Y-105205295D01*
X149290833Y-105205295D02*
X149290833Y-105348152D01*
X149290833Y-105348152D02*
X149243214Y-105443390D01*
X149243214Y-105443390D02*
X149195595Y-105491009D01*
X149195595Y-105491009D02*
X149100357Y-105538628D01*
X149100357Y-105538628D02*
X148719405Y-105538628D01*
X149671786Y-105110057D02*
X149719405Y-105062438D01*
X149719405Y-105062438D02*
X149814643Y-105014819D01*
X149814643Y-105014819D02*
X150052738Y-105014819D01*
X150052738Y-105014819D02*
X150147976Y-105062438D01*
X150147976Y-105062438D02*
X150195595Y-105110057D01*
X150195595Y-105110057D02*
X150243214Y-105205295D01*
X150243214Y-105205295D02*
X150243214Y-105300533D01*
X150243214Y-105300533D02*
X150195595Y-105443390D01*
X150195595Y-105443390D02*
X149624167Y-106014819D01*
X149624167Y-106014819D02*
X150243214Y-106014819D01*
D12*
%TO.C,J11*%
X128230000Y-64885000D02*
X129440000Y-64885000D01*
X129440000Y-64215000D02*
X129440000Y-64885000D01*
X129440000Y-64215000D02*
X132100000Y-64215000D01*
X129440000Y-66405000D02*
X129440000Y-69965000D01*
X129440000Y-71485000D02*
X129440000Y-75045000D01*
X129440000Y-76565000D02*
X129440000Y-80125000D01*
X129440000Y-81645000D02*
X129440000Y-85205000D01*
X129440000Y-86725000D02*
X129440000Y-90285000D01*
X129440000Y-91805000D02*
X129440000Y-95365000D01*
X129440000Y-96885000D02*
X129440000Y-100445000D01*
X129440000Y-101965000D02*
X129440000Y-102635000D01*
X129440000Y-102635000D02*
X132100000Y-102635000D01*
X132100000Y-64215000D02*
X132100000Y-67425000D01*
X132100000Y-68945000D02*
X132100000Y-72505000D01*
X132100000Y-74025000D02*
X132100000Y-77585000D01*
X132100000Y-79105000D02*
X132100000Y-82665000D01*
X132100000Y-84185000D02*
X132100000Y-87745000D01*
X132100000Y-89265000D02*
X132100000Y-92825000D01*
X132100000Y-94345000D02*
X132100000Y-97905000D01*
X132100000Y-99425000D02*
X132100000Y-102635000D01*
X143470000Y-64910000D02*
X144680000Y-64910000D01*
X144680000Y-64240000D02*
X144680000Y-64910000D01*
X144680000Y-64240000D02*
X147340000Y-64240000D01*
X144680000Y-66430000D02*
X144680000Y-69990000D01*
X144680000Y-71510000D02*
X144680000Y-75070000D01*
X144680000Y-76590000D02*
X144680000Y-80150000D01*
X144680000Y-81670000D02*
X144680000Y-85230000D01*
X144680000Y-86750000D02*
X144680000Y-90310000D01*
X144680000Y-91830000D02*
X144680000Y-95390000D01*
X144680000Y-96910000D02*
X144680000Y-100470000D01*
X144680000Y-101990000D02*
X144680000Y-102660000D01*
X144680000Y-102660000D02*
X147340000Y-102660000D01*
X147340000Y-64240000D02*
X147340000Y-67450000D01*
X147340000Y-68970000D02*
X147340000Y-72530000D01*
X147340000Y-74050000D02*
X147340000Y-77610000D01*
X147340000Y-79130000D02*
X147340000Y-82690000D01*
X147340000Y-84210000D02*
X147340000Y-87770000D01*
X147340000Y-89290000D02*
X147340000Y-92850000D01*
X147340000Y-94370000D02*
X147340000Y-97930000D01*
X147340000Y-99450000D02*
X147340000Y-102660000D01*
%TO.C,J13*%
X174670000Y-66270000D02*
X174670000Y-81570000D01*
X174670000Y-66270000D02*
X177330000Y-66270000D01*
X174670000Y-81570000D02*
X177330000Y-81570000D01*
X176000000Y-63670000D02*
X177330000Y-63670000D01*
X177330000Y-63670000D02*
X177330000Y-65000000D01*
X177330000Y-66270000D02*
X177330000Y-81570000D01*
%TO.C,R10*%
X139802064Y-93760000D02*
X139347936Y-93760000D01*
X139802064Y-92290000D02*
X139347936Y-92290000D01*
D13*
%TO.C,U5*%
X114670000Y-72612500D02*
X114670000Y-68712500D01*
X123530000Y-72612500D02*
X123530000Y-68712500D01*
D14*
X114790000Y-75017500D02*
G75*
G03*
X114590000Y-75017500I-100000J0D01*
G01*
X114590000Y-75017500D02*
G75*
G03*
X114790000Y-75017500I100000J0D01*
G01*
D12*
%TO.C,C2*%
X162785000Y-69771252D02*
X162785000Y-69248748D01*
X164255000Y-69771252D02*
X164255000Y-69248748D01*
%TO.C,C7*%
X124795000Y-102160000D02*
X126665000Y-102160000D01*
X126665000Y-102160000D02*
X126665000Y-98250000D01*
X124795000Y-98250000D02*
X124795000Y-102160000D01*
%TO.C,J1*%
X162420000Y-63850000D02*
X162420000Y-62520000D01*
X163750000Y-63850000D02*
X162420000Y-63850000D01*
X165020000Y-63850000D02*
X167620000Y-63850000D01*
X165020000Y-63850000D02*
X165020000Y-61190000D01*
X167620000Y-63850000D02*
X167620000Y-61190000D01*
X165020000Y-61190000D02*
X167620000Y-61190000D01*
%TO.C,J9*%
X111480000Y-62160000D02*
X111480000Y-60830000D01*
X112810000Y-62160000D02*
X111480000Y-62160000D01*
X114080000Y-62160000D02*
X116680000Y-62160000D01*
X114080000Y-62160000D02*
X114080000Y-59500000D01*
X116680000Y-62160000D02*
X116680000Y-59500000D01*
X114080000Y-59500000D02*
X116680000Y-59500000D01*
%TO.C,J8*%
X131820000Y-59230000D02*
X131820000Y-57900000D01*
X133150000Y-59230000D02*
X131820000Y-59230000D01*
X134420000Y-59230000D02*
X147180000Y-59230000D01*
X134420000Y-59230000D02*
X134420000Y-56570000D01*
X147180000Y-59230000D02*
X147180000Y-56570000D01*
X134420000Y-56570000D02*
X147180000Y-56570000D01*
%TO.C,R5*%
X114350000Y-88327064D02*
X114350000Y-87872936D01*
X115820000Y-88327064D02*
X115820000Y-87872936D01*
%TO.C,R6*%
X117100000Y-83967064D02*
X117100000Y-83512936D01*
X118570000Y-83967064D02*
X118570000Y-83512936D01*
%TO.C,J6*%
X108305000Y-91080000D02*
X106975000Y-91080000D01*
X108305000Y-89750000D02*
X108305000Y-91080000D01*
X108305000Y-88480000D02*
X108305000Y-75720000D01*
X108305000Y-88480000D02*
X105645000Y-88480000D01*
X108305000Y-75720000D02*
X105645000Y-75720000D01*
X105645000Y-88480000D02*
X105645000Y-75720000D01*
D13*
%TO.C,U2*%
X156360000Y-92675000D02*
X163960000Y-92675000D01*
X156360000Y-104325000D02*
X163960000Y-104325000D01*
D14*
X153740000Y-92820000D02*
G75*
G03*
X153540000Y-92820000I-100000J0D01*
G01*
X153540000Y-92820000D02*
G75*
G03*
X153740000Y-92820000I100000J0D01*
G01*
D12*
%TO.C,J10*%
X108305000Y-72055000D02*
X106975000Y-72055000D01*
X108305000Y-70725000D02*
X108305000Y-72055000D01*
X108305000Y-69455000D02*
X108305000Y-64315000D01*
X108305000Y-69455000D02*
X105645000Y-69455000D01*
X108305000Y-64315000D02*
X105645000Y-64315000D01*
X105645000Y-69455000D02*
X105645000Y-64315000D01*
%TO.C,D1*%
X156610000Y-69847500D02*
X158530000Y-69847500D01*
X158530000Y-69847500D02*
X158530000Y-67162500D01*
X156610000Y-67162500D02*
X156610000Y-69847500D01*
%TO.C,J15*%
X174645000Y-94670000D02*
X175975000Y-94670000D01*
X174645000Y-96000000D02*
X174645000Y-94670000D01*
X174645000Y-97270000D02*
X174645000Y-99870000D01*
X174645000Y-97270000D02*
X177305000Y-97270000D01*
X174645000Y-99870000D02*
X177305000Y-99870000D01*
X177305000Y-97270000D02*
X177305000Y-99870000D01*
%TO.C,C5*%
X156118748Y-63825000D02*
X156641252Y-63825000D01*
X156118748Y-65295000D02*
X156641252Y-65295000D01*
%TO.C,R4*%
X118560000Y-87892936D02*
X118560000Y-88347064D01*
X117090000Y-87892936D02*
X117090000Y-88347064D01*
%TO.C,J19*%
X174670000Y-103670000D02*
X176000000Y-103670000D01*
X174670000Y-105000000D02*
X174670000Y-103670000D01*
X174670000Y-106270000D02*
X174670000Y-108870000D01*
X174670000Y-106270000D02*
X177330000Y-106270000D01*
X174670000Y-108870000D02*
X177330000Y-108870000D01*
X177330000Y-106270000D02*
X177330000Y-108870000D01*
%TO.C,R11*%
X159465000Y-68377064D02*
X159465000Y-67922936D01*
X160935000Y-68377064D02*
X160935000Y-67922936D01*
%TO.C,J14*%
X121290000Y-62140000D02*
X121290000Y-60810000D01*
X122620000Y-62140000D02*
X121290000Y-62140000D01*
X123890000Y-62140000D02*
X126490000Y-62140000D01*
X123890000Y-62140000D02*
X123890000Y-59480000D01*
X126490000Y-62140000D02*
X126490000Y-59480000D01*
X123890000Y-59480000D02*
X126490000Y-59480000D01*
%TO.C,C6*%
X135515000Y-103386252D02*
X135515000Y-102863748D01*
X136985000Y-103386252D02*
X136985000Y-102863748D01*
%TO.C,C8*%
X117638748Y-92065000D02*
X118161252Y-92065000D01*
X117638748Y-93535000D02*
X118161252Y-93535000D01*
%TO.C,J16*%
X108305000Y-100330000D02*
X106975000Y-100330000D01*
X108305000Y-99000000D02*
X108305000Y-100330000D01*
X108305000Y-97730000D02*
X108305000Y-95130000D01*
X108305000Y-97730000D02*
X105645000Y-97730000D01*
X108305000Y-95130000D02*
X105645000Y-95130000D01*
X105645000Y-97730000D02*
X105645000Y-95130000D01*
%TO.C,R1*%
X159102936Y-107085000D02*
X159557064Y-107085000D01*
X159102936Y-108555000D02*
X159557064Y-108555000D01*
%TO.C,J2*%
X159830000Y-110895000D02*
X159830000Y-112225000D01*
X158500000Y-110895000D02*
X159830000Y-110895000D01*
X157230000Y-110895000D02*
X154630000Y-110895000D01*
X157230000Y-110895000D02*
X157230000Y-113555000D01*
X154630000Y-110895000D02*
X154630000Y-113555000D01*
X157230000Y-113555000D02*
X154630000Y-113555000D01*
%TO.C,J3*%
X149830000Y-110895000D02*
X149830000Y-112225000D01*
X148500000Y-110895000D02*
X149830000Y-110895000D01*
X147230000Y-110895000D02*
X144630000Y-110895000D01*
X147230000Y-110895000D02*
X147230000Y-113555000D01*
X144630000Y-110895000D02*
X144630000Y-113555000D01*
X147230000Y-113555000D02*
X144630000Y-113555000D01*
D13*
%TO.C,U4*%
X156135000Y-59400000D02*
X156135000Y-62000000D01*
X153365000Y-59400000D02*
X153365000Y-62000000D01*
D14*
X155800000Y-62300000D02*
G75*
G03*
X155700000Y-62300000I-50000J0D01*
G01*
X155700000Y-62300000D02*
G75*
G03*
X155800000Y-62300000I50000J0D01*
G01*
D12*
%TO.C,C4*%
X120951252Y-77735000D02*
X120428748Y-77735000D01*
X120951252Y-76265000D02*
X120428748Y-76265000D01*
%TO.C,R9*%
X136872936Y-95140000D02*
X137327064Y-95140000D01*
X136872936Y-96610000D02*
X137327064Y-96610000D01*
%TO.C,C3*%
X164086252Y-91035000D02*
X163563748Y-91035000D01*
X164086252Y-89565000D02*
X163563748Y-89565000D01*
D11*
%TO.C,U3*%
X114600000Y-101800000D02*
X114825000Y-101800000D01*
X114600000Y-101800000D02*
X114600000Y-98450000D01*
X114825000Y-101800000D02*
X114825000Y-103025000D01*
X117950000Y-101800000D02*
X117650000Y-101800000D01*
X117950000Y-101800000D02*
X117950000Y-98450000D01*
X114600000Y-98450000D02*
X114900000Y-98450000D01*
X117950000Y-98450000D02*
X117650000Y-98450000D01*
D12*
%TO.C,J12*%
X121260000Y-116735000D02*
X121260000Y-117475000D01*
X121260000Y-117475000D02*
X121760000Y-117475000D01*
X121500000Y-105915000D02*
X121500000Y-117235000D01*
X121500000Y-105915000D02*
X131780000Y-105915000D01*
X121500000Y-107975000D02*
X131780000Y-107975000D01*
X121500000Y-114175000D02*
X131780000Y-114175000D01*
X121500000Y-116675000D02*
X131780000Y-116675000D01*
X121500000Y-117235000D02*
X131780000Y-117235000D01*
X122552000Y-113156000D02*
X122446000Y-113263000D01*
X122818000Y-113422000D02*
X122712000Y-113529000D01*
X125488000Y-110221000D02*
X125381000Y-110328000D01*
X125754000Y-110487000D02*
X125647000Y-110594000D01*
X127922000Y-112867000D02*
X127527000Y-113263000D01*
X128173000Y-113149000D02*
X127793000Y-113529000D01*
X130568000Y-110221000D02*
X130188000Y-110601000D01*
X130834000Y-110487000D02*
X130439000Y-110883000D01*
X131780000Y-105915000D02*
X131780000Y-117235000D01*
X126280000Y-111875000D02*
G75*
G03*
X121920000Y-111875000I-2180000J0D01*
G01*
X121920000Y-111875000D02*
G75*
G03*
X126280000Y-111875000I2180000J0D01*
G01*
X131360000Y-111875000D02*
G75*
G03*
X127000000Y-111875000I-2180000J0D01*
G01*
X127000000Y-111875000D02*
G75*
G03*
X131360000Y-111875000I2180000J0D01*
G01*
%TO.C,REF\u002A\u002A*%
G36*
X116997445Y-109614046D02*
G01*
X117119630Y-109617911D01*
X117234462Y-109625361D01*
X117287143Y-109630397D01*
X117335615Y-109636290D01*
X117379086Y-109643028D01*
X117416767Y-109650596D01*
X117451758Y-109658784D01*
X117483475Y-109666433D01*
X117512059Y-109673597D01*
X117537649Y-109680333D01*
X117549366Y-109683557D01*
X117560387Y-109686695D01*
X117570729Y-109689754D01*
X117580411Y-109692741D01*
X117589450Y-109695662D01*
X117597864Y-109698525D01*
X117605669Y-109701336D01*
X117612883Y-109704102D01*
X117619525Y-109706831D01*
X117625611Y-109709529D01*
X117631159Y-109712204D01*
X117636187Y-109714861D01*
X117640711Y-109717509D01*
X117644751Y-109720154D01*
X117648322Y-109722803D01*
X117651443Y-109725463D01*
X117654131Y-109728141D01*
X117656404Y-109730844D01*
X117658280Y-109733579D01*
X117659774Y-109736353D01*
X117660907Y-109739172D01*
X117661694Y-109742044D01*
X117662153Y-109744976D01*
X117662302Y-109747975D01*
X117662064Y-109751432D01*
X117661364Y-109754832D01*
X117660225Y-109758166D01*
X117658668Y-109761427D01*
X117656716Y-109764608D01*
X117654392Y-109767700D01*
X117651717Y-109770696D01*
X117648713Y-109773587D01*
X117645404Y-109776368D01*
X117641811Y-109779029D01*
X117633862Y-109783962D01*
X117625044Y-109788326D01*
X117615536Y-109792058D01*
X117605515Y-109795098D01*
X117595159Y-109797383D01*
X117584646Y-109798851D01*
X117574154Y-109799442D01*
X117563860Y-109799093D01*
X117558844Y-109798547D01*
X117553943Y-109797742D01*
X117549182Y-109796673D01*
X117544581Y-109795329D01*
X117540163Y-109793705D01*
X117535950Y-109791792D01*
X117519750Y-109784526D01*
X117500040Y-109777172D01*
X117477143Y-109769787D01*
X117451379Y-109762434D01*
X117392540Y-109748059D01*
X117326097Y-109734528D01*
X117254625Y-109722321D01*
X117180697Y-109711918D01*
X117106886Y-109703800D01*
X117035767Y-109698448D01*
X116980608Y-109695840D01*
X116931269Y-109694581D01*
X116885916Y-109694783D01*
X116842715Y-109696557D01*
X116799834Y-109700015D01*
X116755438Y-109705268D01*
X116707694Y-109712427D01*
X116654768Y-109721604D01*
X116542591Y-109742751D01*
X116437140Y-109764066D01*
X116339284Y-109785334D01*
X116249893Y-109806344D01*
X116169837Y-109826883D01*
X116099984Y-109846736D01*
X116041204Y-109865690D01*
X116016239Y-109874764D01*
X115994367Y-109883534D01*
X115879493Y-109932365D01*
X115872761Y-109935143D01*
X115865816Y-109937842D01*
X115851499Y-109942953D01*
X115836967Y-109947586D01*
X115822644Y-109951627D01*
X115808956Y-109954965D01*
X115802482Y-109956336D01*
X115796326Y-109957488D01*
X115790542Y-109958409D01*
X115785181Y-109959085D01*
X115780297Y-109959500D01*
X115775944Y-109959641D01*
X115771699Y-109959817D01*
X115767136Y-109960333D01*
X115762295Y-109961171D01*
X115757219Y-109962315D01*
X115751952Y-109963746D01*
X115746534Y-109965447D01*
X115741008Y-109967402D01*
X115735417Y-109969592D01*
X115729804Y-109972000D01*
X115724209Y-109974610D01*
X115718676Y-109977402D01*
X115713247Y-109980361D01*
X115707964Y-109983468D01*
X115702869Y-109986706D01*
X115698005Y-109990058D01*
X115693415Y-109993507D01*
X115688924Y-109996957D01*
X115684355Y-110000310D01*
X115679739Y-110003550D01*
X115675109Y-110006657D01*
X115670497Y-110009616D01*
X115665936Y-110012409D01*
X115661458Y-110015018D01*
X115657096Y-110017427D01*
X115652882Y-110019616D01*
X115648847Y-110021571D01*
X115645026Y-110023272D01*
X115641450Y-110024703D01*
X115638151Y-110025846D01*
X115635162Y-110026684D01*
X115632515Y-110027200D01*
X115631331Y-110027331D01*
X115630244Y-110027375D01*
X115627956Y-110027545D01*
X115625265Y-110028044D01*
X115622203Y-110028854D01*
X115618806Y-110029960D01*
X115615106Y-110031343D01*
X115611137Y-110032988D01*
X115606935Y-110034878D01*
X115602531Y-110036995D01*
X115597961Y-110039323D01*
X115593258Y-110041846D01*
X115583589Y-110047406D01*
X115573796Y-110053540D01*
X115568937Y-110056781D01*
X115564149Y-110060114D01*
X115559213Y-110063513D01*
X115553920Y-110066941D01*
X115548320Y-110070374D01*
X115542459Y-110073790D01*
X115530154Y-110080479D01*
X115517392Y-110086822D01*
X115504561Y-110092637D01*
X115492050Y-110097738D01*
X115486035Y-110099964D01*
X115480246Y-110101942D01*
X115474731Y-110103649D01*
X115469538Y-110105064D01*
X115464284Y-110106510D01*
X115458589Y-110108315D01*
X115452509Y-110110452D01*
X115446096Y-110112895D01*
X115432494Y-110118593D01*
X115418220Y-110125199D01*
X115403711Y-110132500D01*
X115389403Y-110140286D01*
X115375732Y-110148347D01*
X115369272Y-110152414D01*
X115363135Y-110156471D01*
X115350354Y-110164771D01*
X115336156Y-110173338D01*
X115321012Y-110181925D01*
X115305398Y-110190285D01*
X115289787Y-110198171D01*
X115274652Y-110205338D01*
X115260466Y-110211537D01*
X115247703Y-110216523D01*
X115241828Y-110218714D01*
X115236119Y-110220972D01*
X115230603Y-110223280D01*
X115225312Y-110225621D01*
X115220274Y-110227979D01*
X115215519Y-110230335D01*
X115211076Y-110232673D01*
X115206976Y-110234975D01*
X115203247Y-110237224D01*
X115199920Y-110239403D01*
X115197023Y-110241495D01*
X115195746Y-110242503D01*
X115194587Y-110243483D01*
X115193551Y-110244432D01*
X115192640Y-110245348D01*
X115191860Y-110246230D01*
X115191214Y-110247075D01*
X115190704Y-110247881D01*
X115190336Y-110248646D01*
X115190112Y-110249368D01*
X115190037Y-110250044D01*
X115189446Y-110251587D01*
X115187719Y-110253614D01*
X115181141Y-110258978D01*
X115170866Y-110265857D01*
X115157454Y-110273972D01*
X115123474Y-110292792D01*
X115083697Y-110313201D01*
X115042623Y-110332966D01*
X115004749Y-110349851D01*
X114988418Y-110356515D01*
X114974574Y-110361621D01*
X114963779Y-110364889D01*
X114956596Y-110366041D01*
X114955714Y-110366074D01*
X114954819Y-110366172D01*
X114953912Y-110366334D01*
X114952994Y-110366558D01*
X114952068Y-110366842D01*
X114951134Y-110367184D01*
X114949252Y-110368038D01*
X114947363Y-110369107D01*
X114945479Y-110370379D01*
X114943615Y-110371839D01*
X114941784Y-110373475D01*
X114939999Y-110375274D01*
X114938275Y-110377222D01*
X114936624Y-110379308D01*
X114935061Y-110381518D01*
X114933600Y-110383838D01*
X114932252Y-110386256D01*
X114931034Y-110388759D01*
X114929957Y-110391334D01*
X114928577Y-110394109D01*
X114926470Y-110397195D01*
X114923677Y-110400560D01*
X114920244Y-110404170D01*
X114916213Y-110407994D01*
X114911629Y-110411999D01*
X114906534Y-110416152D01*
X114900973Y-110420421D01*
X114894989Y-110424774D01*
X114888625Y-110429176D01*
X114881926Y-110433597D01*
X114874935Y-110438004D01*
X114867695Y-110442364D01*
X114860250Y-110446644D01*
X114852643Y-110450812D01*
X114844920Y-110454835D01*
X114801581Y-110477751D01*
X114754188Y-110504487D01*
X114704040Y-110534223D01*
X114652438Y-110566140D01*
X114600680Y-110599417D01*
X114550069Y-110633234D01*
X114501903Y-110666771D01*
X114457484Y-110699208D01*
X114437735Y-110713918D01*
X114419018Y-110727642D01*
X114401763Y-110740079D01*
X114386401Y-110750928D01*
X114373363Y-110759889D01*
X114363080Y-110766662D01*
X114359106Y-110769134D01*
X114355982Y-110770946D01*
X114353762Y-110772061D01*
X114353008Y-110772345D01*
X114352500Y-110772441D01*
X114351335Y-110772726D01*
X114349399Y-110773564D01*
X114343394Y-110776783D01*
X114334839Y-110781873D01*
X114324088Y-110788607D01*
X114311495Y-110796760D01*
X114297415Y-110806106D01*
X114282200Y-110816420D01*
X114266206Y-110827476D01*
X114232554Y-110850850D01*
X114199230Y-110873808D01*
X114170082Y-110893708D01*
X114148957Y-110907908D01*
X114110513Y-110933724D01*
X114073400Y-110959350D01*
X114038708Y-110983974D01*
X114007531Y-111006781D01*
X113980958Y-111026960D01*
X113969739Y-111035809D01*
X113960081Y-111043697D01*
X113952120Y-111050521D01*
X113945992Y-111056180D01*
X113941835Y-111060573D01*
X113940537Y-111062262D01*
X113939783Y-111063597D01*
X113938710Y-111065319D01*
X113936689Y-111067630D01*
X113933774Y-111070490D01*
X113930017Y-111073860D01*
X113920184Y-111081974D01*
X113907606Y-111091659D01*
X113892700Y-111102602D01*
X113875883Y-111114491D01*
X113857572Y-111127012D01*
X113838184Y-111139854D01*
X113817615Y-111153557D01*
X113795917Y-111168548D01*
X113773747Y-111184343D01*
X113751758Y-111200455D01*
X113730604Y-111216397D01*
X113710939Y-111231684D01*
X113693417Y-111245829D01*
X113678693Y-111258348D01*
X113672088Y-111264048D01*
X113665410Y-111269588D01*
X113658705Y-111274940D01*
X113652018Y-111280075D01*
X113645394Y-111284964D01*
X113638881Y-111289579D01*
X113632522Y-111293890D01*
X113626364Y-111297869D01*
X113620452Y-111301487D01*
X113614832Y-111304717D01*
X113609549Y-111307528D01*
X113604649Y-111309892D01*
X113600178Y-111311781D01*
X113596181Y-111313165D01*
X113592704Y-111314017D01*
X113591175Y-111314234D01*
X113589793Y-111314308D01*
X113588493Y-111314327D01*
X113587209Y-111314386D01*
X113585944Y-111314481D01*
X113584698Y-111314614D01*
X113583474Y-111314783D01*
X113582273Y-111314986D01*
X113581097Y-111315223D01*
X113579946Y-111315493D01*
X113578824Y-111315794D01*
X113577732Y-111316127D01*
X113576670Y-111316489D01*
X113575641Y-111316881D01*
X113574647Y-111317300D01*
X113573688Y-111317747D01*
X113572768Y-111318220D01*
X113571886Y-111318717D01*
X113571045Y-111319239D01*
X113570247Y-111319784D01*
X113569493Y-111320352D01*
X113568785Y-111320940D01*
X113568124Y-111321549D01*
X113567512Y-111322177D01*
X113566950Y-111322823D01*
X113566441Y-111323487D01*
X113565986Y-111324167D01*
X113565586Y-111324863D01*
X113565243Y-111325573D01*
X113564959Y-111326297D01*
X113564735Y-111327033D01*
X113564573Y-111327781D01*
X113564475Y-111328539D01*
X113564442Y-111329307D01*
X113563761Y-111331426D01*
X113561763Y-111334646D01*
X113558516Y-111338901D01*
X113554087Y-111344124D01*
X113541950Y-111357212D01*
X113525892Y-111373380D01*
X113506450Y-111392101D01*
X113484163Y-111412844D01*
X113459569Y-111435081D01*
X113433207Y-111458283D01*
X113358217Y-111525441D01*
X113267439Y-111609787D01*
X113168821Y-111703552D01*
X113070311Y-111798967D01*
X112979856Y-111888264D01*
X112905406Y-111963674D01*
X112854907Y-112017429D01*
X112841123Y-112033757D01*
X112837532Y-112038859D01*
X112836307Y-112041758D01*
X112836241Y-112042563D01*
X112836044Y-112043468D01*
X112835271Y-112045565D01*
X112834014Y-112048020D01*
X112832299Y-112050804D01*
X112830153Y-112053886D01*
X112827601Y-112057238D01*
X112824670Y-112060830D01*
X112821385Y-112064632D01*
X112817773Y-112068616D01*
X112813859Y-112072752D01*
X112809670Y-112077011D01*
X112805232Y-112081363D01*
X112800571Y-112085778D01*
X112795712Y-112090228D01*
X112790683Y-112094683D01*
X112785508Y-112099113D01*
X112780333Y-112103556D01*
X112775304Y-112108050D01*
X112770445Y-112112563D01*
X112765784Y-112117065D01*
X112761346Y-112121525D01*
X112757157Y-112125913D01*
X112753243Y-112130197D01*
X112749631Y-112134347D01*
X112746346Y-112138332D01*
X112743415Y-112142123D01*
X112740863Y-112145687D01*
X112738717Y-112148994D01*
X112737002Y-112152014D01*
X112735745Y-112154716D01*
X112735296Y-112155938D01*
X112734972Y-112157070D01*
X112734775Y-112158106D01*
X112734708Y-112159043D01*
X112734679Y-112159942D01*
X112734593Y-112160864D01*
X112734450Y-112161808D01*
X112734253Y-112162772D01*
X112734002Y-112163754D01*
X112733700Y-112164751D01*
X112732946Y-112166786D01*
X112732003Y-112168860D01*
X112730881Y-112170958D01*
X112729592Y-112173063D01*
X112728148Y-112175162D01*
X112726559Y-112177236D01*
X112724838Y-112179271D01*
X112722996Y-112181251D01*
X112721043Y-112183160D01*
X112718992Y-112184983D01*
X112716855Y-112186703D01*
X112714641Y-112188304D01*
X112712363Y-112189771D01*
X112705582Y-112194998D01*
X112696712Y-112203551D01*
X112686103Y-112214963D01*
X112674103Y-112228764D01*
X112647323Y-112261663D01*
X112619161Y-112298497D01*
X112592404Y-112335518D01*
X112569841Y-112368977D01*
X112561002Y-112383199D01*
X112554258Y-112395125D01*
X112549956Y-112404285D01*
X112548829Y-112407682D01*
X112548444Y-112410212D01*
X112548410Y-112411141D01*
X112548307Y-112412114D01*
X112547904Y-112414186D01*
X112547250Y-112416408D01*
X112546357Y-112418760D01*
X112545239Y-112421220D01*
X112543910Y-112423770D01*
X112542383Y-112426389D01*
X112540673Y-112429056D01*
X112538792Y-112431752D01*
X112536755Y-112434455D01*
X112534574Y-112437147D01*
X112532263Y-112439807D01*
X112529837Y-112442414D01*
X112527308Y-112444948D01*
X112524691Y-112447389D01*
X112521998Y-112449717D01*
X112511540Y-112459994D01*
X112498043Y-112476149D01*
X112481120Y-112498750D01*
X112460383Y-112528362D01*
X112435445Y-112565552D01*
X112405920Y-112610885D01*
X112331559Y-112728248D01*
X112293608Y-112788519D01*
X112261918Y-112838313D01*
X112256059Y-112847681D01*
X112249840Y-112858091D01*
X112243452Y-112869195D01*
X112237083Y-112880647D01*
X112230924Y-112892098D01*
X112225165Y-112903202D01*
X112219995Y-112913612D01*
X112215604Y-112922981D01*
X112141831Y-113083848D01*
X112119472Y-113133214D01*
X112099024Y-113179999D01*
X112090223Y-113200775D01*
X112082746Y-113218926D01*
X112076877Y-113233793D01*
X112072898Y-113244715D01*
X112057582Y-113289585D01*
X112042865Y-113331445D01*
X112029043Y-113369528D01*
X112016409Y-113403068D01*
X112005260Y-113431299D01*
X111995889Y-113453454D01*
X111991963Y-113462014D01*
X111988592Y-113468767D01*
X111985814Y-113473619D01*
X111983665Y-113476472D01*
X111982550Y-113477758D01*
X111981466Y-113479341D01*
X111980419Y-113481198D01*
X111979413Y-113483308D01*
X111978456Y-113485647D01*
X111977553Y-113488193D01*
X111976708Y-113490925D01*
X111975928Y-113493819D01*
X111975219Y-113496854D01*
X111974586Y-113500006D01*
X111974035Y-113503254D01*
X111973572Y-113506576D01*
X111973201Y-113509948D01*
X111972930Y-113513348D01*
X111972763Y-113516755D01*
X111972706Y-113520146D01*
X111972580Y-113523756D01*
X111972212Y-113527807D01*
X111971614Y-113532257D01*
X111970797Y-113537060D01*
X111968560Y-113547551D01*
X111965601Y-113558927D01*
X111962017Y-113570836D01*
X111957910Y-113582923D01*
X111953378Y-113594837D01*
X111948521Y-113606224D01*
X111943092Y-113620052D01*
X111936926Y-113638966D01*
X111930237Y-113662122D01*
X111923238Y-113688675D01*
X111916142Y-113717782D01*
X111909163Y-113748598D01*
X111902515Y-113780279D01*
X111896412Y-113811982D01*
X111884839Y-113873160D01*
X111873968Y-113927074D01*
X111869178Y-113949484D01*
X111865021Y-113967892D01*
X111861649Y-113981568D01*
X111859217Y-113989784D01*
X111855057Y-114005599D01*
X111851479Y-114028181D01*
X111846061Y-114090837D01*
X111842947Y-114172126D01*
X111842119Y-114266427D01*
X111843559Y-114368116D01*
X111847250Y-114471569D01*
X111853175Y-114571162D01*
X111861317Y-114661274D01*
X111866688Y-114706344D01*
X111872708Y-114750633D01*
X111879300Y-114793847D01*
X111886386Y-114835692D01*
X111893891Y-114875876D01*
X111901737Y-114914104D01*
X111909849Y-114950084D01*
X111918149Y-114983522D01*
X111926562Y-115014125D01*
X111935010Y-115041600D01*
X111943417Y-115065652D01*
X111951706Y-115085989D01*
X111959802Y-115102318D01*
X111963752Y-115108887D01*
X111967626Y-115114344D01*
X111971413Y-115118652D01*
X111975104Y-115121775D01*
X111978688Y-115123676D01*
X111982157Y-115124317D01*
X111984766Y-115123417D01*
X111988478Y-115120775D01*
X111993224Y-115116480D01*
X111998934Y-115110622D01*
X112012968Y-115094571D01*
X112030027Y-115073333D01*
X112049555Y-115047620D01*
X112070999Y-115018144D01*
X112093802Y-114985618D01*
X112117411Y-114950752D01*
X112155908Y-114893766D01*
X112199905Y-114830110D01*
X112298138Y-114691498D01*
X112399585Y-114552338D01*
X112491721Y-114430052D01*
X112548936Y-114357326D01*
X112608127Y-114284948D01*
X112669074Y-114213131D01*
X112731562Y-114142085D01*
X112795370Y-114072024D01*
X112860282Y-114003159D01*
X112926079Y-113935703D01*
X112992543Y-113869869D01*
X113059457Y-113805868D01*
X113126601Y-113743912D01*
X113193759Y-113684214D01*
X113260711Y-113626987D01*
X113327241Y-113572442D01*
X113393129Y-113520792D01*
X113458159Y-113472248D01*
X113522111Y-113427024D01*
X113653850Y-113339686D01*
X113785702Y-113258774D01*
X113919655Y-113183314D01*
X114057696Y-113112330D01*
X114201814Y-113044845D01*
X114353998Y-112979885D01*
X114516234Y-112916474D01*
X114690513Y-112853636D01*
X114824683Y-112806775D01*
X114939645Y-112766176D01*
X115023174Y-112736185D01*
X115049331Y-112726528D01*
X115063044Y-112721153D01*
X115083543Y-112712471D01*
X115114321Y-112699777D01*
X115190043Y-112669178D01*
X115243283Y-112646433D01*
X115303539Y-112618097D01*
X115368691Y-112585325D01*
X115436619Y-112549268D01*
X115505203Y-112511080D01*
X115572323Y-112471914D01*
X115635858Y-112432922D01*
X115693690Y-112395259D01*
X115779813Y-112334714D01*
X115869064Y-112266339D01*
X115966855Y-112185228D01*
X116078598Y-112086480D01*
X116209703Y-111965190D01*
X116365583Y-111816455D01*
X116551649Y-111635371D01*
X116773313Y-111417036D01*
X117252631Y-110944966D01*
X117417796Y-110783729D01*
X117501444Y-110703572D01*
X117582071Y-110632281D01*
X117670845Y-110557579D01*
X117764803Y-110481727D01*
X117860982Y-110406983D01*
X117956420Y-110335606D01*
X118048154Y-110269856D01*
X118133222Y-110211991D01*
X118208662Y-110164271D01*
X118272413Y-110125916D01*
X118333515Y-110179563D01*
X118346611Y-110190715D01*
X118360415Y-110201842D01*
X118374514Y-110212650D01*
X118388490Y-110222843D01*
X118401929Y-110232124D01*
X118414415Y-110240200D01*
X118420170Y-110243693D01*
X118425532Y-110246774D01*
X118430447Y-110249406D01*
X118434864Y-110251551D01*
X118438962Y-110253515D01*
X118442936Y-110255612D01*
X118446767Y-110257822D01*
X118450433Y-110260128D01*
X118453915Y-110262510D01*
X118457192Y-110264949D01*
X118460243Y-110267427D01*
X118463048Y-110269924D01*
X118465586Y-110272421D01*
X118467837Y-110274901D01*
X118468849Y-110276128D01*
X118469781Y-110277343D01*
X118470631Y-110278544D01*
X118471397Y-110279729D01*
X118472075Y-110280896D01*
X118472664Y-110282041D01*
X118473161Y-110283163D01*
X118473563Y-110284259D01*
X118473867Y-110285326D01*
X118474072Y-110286364D01*
X118474174Y-110287368D01*
X118474171Y-110288337D01*
X118473985Y-110289371D01*
X118473530Y-110290567D01*
X118471840Y-110293422D01*
X118469155Y-110296859D01*
X118465528Y-110300832D01*
X118461014Y-110305299D01*
X118455667Y-110310214D01*
X118442692Y-110321215D01*
X118427038Y-110333483D01*
X118409138Y-110346663D01*
X118389425Y-110360405D01*
X118368336Y-110374354D01*
X118327159Y-110401868D01*
X118283566Y-110432865D01*
X118237853Y-110467078D01*
X118190315Y-110504240D01*
X118090941Y-110586344D01*
X117987804Y-110677043D01*
X117883265Y-110774200D01*
X117779684Y-110875683D01*
X117679420Y-110979356D01*
X117584833Y-111083085D01*
X117543360Y-111131173D01*
X117498407Y-111185498D01*
X117449212Y-111247055D01*
X117395012Y-111316838D01*
X117268547Y-111485057D01*
X117112910Y-111698106D01*
X116999623Y-111848366D01*
X116880726Y-111993639D01*
X116756069Y-112134033D01*
X116625498Y-112269660D01*
X116488863Y-112400630D01*
X116346011Y-112527053D01*
X116196791Y-112649038D01*
X116041052Y-112766696D01*
X115878641Y-112880138D01*
X115709406Y-112989474D01*
X115533196Y-113094813D01*
X115349860Y-113196266D01*
X115159245Y-113293943D01*
X114961200Y-113387955D01*
X114755573Y-113478411D01*
X114542213Y-113565422D01*
X114464264Y-113597426D01*
X114384743Y-113632816D01*
X114303769Y-113671516D01*
X114221464Y-113713447D01*
X114137948Y-113758533D01*
X114053341Y-113806697D01*
X113967765Y-113857860D01*
X113881339Y-113911947D01*
X113794185Y-113968880D01*
X113706423Y-114028582D01*
X113529557Y-114155984D01*
X113351707Y-114293536D01*
X113173838Y-114440620D01*
X113105462Y-114500048D01*
X113033735Y-114564281D01*
X112884514Y-114702784D01*
X112734742Y-114847383D01*
X112592988Y-114989330D01*
X112467820Y-115119878D01*
X112414133Y-115178145D01*
X112367805Y-115230281D01*
X112329909Y-115275194D01*
X112301514Y-115311791D01*
X112283691Y-115338978D01*
X112279079Y-115348701D01*
X112277512Y-115355662D01*
X112277295Y-115358485D01*
X112276657Y-115361789D01*
X112275621Y-115365531D01*
X112274207Y-115369671D01*
X112272437Y-115374168D01*
X112270333Y-115378981D01*
X112267916Y-115384070D01*
X112265207Y-115389393D01*
X112262229Y-115394909D01*
X112259002Y-115400578D01*
X112255548Y-115406358D01*
X112251888Y-115412209D01*
X112248044Y-115418089D01*
X112244038Y-115423958D01*
X112239891Y-115429775D01*
X112235624Y-115435499D01*
X112193732Y-115490418D01*
X112282722Y-115578303D01*
X112291918Y-115587256D01*
X112301114Y-115595957D01*
X112310252Y-115604363D01*
X112319272Y-115612427D01*
X112328117Y-115620105D01*
X112336727Y-115627352D01*
X112345044Y-115634122D01*
X112353009Y-115640372D01*
X112360564Y-115646054D01*
X112367650Y-115651125D01*
X112374209Y-115655540D01*
X112380182Y-115659253D01*
X112385511Y-115662219D01*
X112390136Y-115664394D01*
X112392167Y-115665170D01*
X112394000Y-115665732D01*
X112395628Y-115666073D01*
X112397044Y-115666187D01*
X112399802Y-115666312D01*
X112402831Y-115666677D01*
X112406101Y-115667270D01*
X112409580Y-115668079D01*
X112413239Y-115669091D01*
X112417046Y-115670295D01*
X112420972Y-115671678D01*
X112424986Y-115673228D01*
X112429057Y-115674932D01*
X112433154Y-115676778D01*
X112437248Y-115678754D01*
X112441308Y-115680848D01*
X112445302Y-115683047D01*
X112449202Y-115685339D01*
X112452975Y-115687712D01*
X112456592Y-115690153D01*
X112470793Y-115698760D01*
X112490198Y-115708494D01*
X112542161Y-115730549D01*
X112607552Y-115754739D01*
X112681443Y-115779486D01*
X112758905Y-115803211D01*
X112835008Y-115824336D01*
X112904825Y-115841282D01*
X112935835Y-115847694D01*
X112963425Y-115852470D01*
X113024307Y-115860306D01*
X113089792Y-115866155D01*
X113159209Y-115870067D01*
X113231889Y-115872090D01*
X113307162Y-115872275D01*
X113384359Y-115870672D01*
X113541845Y-115862298D01*
X113698988Y-115847365D01*
X113775756Y-115837562D01*
X113850430Y-115826269D01*
X113922339Y-115813535D01*
X113990813Y-115799408D01*
X114055184Y-115783940D01*
X114114780Y-115767179D01*
X114309513Y-115708158D01*
X114401332Y-115679336D01*
X114491086Y-115648874D01*
X114580751Y-115615967D01*
X114672303Y-115579807D01*
X114767719Y-115539587D01*
X114868975Y-115494499D01*
X114978047Y-115443736D01*
X115096912Y-115386491D01*
X115242701Y-115313019D01*
X115388471Y-115234994D01*
X115534221Y-115152419D01*
X115679946Y-115065295D01*
X115825642Y-114973626D01*
X115971308Y-114877414D01*
X116116939Y-114776661D01*
X116262532Y-114671371D01*
X116408083Y-114561544D01*
X116553589Y-114447185D01*
X116699046Y-114328296D01*
X116844452Y-114204878D01*
X116989803Y-114076935D01*
X117135095Y-113944470D01*
X117280325Y-113807484D01*
X117425489Y-113665980D01*
X117572578Y-113517523D01*
X117711834Y-113371303D01*
X117843294Y-113227267D01*
X117966994Y-113085359D01*
X118082971Y-112945527D01*
X118191262Y-112807714D01*
X118291902Y-112671867D01*
X118384928Y-112537932D01*
X118470377Y-112405853D01*
X118548285Y-112275577D01*
X118618689Y-112147049D01*
X118681625Y-112020216D01*
X118737130Y-111895021D01*
X118785240Y-111771412D01*
X118825992Y-111649333D01*
X118859421Y-111528730D01*
X118872035Y-111476325D01*
X118881732Y-111431208D01*
X118885568Y-111410489D01*
X118888770Y-111390520D01*
X118891372Y-111370943D01*
X118893405Y-111351401D01*
X118894901Y-111331538D01*
X118895892Y-111310994D01*
X118896410Y-111289414D01*
X118896488Y-111266440D01*
X118895449Y-111214879D01*
X118893030Y-111153453D01*
X118890963Y-111111860D01*
X118888576Y-111071563D01*
X118885955Y-111033550D01*
X118883186Y-110998811D01*
X118880352Y-110968333D01*
X118877539Y-110943106D01*
X118874832Y-110924117D01*
X118873544Y-110917272D01*
X118872315Y-110912358D01*
X118871007Y-110907541D01*
X118870078Y-110902927D01*
X118869515Y-110898522D01*
X118869303Y-110894331D01*
X118869429Y-110890358D01*
X118869878Y-110886609D01*
X118870637Y-110883090D01*
X118871692Y-110879804D01*
X118873028Y-110876757D01*
X118874631Y-110873954D01*
X118876488Y-110871401D01*
X118878584Y-110869102D01*
X118880906Y-110867063D01*
X118883439Y-110865288D01*
X118886170Y-110863783D01*
X118889083Y-110862553D01*
X118892167Y-110861603D01*
X118895405Y-110860938D01*
X118898785Y-110860562D01*
X118902292Y-110860482D01*
X118905912Y-110860702D01*
X118909632Y-110861228D01*
X118913437Y-110862064D01*
X118917313Y-110863216D01*
X118921246Y-110864688D01*
X118925223Y-110866486D01*
X118929229Y-110868615D01*
X118933250Y-110871080D01*
X118937272Y-110873885D01*
X118941281Y-110877038D01*
X118945263Y-110880541D01*
X118949204Y-110884400D01*
X118956023Y-110892727D01*
X118963163Y-110903925D01*
X118970593Y-110917894D01*
X118978281Y-110934533D01*
X118994309Y-110975419D01*
X119010997Y-111025779D01*
X119028098Y-111084807D01*
X119045363Y-111151699D01*
X119062543Y-111225648D01*
X119079389Y-111305851D01*
X119087802Y-111354801D01*
X119094989Y-111410624D01*
X119105713Y-111539080D01*
X119111621Y-111683612D01*
X119112772Y-111836611D01*
X119109225Y-111990469D01*
X119101039Y-112137578D01*
X119088273Y-112270330D01*
X119080192Y-112328945D01*
X119070988Y-112381117D01*
X119046329Y-112493648D01*
X119017546Y-112606126D01*
X118984640Y-112718550D01*
X118947610Y-112830920D01*
X118906457Y-112943234D01*
X118861182Y-113055492D01*
X118811785Y-113167692D01*
X118758267Y-113279833D01*
X118700627Y-113391916D01*
X118638868Y-113503938D01*
X118572988Y-113615900D01*
X118502988Y-113727799D01*
X118428869Y-113839636D01*
X118350632Y-113951409D01*
X118268276Y-114063117D01*
X118181803Y-114174760D01*
X118138102Y-114228251D01*
X118087631Y-114287229D01*
X117969897Y-114418117D01*
X117835638Y-114560376D01*
X117691891Y-114706956D01*
X117545694Y-114850810D01*
X117404082Y-114984888D01*
X117274093Y-115102141D01*
X117215656Y-115152256D01*
X117162763Y-115195521D01*
X116981431Y-115334976D01*
X116801637Y-115464121D01*
X116622209Y-115583646D01*
X116532267Y-115640015D01*
X116441977Y-115694237D01*
X116351193Y-115746399D01*
X116259768Y-115796585D01*
X116167556Y-115844882D01*
X116074410Y-115891376D01*
X115980185Y-115936153D01*
X115884733Y-115979299D01*
X115689564Y-116061042D01*
X115506910Y-116130514D01*
X115330405Y-116190824D01*
X115156911Y-116242698D01*
X114983293Y-116286866D01*
X114806412Y-116324055D01*
X114623132Y-116354993D01*
X114430317Y-116380409D01*
X114224830Y-116401029D01*
X114224833Y-116401029D01*
X114163343Y-116403985D01*
X114082566Y-116404372D01*
X113988322Y-116402464D01*
X113886431Y-116398532D01*
X113782711Y-116392848D01*
X113682984Y-116385686D01*
X113593069Y-116377316D01*
X113518784Y-116368012D01*
X113426063Y-116352698D01*
X113336040Y-116334965D01*
X113248640Y-116314780D01*
X113163789Y-116292108D01*
X113081412Y-116266915D01*
X113001436Y-116239166D01*
X112923786Y-116208828D01*
X112848388Y-116175867D01*
X112775167Y-116140247D01*
X112704050Y-116101934D01*
X112634961Y-116060895D01*
X112567827Y-116017095D01*
X112502574Y-115970500D01*
X112439127Y-115921075D01*
X112377411Y-115868786D01*
X112317353Y-115813600D01*
X112262775Y-115759704D01*
X112211575Y-115705517D01*
X112163624Y-115650791D01*
X112118793Y-115595277D01*
X112076951Y-115538727D01*
X112037969Y-115480892D01*
X112001718Y-115421524D01*
X111968067Y-115360374D01*
X111936888Y-115297192D01*
X111908050Y-115231732D01*
X111881424Y-115163744D01*
X111856881Y-115092979D01*
X111834290Y-115019190D01*
X111813523Y-114942127D01*
X111794449Y-114861542D01*
X111776939Y-114777186D01*
X111770557Y-114738469D01*
X111765147Y-114693575D01*
X111757206Y-114588440D01*
X111753047Y-114468137D01*
X111752603Y-114339024D01*
X111755808Y-114207457D01*
X111762593Y-114079795D01*
X111772892Y-113962395D01*
X111779338Y-113909529D01*
X111786637Y-113861613D01*
X111806922Y-113756642D01*
X111832119Y-113649949D01*
X111862087Y-113541827D01*
X111896684Y-113432567D01*
X111935769Y-113322461D01*
X111979200Y-113211801D01*
X112026836Y-113100879D01*
X112078535Y-112989988D01*
X112134156Y-112879418D01*
X112193558Y-112769462D01*
X112256598Y-112660413D01*
X112323135Y-112552561D01*
X112393029Y-112446198D01*
X112466137Y-112341618D01*
X112542318Y-112239110D01*
X112621430Y-112138969D01*
X112758938Y-111975993D01*
X112900414Y-111820505D01*
X112973647Y-111744660D01*
X113049083Y-111669594D01*
X113127122Y-111594944D01*
X113208169Y-111520346D01*
X113380896Y-111369849D01*
X113570489Y-111215189D01*
X113780172Y-111053455D01*
X114013169Y-110881733D01*
X114199581Y-110749110D01*
X114381084Y-110624425D01*
X114557953Y-110507542D01*
X114730467Y-110398326D01*
X114898902Y-110296641D01*
X115063534Y-110202353D01*
X115224641Y-110115326D01*
X115382500Y-110035425D01*
X115537386Y-109962515D01*
X115689578Y-109896460D01*
X115839351Y-109837125D01*
X115986983Y-109784374D01*
X116132751Y-109738074D01*
X116276930Y-109698087D01*
X116419799Y-109664279D01*
X116561634Y-109636515D01*
X116603179Y-109630251D01*
X116650000Y-109625000D01*
X116756306Y-109617486D01*
X116874229Y-109613869D01*
X116997445Y-109614046D01*
G37*
%TO.C,J4*%
X174670000Y-85670000D02*
X176000000Y-85670000D01*
X174670000Y-87000000D02*
X174670000Y-85670000D01*
X174670000Y-88270000D02*
X174670000Y-90870000D01*
X174670000Y-88270000D02*
X177330000Y-88270000D01*
X174670000Y-90870000D02*
X177330000Y-90870000D01*
X177330000Y-88270000D02*
X177330000Y-90870000D01*
%TO.C,R8*%
X114677064Y-65560000D02*
X114222936Y-65560000D01*
X114677064Y-64090000D02*
X114222936Y-64090000D01*
%TO.C,R3*%
X166565000Y-87952064D02*
X166565000Y-87497936D01*
X168035000Y-87952064D02*
X168035000Y-87497936D01*
%TO.C,J7*%
X135240000Y-108985000D02*
X136290000Y-108985000D01*
X135240000Y-111485000D02*
X135240000Y-108985000D01*
X136290000Y-108985000D02*
X136290000Y-107995000D01*
X136410000Y-113455000D02*
X140290000Y-113455000D01*
X141460000Y-108985000D02*
X140410000Y-108985000D01*
X141460000Y-111485000D02*
X141460000Y-108985000D01*
D13*
%TO.C,U1*%
X157910000Y-72780000D02*
X162230000Y-72780000D01*
X157910000Y-87780000D02*
X162230000Y-87780000D01*
D14*
X154805000Y-73295000D02*
G75*
G03*
X154605000Y-73295000I-100000J0D01*
G01*
X154605000Y-73295000D02*
G75*
G03*
X154805000Y-73295000I100000J0D01*
G01*
D12*
%TO.C,C9*%
X120265000Y-100386252D02*
X120265000Y-99863748D01*
X121735000Y-100386252D02*
X121735000Y-99863748D01*
%TO.C,R7*%
X115830000Y-83502936D02*
X115830000Y-83957064D01*
X114360000Y-83502936D02*
X114360000Y-83957064D01*
%TO.C,J17*%
X108305000Y-109330000D02*
X106975000Y-109330000D01*
X108305000Y-108000000D02*
X108305000Y-109330000D01*
X108305000Y-106730000D02*
X108305000Y-104130000D01*
X108305000Y-106730000D02*
X105645000Y-106730000D01*
X108305000Y-104130000D02*
X105645000Y-104130000D01*
X105645000Y-106730000D02*
X105645000Y-104130000D01*
%TO.C,C1*%
X152525000Y-72611252D02*
X152525000Y-72088748D01*
X153995000Y-72611252D02*
X153995000Y-72088748D01*
%TO.C,J5*%
X169830000Y-110895000D02*
X169830000Y-112225000D01*
X168500000Y-110895000D02*
X169830000Y-110895000D01*
X167230000Y-110895000D02*
X164630000Y-110895000D01*
X167230000Y-110895000D02*
X167230000Y-113555000D01*
X164630000Y-110895000D02*
X164630000Y-113555000D01*
X167230000Y-113555000D02*
X164630000Y-113555000D01*
%TO.C,R2*%
X149232936Y-106935000D02*
X149687064Y-106935000D01*
X149232936Y-108405000D02*
X149687064Y-108405000D01*
%TD*%
M02*
