M48
; DRILL file {KiCad 7.0.10} date Saturday, March 09, 2024 at 05:04:36 AM
; FORMAT={-:-/ absolute / metric / decimal}
; #@! TF.CreationDate,2024-03-09T05:04:36-09:00
; #@! TF.GenerationSoftware,Kicad,Pcbnew,7.0.10
; #@! TF.FileFunction,MixedPlating,1,4
FMAT,2
METRIC
; #@! TA.AperFunction,Plated,PTH,ViaDrill
T1C0.400
; #@! TA.AperFunction,Plated,PTH,ComponentDrill
T2C1.000
; #@! TA.AperFunction,Plated,PTH,ComponentDrill
T3C1.300
; #@! TA.AperFunction,Plated,PTH,ViaDrill
T4C3.200
%
G90
G05
T1
X113.025Y-64.825
X115.085Y-89.53
X115.095Y-82.3
X115.295Y-67.028
X116.3Y-104.225
X116.555Y-74.278
X117.8Y-104.2
X117.825Y-89.55
X117.83Y-67.02
X117.835Y-82.31
X119.105Y-74.297
X119.24Y-77.0
X119.35Y-92.8
X120.375Y-67.028
X121.0Y-98.675
X121.0Y-101.575
X121.635Y-74.287
X124.45Y-73.125
X124.65Y-68.2
X128.175Y-91.05
X132.57Y-91.01
X132.58Y-80.73
X133.375Y-98.675
X133.38Y-68.18
X135.67Y-65.76
X135.952Y-85.975
X136.04Y-75.35
X136.04Y-81.63
X136.25Y-101.675
X136.25Y-105.32
X136.395Y-107.425
X138.15Y-93.0
X138.525Y-95.875
X138.975Y-71.0
X140.525Y-89.375
X141.34Y-78.59
X141.375Y-84.525
X146.71Y-93.61
X149.675Y-61.675
X152.68Y-59.73
X153.26Y-70.91
X153.525Y-64.115
X153.825Y-93.425
X154.275Y-104.0
X154.43Y-58.38
X155.43Y-63.02
X156.625Y-97.225
X156.75Y-61.675
X156.75Y-99.775
X156.775Y-59.725
X157.57Y-69.593
X157.6Y-94.675
X157.64Y-87.26
X157.74Y-73.3
X157.74Y-74.57
X162.375Y-90.275
X162.4Y-75.83
X162.4Y-87.26
X163.52Y-68.07
X163.54Y-72.4
X163.55Y-71.53
X164.775Y-91.925
T2
X106.975Y-65.645
X106.975Y-68.185
X106.975Y-70.725
X106.975Y-77.05
X106.975Y-79.59
X106.975Y-82.13
X106.975Y-84.67
X106.975Y-87.21
X106.975Y-89.75
X106.975Y-96.46
X106.975Y-99.0
X106.975Y-105.46
X106.975Y-108.0
X112.81Y-60.83
X115.35Y-60.83
X122.62Y-60.81
X125.16Y-60.81
X133.15Y-57.9
X135.69Y-57.9
X138.23Y-57.9
X140.77Y-57.9
X143.31Y-57.9
X145.85Y-57.9
X145.96Y-112.225
X148.5Y-112.225
X155.96Y-112.225
X158.5Y-112.225
X163.75Y-62.52
X165.96Y-112.225
X166.29Y-62.52
X168.5Y-112.225
X175.975Y-96.0
X175.975Y-98.54
X176.0Y-65.0
X176.0Y-67.54
X176.0Y-70.08
X176.0Y-72.62
X176.0Y-75.16
X176.0Y-77.7
X176.0Y-80.24
X176.0Y-87.0
X176.0Y-89.54
X176.0Y-105.0
X176.0Y-107.54
T3
X124.1Y-111.875
X129.18Y-111.875
T4
X105.875Y-57.275
X105.875Y-115.275
X175.875Y-57.275
X175.875Y-115.275
M30
