%TF.GenerationSoftware,KiCad,Pcbnew,7.0.10*%
%TF.CreationDate,2024-03-09T05:04:33-09:00*%
%TF.ProjectId,SP_V.1.7.5_Board,53505f56-2e31-42e3-972e-355f426f6172,rev?*%
%TF.SameCoordinates,Original*%
%TF.FileFunction,Soldermask,Bot*%
%TF.FilePolarity,Negative*%
%FSLAX46Y46*%
G04 Gerber Fmt 4.6, Leading zero omitted, Abs format (unit mm)*
G04 Created by KiCad (PCBNEW 7.0.10) date 2024-03-09 05:04:33*
%MOMM*%
%LPD*%
G01*
G04 APERTURE LIST*
%ADD10R,1.700000X1.700000*%
%ADD11O,1.700000X1.700000*%
%ADD12R,2.600000X2.600000*%
%ADD13C,2.600000*%
G04 APERTURE END LIST*
D10*
%TO.C,J13*%
X176000000Y-65000000D03*
D11*
X176000000Y-67540000D03*
X176000000Y-70080000D03*
X176000000Y-72620000D03*
X176000000Y-75160000D03*
X176000000Y-77700000D03*
X176000000Y-80240000D03*
%TD*%
D10*
%TO.C,J1*%
X163750000Y-62520000D03*
D11*
X166290000Y-62520000D03*
%TD*%
D10*
%TO.C,J9*%
X112810000Y-60830000D03*
D11*
X115350000Y-60830000D03*
%TD*%
D10*
%TO.C,J8*%
X133150000Y-57900000D03*
D11*
X135690000Y-57900000D03*
X138230000Y-57900000D03*
X140770000Y-57900000D03*
X143310000Y-57900000D03*
X145850000Y-57900000D03*
%TD*%
D10*
%TO.C,J6*%
X106975000Y-89750000D03*
D11*
X106975000Y-87210000D03*
X106975000Y-84670000D03*
X106975000Y-82130000D03*
X106975000Y-79590000D03*
X106975000Y-77050000D03*
%TD*%
D10*
%TO.C,J10*%
X106975000Y-70725000D03*
D11*
X106975000Y-68185000D03*
X106975000Y-65645000D03*
%TD*%
D10*
%TO.C,J15*%
X175975000Y-96000000D03*
D11*
X175975000Y-98540000D03*
%TD*%
D10*
%TO.C,J19*%
X176000000Y-105000000D03*
D11*
X176000000Y-107540000D03*
%TD*%
D10*
%TO.C,J14*%
X122620000Y-60810000D03*
D11*
X125160000Y-60810000D03*
%TD*%
D10*
%TO.C,J16*%
X106975000Y-99000000D03*
D11*
X106975000Y-96460000D03*
%TD*%
D10*
%TO.C,J2*%
X158500000Y-112225000D03*
D11*
X155960000Y-112225000D03*
%TD*%
D10*
%TO.C,J3*%
X148500000Y-112225000D03*
D11*
X145960000Y-112225000D03*
%TD*%
D12*
%TO.C,J12*%
X124100000Y-111875000D03*
D13*
X129180000Y-111875000D03*
%TD*%
D10*
%TO.C,J4*%
X176000000Y-87000000D03*
D11*
X176000000Y-89540000D03*
%TD*%
D10*
%TO.C,J17*%
X106975000Y-108000000D03*
D11*
X106975000Y-105460000D03*
%TD*%
D10*
%TO.C,J5*%
X168500000Y-112225000D03*
D11*
X165960000Y-112225000D03*
%TD*%
M02*
